Grandstander-ThinItalic.ufo
<glyph name="quotedbl" format="2">
  <advance width="764"/>
  <unicode hex="0022"/>
  <outline>
    <contour>
      <point x="441" y="1050" type="curve"/>
      <point x="471" y="1127"/>
      <point x="512" y="1262"/>
      <point x="552" y="1409" type="curve" smooth="yes"/>
      <point x="558" y="1431"/>
      <point x="562" y="1450"/>
      <point x="563" y="1462" type="curve"/>
      <point x="556" y="1463"/>
      <point x="549" y="1463"/>
      <point x="542" y="1463" type="curve" smooth="yes"/>
      <point x="515" y="1463"/>
      <point x="492" y="1457"/>
      <point x="480" y="1451" type="curve"/>
      <point x="460" y="1378"/>
      <point x="415" y="1133"/>
      <point x="401" y="1055" type="curve"/>
      <point x="405" y="1051"/>
      <point x="430" y="1050"/>
    </contour>
    <contour>
      <point x="593" y="1058" type="curve"/>
      <point x="601" y="1057"/>
      <point x="623" y="1056"/>
      <point x="637" y="1056" type="curve"/>
      <point x="687" y="1180"/>
      <point x="744" y="1340"/>
      <point x="765" y="1425" type="curve" smooth="yes"/>
      <point x="768" y="1437"/>
      <point x="771" y="1449"/>
      <point x="772" y="1458" type="curve"/>
      <point x="752" y="1458"/>
      <point x="713" y="1457"/>
      <point x="705" y="1456" type="curve"/>
      <point x="687" y="1403"/>
      <point x="645" y="1259"/>
      <point x="617" y="1151" type="curve" smooth="yes"/>
      <point x="607" y="1113"/>
      <point x="597" y="1075"/>
    </contour>
  </outline>
</glyph>
<glyph name="numbersign" format="2">
  <advance width="1511"/>
  <unicode hex="0023"/>
  <outline>
    <contour>
      <point x="180" y="900" type="curve"/>
      <point x="355" y="900"/>
      <point x="578" y="909"/>
      <point x="812" y="920" type="curve" smooth="yes"/>
      <point x="1068" y="932"/>
      <point x="1335" y="942"/>
      <point x="1565" y="942" type="curve"/>
      <point x="1580" y="971"/>
      <point x="1591" y="1005"/>
      <point x="1600" y="1038" type="curve"/>
      <point x="1364" y="1038"/>
      <point x="1131" y="1023"/>
      <point x="899" y="1008" type="curve" smooth="yes"/>
      <point x="670" y="993"/>
      <point x="440" y="978"/>
      <point x="208" y="978" type="curve"/>
      <point x="199" y="958"/>
      <point x="188" y="929"/>
    </contour>
    <contour>
      <point x="1416" y="476" type="curve"/>
      <point x="1427" y="494"/>
      <point x="1441" y="531"/>
      <point x="1453" y="577" type="curve"/>
      <point x="1294" y="577"/>
      <point x="1134" y="579"/>
      <point x="972" y="582" type="curve" smooth="yes"/>
      <point x="810" y="585"/>
      <point x="645" y="587"/>
      <point x="480" y="587" type="curve" smooth="yes"/>
      <point x="341" y="587"/>
      <point x="202" y="586"/>
      <point x="62" y="581" type="curve"/>
      <point x="49" y="552"/>
      <point x="39" y="526"/>
      <point x="31" y="496" type="curve"/>
      <point x="96" y="498"/>
      <point x="168" y="499"/>
      <point x="245" y="499" type="curve" smooth="yes"/>
      <point x="421" y="499"/>
      <point x="623" y="499"/>
      <point x="823" y="491" type="curve" smooth="yes"/>
      <point x="1028" y="483"/>
      <point x="1233" y="476"/>
    </contour>
    <contour>
      <point x="331" y="-5" type="curve"/>
      <point x="362" y="-5"/>
      <point x="401" y="-3"/>
      <point x="428" y="2" type="curve"/>
      <point x="553" y="468"/>
      <point x="753" y="1194"/>
      <point x="842" y="1477" type="curve"/>
      <point x="818" y="1477"/>
      <point x="790" y="1476"/>
      <point x="760" y="1470" type="curve"/>
      <point x="605" y="1004"/>
      <point x="420" y="329"/>
    </contour>
    <contour>
      <point x="875" y="84" type="curve"/>
      <point x="910" y="84"/>
      <point x="945" y="88"/>
      <point x="971" y="92" type="curve"/>
      <point x="1024" y="364"/>
      <point x="1105" y="690"/>
      <point x="1184" y="986" type="curve" smooth="yes"/>
      <point x="1233" y="1170"/>
      <point x="1282" y="1343"/>
      <point x="1324" y="1484" type="curve"/>
      <point x="1283" y="1484"/>
      <point x="1259" y="1482"/>
      <point x="1229" y="1477" type="curve"/>
      <point x="1176" y="1311"/>
      <point x="1122" y="1125"/>
      <point x="1070" y="931" type="curve" smooth="yes"/>
      <point x="996" y="653"/>
      <point x="926" y="358"/>
    </contour>
  </outline>
</glyph>
<glyph name="percent" format="2">
  <advance width="1385"/>
  <unicode hex="0025"/>
  <outline>
    <contour>
      <point x="112" y="-5" type="curve"/>
      <point x="318" y="187"/>
      <point x="1263" y="1179"/>
      <point x="1433" y="1379" type="curve"/>
      <point x="1422" y="1394"/>
      <point x="1388" y="1410"/>
      <point x="1372" y="1415" type="curve"/>
      <point x="1161" y="1161"/>
      <point x="415" y="385"/>
      <point x="63" y="29" type="curve"/>
      <point x="73" y="17"/>
      <point x="98" y="2"/>
    </contour>
    <contour>
      <point x="927" y="193" type="curve" smooth="yes"/>
      <point x="837" y="193"/>
      <point x="798" y="239"/>
      <point x="798" y="309" type="curve" smooth="yes"/>
      <point x="798" y="427"/>
      <point x="896" y="538"/>
      <point x="1007" y="538" type="curve" smooth="yes"/>
      <point x="1093" y="538"/>
      <point x="1139" y="495"/>
      <point x="1139" y="426" type="curve" smooth="yes"/>
      <point x="1139" y="306"/>
      <point x="1052" y="193"/>
    </contour>
    <contour>
      <point x="926" y="137" type="curve" smooth="yes"/>
      <point x="1078" y="137"/>
      <point x="1208" y="288"/>
      <point x="1208" y="438" type="curve" smooth="yes"/>
      <point x="1208" y="534"/>
      <point x="1147" y="605"/>
      <point x="1019" y="605" type="curve" smooth="yes"/>
      <point x="873" y="605"/>
      <point x="734" y="454"/>
      <point x="734" y="298" type="curve" smooth="yes"/>
      <point x="734" y="194"/>
      <point x="804" y="137"/>
    </contour>
    <contour>
      <point x="543" y="821" type="curve" smooth="yes"/>
      <point x="702" y="821"/>
      <point x="831" y="951"/>
      <point x="831" y="1106" type="curve" smooth="yes"/>
      <point x="831" y="1201"/>
      <point x="765" y="1258"/>
      <point x="655" y="1258" type="curve" smooth="yes"/>
      <point x="497" y="1258"/>
      <point x="366" y="1134"/>
      <point x="366" y="981" type="curve" smooth="yes"/>
      <point x="366" y="887"/>
      <point x="430" y="821"/>
    </contour>
    <contour>
      <point x="559" y="880" type="curve" smooth="yes"/>
      <point x="472" y="880"/>
      <point x="431" y="917"/>
      <point x="431" y="985" type="curve" smooth="yes"/>
      <point x="431" y="1109"/>
      <point x="525" y="1203"/>
      <point x="658" y="1203" type="curve" smooth="yes"/>
      <point x="721" y="1203"/>
      <point x="762" y="1163"/>
      <point x="762" y="1094" type="curve" smooth="yes"/>
      <point x="762" y="982"/>
      <point x="678" y="880"/>
    </contour>
  </outline>
</glyph>
<glyph name="asterisk" format="2">
  <advance width="924"/>
  <unicode hex="002A"/>
  <outline>
    <contour>
      <point x="875" y="1041" type="curve"/>
      <point x="896" y="1059"/>
      <point x="917" y="1077"/>
      <point x="935" y="1108" type="curve"/>
      <point x="853" y="1161"/>
      <point x="732" y="1229"/>
      <point x="639" y="1279" type="curve"/>
      <point x="564" y="1342"/>
      <point x="473" y="1414"/>
      <point x="403" y="1468" type="curve"/>
      <point x="375" y="1445"/>
      <point x="359" y="1424"/>
      <point x="333" y="1389" type="curve"/>
      <point x="411" y="1336"/>
      <point x="499" y="1285"/>
      <point x="585" y="1241" type="curve"/>
      <point x="667" y="1178"/>
      <point x="786" y="1095"/>
    </contour>
    <contour>
      <point x="553" y="893" type="curve" smooth="yes"/>
      <point x="569" y="893"/>
      <point x="584" y="895"/>
      <point x="597" y="897" type="curve"/>
      <point x="620" y="984"/>
      <point x="655" y="1140"/>
      <point x="679" y="1248" type="curve"/>
      <point x="714" y="1350"/>
      <point x="746" y="1453"/>
      <point x="773" y="1556" type="curve"/>
      <point x="762" y="1559"/>
      <point x="746" y="1561"/>
      <point x="730" y="1561" type="curve" smooth="yes"/>
      <point x="714" y="1561"/>
      <point x="698" y="1559"/>
      <point x="682" y="1556" type="curve"/>
      <point x="655" y="1455"/>
      <point x="631" y="1356"/>
      <point x="614" y="1248" type="curve"/>
      <point x="576" y="1130"/>
      <point x="538" y="1005"/>
      <point x="506" y="897" type="curve"/>
      <point x="518" y="894"/>
      <point x="536" y="893"/>
    </contour>
    <contour>
      <point x="287" y="1036" type="curve"/>
      <point x="406" y="1094"/>
      <point x="568" y="1173"/>
      <point x="683" y="1234" type="curve"/>
      <point x="793" y="1279"/>
      <point x="916" y="1330"/>
      <point x="1021" y="1379" type="curve"/>
      <point x="1017" y="1414"/>
      <point x="1003" y="1451"/>
      <point x="991" y="1468" type="curve"/>
      <point x="891" y="1418"/>
      <point x="749" y="1346"/>
      <point x="640" y="1282" type="curve"/>
      <point x="520" y="1231"/>
      <point x="367" y="1164"/>
      <point x="257" y="1111" type="curve"/>
      <point x="261" y="1086"/>
      <point x="277" y="1045"/>
    </contour>
  </outline>
</glyph>
<glyph name="hyphen" format="2">
  <advance width="864"/>
  <unicode hex="002D"/>
  <outline>
    <contour>
      <point x="857" y="730" type="curve"/>
      <point x="808" y="732"/>
      <point x="703" y="732"/>
      <point x="576" y="732" type="curve" smooth="yes"/>
      <point x="369" y="732"/>
      <point x="216" y="720"/>
      <point x="108" y="711" type="curve"/>
      <point x="102" y="689"/>
      <point x="99" y="667"/>
      <point x="97" y="650" type="curve"/>
      <point x="260" y="661"/>
      <point x="579" y="668"/>
      <point x="839" y="668" type="curve"/>
      <point x="845" y="683"/>
      <point x="853" y="711"/>
    </contour>
  </outline>
</glyph>
<glyph name="slash" format="2">
  <advance width="969"/>
  <unicode hex="002F"/>
  <outline>
    <contour>
      <point x="1075" y="1469" type="curve"/>
      <point x="722" y="930"/>
      <point x="196" y="277"/>
      <point x="-166" y="-115" type="curve"/>
      <point x="-153" y="-123"/>
      <point x="-108" y="-139"/>
      <point x="-89" y="-145" type="curve"/>
      <point x="204" y="157"/>
      <point x="717" y="814"/>
      <point x="1151" y="1433" type="curve"/>
      <point x="1138" y="1448"/>
      <point x="1104" y="1462"/>
    </contour>
  </outline>
</glyph>
<glyph name="zero" format="2">
  <advance width="1087"/>
  <unicode hex="0030"/>
  <outline>
    <contour>
      <point x="407" y="-32" type="curve" smooth="yes"/>
      <point x="749" y="-32"/>
      <point x="991" y="567"/>
      <point x="991" y="990" type="curve" smooth="yes"/>
      <point x="991" y="1215"/>
      <point x="917" y="1338"/>
      <point x="746" y="1338" type="curve" smooth="yes"/>
      <point x="429" y="1338"/>
      <point x="159" y="737"/>
      <point x="159" y="352" type="curve" smooth="yes"/>
      <point x="159" y="117"/>
      <point x="228" y="-32"/>
    </contour>
    <contour>
      <point x="415" y="42" type="curve" smooth="yes"/>
      <point x="293" y="42"/>
      <point x="242" y="150"/>
      <point x="242" y="347" type="curve" smooth="yes"/>
      <point x="242" y="660"/>
      <point x="472" y="1263"/>
      <point x="739" y="1263" type="curve" smooth="yes"/>
      <point x="861" y="1263"/>
      <point x="908" y="1154"/>
      <point x="908" y="961" type="curve" smooth="yes"/>
      <point x="908" y="610"/>
      <point x="688" y="42"/>
    </contour>
  </outline>
</glyph>
<glyph name="one" format="2">
  <advance width="809"/>
  <unicode hex="0031"/>
  <outline>
    <contour>
      <point x="318" y="91" type="curve"/>
      <point x="342" y="173"/>
      <point x="366" y="260"/>
      <point x="390" y="350" type="curve" smooth="yes"/>
      <point x="510" y="800"/>
      <point x="624" y="1297"/>
      <point x="626" y="1315" type="curve"/>
      <point x="615" y="1316"/>
      <point x="584" y="1318"/>
      <point x="556" y="1318" type="curve"/>
      <point x="471" y="1260"/>
      <point x="211" y="1053"/>
      <point x="172" y="1021" type="curve"/>
      <point x="175" y="1003"/>
      <point x="193" y="956"/>
      <point x="198" y="945" type="curve"/>
      <point x="232" y="975"/>
      <point x="496" y="1185"/>
      <point x="530" y="1211" type="curve"/>
      <point x="493" y="1073"/>
      <point x="254" y="166"/>
      <point x="240" y="91" type="curve"/>
      <point x="205" y="91"/>
      <point x="21" y="77"/>
      <point x="-23" y="70" type="curve"/>
      <point x="-29" y="61"/>
      <point x="-39" y="24"/>
      <point x="-42" y="-12" type="curve"/>
      <point x="33" y="-6"/>
      <point x="467" y="9"/>
      <point x="548" y="9" type="curve"/>
      <point x="560" y="32"/>
      <point x="572" y="65"/>
      <point x="579" y="85" type="curve"/>
      <point x="551" y="87"/>
      <point x="386" y="91"/>
    </contour>
  </outline>
</glyph>
<glyph name="four" format="2">
  <advance width="1104"/>
  <unicode hex="0034"/>
  <outline>
    <contour>
      <point x="958" y="432" type="curve"/>
      <point x="969" y="472"/>
      <point x="973" y="505"/>
      <point x="973" y="523" type="curve"/>
      <point x="956" y="523"/>
      <point x="786" y="516"/>
      <point x="697" y="511" type="curve"/>
      <point x="781" y="814"/>
      <point x="931" y="1284"/>
      <point x="951" y="1341" type="curve"/>
      <point x="941" y="1342"/>
      <point x="899" y="1345"/>
      <point x="880" y="1345" type="curve"/>
      <point x="775" y="1257"/>
      <point x="225" y="637"/>
      <point x="95" y="451" type="curve"/>
      <point x="92" y="437"/>
      <point x="83" y="382"/>
      <point x="81" y="362" type="curve"/>
      <point x="131" y="369"/>
      <point x="376" y="402"/>
      <point x="591" y="419" type="curve"/>
      <point x="576" y="370"/>
      <point x="531" y="218"/>
      <point x="470" y="-12" type="curve"/>
      <point x="482" y="-11"/>
      <point x="550" y="-6"/>
      <point x="570" y="-5" type="curve"/>
      <point x="575" y="21"/>
      <point x="611" y="179"/>
      <point x="678" y="426" type="curve"/>
      <point x="754" y="429"/>
      <point x="891" y="432"/>
    </contour>
    <contour>
      <point x="835" y="1197" type="curve"/>
      <point x="790" y="1093"/>
      <point x="649" y="627"/>
      <point x="616" y="504" type="curve"/>
      <point x="546" y="500"/>
      <point x="231" y="468"/>
      <point x="200" y="463" type="curve"/>
      <point x="235" y="529"/>
      <point x="701" y="1060"/>
    </contour>
  </outline>
</glyph>
<glyph name="six" format="2">
  <advance width="1154"/>
  <unicode hex="0036"/>
  <outline>
    <contour>
      <point x="1021" y="1262" type="curve"/>
      <point x="1021" y="1279"/>
      <point x="1010" y="1328"/>
      <point x="1003" y="1337" type="curve"/>
      <point x="534" y="1154"/>
      <point x="135" y="717"/>
      <point x="135" y="284" type="curve" smooth="yes"/>
      <point x="135" y="105"/>
      <point x="235" y="-9"/>
      <point x="442" y="-9" type="curve" smooth="yes"/>
      <point x="765" y="-9"/>
      <point x="1014" y="245"/>
      <point x="1014" y="564" type="curve" smooth="yes"/>
      <point x="1014" y="742"/>
      <point x="906" y="830"/>
      <point x="752" y="830" type="curve" smooth="yes"/>
      <point x="574" y="830"/>
      <point x="388" y="739"/>
      <point x="290" y="610" type="curve"/>
      <point x="346" y="744"/>
      <point x="586" y="1094"/>
    </contour>
    <contour>
      <point x="344" y="586" type="curve" smooth="yes"/>
      <point x="443" y="681"/>
      <point x="601" y="754"/>
      <point x="748" y="754" type="curve" smooth="yes"/>
      <point x="887" y="754"/>
      <point x="933" y="673"/>
      <point x="933" y="556" type="curve" smooth="yes"/>
      <point x="933" y="292"/>
      <point x="721" y="72"/>
      <point x="464" y="72" type="curve" smooth="yes"/>
      <point x="298" y="72"/>
      <point x="210" y="158"/>
      <point x="210" y="296" type="curve" smooth="yes"/>
      <point x="210" y="408"/>
      <point x="257" y="503"/>
    </contour>
  </outline>
</glyph>
<glyph name="seven" format="2">
  <advance width="1012"/>
  <unicode hex="0037"/>
  <outline>
    <contour>
      <point x="159" y="-1" type="curve"/>
      <point x="417" y="396"/>
      <point x="650" y="753"/>
      <point x="1191" y="1296" type="curve"/>
      <point x="1191" y="1313"/>
      <point x="1190" y="1342"/>
      <point x="1188" y="1361" type="curve"/>
      <point x="1016" y="1361"/>
      <point x="591" y="1282"/>
      <point x="297" y="1219" type="curve"/>
      <point x="294" y="1209"/>
      <point x="284" y="1144"/>
      <point x="283" y="1130" type="curve"/>
      <point x="307" y="1137"/>
      <point x="709" y="1236"/>
      <point x="1088" y="1285" type="curve"/>
      <point x="797" y="1045"/>
      <point x="270" y="363"/>
      <point x="65" y="24" type="curve"/>
      <point x="78" y="18"/>
      <point x="140" y="1"/>
    </contour>
  </outline>
</glyph>
<glyph name="nine" format="2">
  <advance width="1067"/>
  <unicode hex="0039"/>
  <outline>
    <contour>
      <point x="627" y="3" type="curve"/>
      <point x="811" y="298"/>
      <point x="1041" y="829"/>
      <point x="1041" y="1105" type="curve" smooth="yes"/>
      <point x="1041" y="1275"/>
      <point x="952" y="1364"/>
      <point x="753" y="1364" type="curve" smooth="yes"/>
      <point x="444" y="1364"/>
      <point x="200" y="1105"/>
      <point x="200" y="783" type="curve" smooth="yes"/>
      <point x="200" y="604"/>
      <point x="287" y="472"/>
      <point x="466" y="472" type="curve" smooth="yes"/>
      <point x="683" y="472"/>
      <point x="805" y="577"/>
      <point x="860" y="655" type="curve"/>
      <point x="794" y="416"/>
      <point x="595" y="95"/>
      <point x="529" y="-2" type="curve"/>
      <point x="552" y="-2"/>
      <point x="614" y="0"/>
    </contour>
    <contour>
      <point x="755" y="1299" type="curve" smooth="yes"/>
      <point x="899" y="1299"/>
      <point x="966" y="1223"/>
      <point x="966" y="1088" type="curve" smooth="yes"/>
      <point x="966" y="804"/>
      <point x="762" y="542"/>
      <point x="479" y="542" type="curve" smooth="yes"/>
      <point x="347" y="542"/>
      <point x="274" y="636"/>
      <point x="274" y="785" type="curve" smooth="yes"/>
      <point x="274" y="1071"/>
      <point x="466" y="1299"/>
    </contour>
  </outline>
</glyph>
<glyph name="colon" format="2">
  <advance width="564"/>
  <unicode hex="003A"/>
  <outline>
    <contour>
      <point x="123" y="-9" type="curve" smooth="yes"/>
      <point x="188" y="-9"/>
      <point x="241" y="33"/>
      <point x="241" y="90" type="curve" smooth="yes"/>
      <point x="241" y="149"/>
      <point x="194" y="203"/>
      <point x="121" y="203" type="curve" smooth="yes"/>
      <point x="56" y="203"/>
      <point x="-2" y="151"/>
      <point x="-2" y="91" type="curve" smooth="yes"/>
      <point x="-2" y="32"/>
      <point x="62" y="-9"/>
    </contour>
    <component base="period" xOffset="166" yOffset="779"/>
  </outline>
</glyph>
<glyph name="semicolon" format="2">
  <advance width="593"/>
  <unicode hex="003B"/>
  <outline>
    <contour>
      <point x="375" y="907" type="curve" smooth="yes"/>
      <point x="301" y="907"/>
      <point x="231" y="852"/>
      <point x="231" y="781" type="curve" smooth="yes"/>
      <point x="231" y="730"/>
      <point x="279" y="683"/>
      <point x="331" y="683" type="curve" smooth="yes"/>
      <point x="409" y="683"/>
      <point x="470" y="745"/>
      <point x="470" y="820" type="curve" smooth="yes"/>
      <point x="470" y="870"/>
      <point x="427" y="907"/>
    </contour>
    <contour>
      <point x="46" y="-297" type="curve"/>
      <point x="149" y="-216"/>
      <point x="274" y="-51"/>
      <point x="274" y="61" type="curve" smooth="yes"/>
      <point x="274" y="123"/>
      <point x="222" y="161"/>
      <point x="138" y="161" type="curve" smooth="yes"/>
      <point x="48" y="161"/>
      <point x="-12" y="96"/>
      <point x="-12" y="30" type="curve" smooth="yes"/>
      <point x="-12" y="-24"/>
      <point x="16" y="-57"/>
      <point x="85" y="-57" type="curve" smooth="yes"/>
      <point x="157" y="-57"/>
      <point x="196" y="-11"/>
      <point x="206" y="33" type="curve"/>
      <point x="207" y="31"/>
      <point x="207" y="27"/>
      <point x="207" y="23" type="curve" smooth="yes"/>
      <point x="207" y="-51"/>
      <point x="80" y="-211"/>
      <point x="8" y="-271" type="curve"/>
      <point x="16" y="-278"/>
      <point x="35" y="-291"/>
    </contour>
  </outline>
</glyph>
<glyph name="less" format="2">
  <advance width="807"/>
  <unicode hex="003C"/>
  <outline>
    <contour>
      <point x="869" y="1092" type="curve"/>
      <point x="768" y="1030"/>
      <point x="365" y="767"/>
      <point x="82" y="582" type="curve"/>
      <point x="64" y="533" type="line"/>
      <point x="264" y="463"/>
      <point x="478" y="372"/>
      <point x="655" y="292" type="curve"/>
      <point x="660" y="299"/>
      <point x="677" y="328"/>
      <point x="682" y="337" type="curve"/>
      <point x="627" y="375"/>
      <point x="314" y="504"/>
      <point x="112" y="574" type="curve"/>
      <point x="119" y="539" type="line"/>
      <point x="382" y="717"/>
      <point x="627" y="875"/>
      <point x="899" y="1043" type="curve"/>
      <point x="897" y="1056"/>
      <point x="879" y="1081"/>
    </contour>
  </outline>
</glyph>
<glyph name="equal" format="2">
  <advance width="1050"/>
  <unicode hex="003D"/>
  <outline>
    <contour>
      <point x="173" y="1002" type="curve"/>
      <point x="163" y="981"/>
      <point x="155" y="959"/>
      <point x="149" y="937" type="curve"/>
      <point x="318" y="958"/>
      <point x="947" y="993"/>
      <point x="1128" y="993" type="curve"/>
      <point x="1133" y="1014"/>
      <point x="1137" y="1034"/>
      <point x="1139" y="1053" type="curve"/>
      <point x="904" y="1053"/>
      <point x="324" y="1031"/>
    </contour>
    <contour>
      <point x="55" y="552" type="curve"/>
      <point x="45" y="530"/>
      <point x="35" y="506"/>
      <point x="30" y="487" type="curve"/>
      <point x="288" y="505"/>
      <point x="798" y="506"/>
      <point x="1002" y="506" type="curve"/>
      <point x="1008" y="527"/>
      <point x="1012" y="551"/>
      <point x="1014" y="571" type="curve"/>
      <point x="930" y="576"/>
      <point x="795" y="580"/>
      <point x="646" y="580" type="curve" smooth="yes"/>
      <point x="448" y="580"/>
      <point x="223" y="573"/>
    </contour>
  </outline>
</glyph>
<glyph name="C" format="2">
  <advance width="1137"/>
  <unicode hex="0043"/>
  <anchor x="397" y="0" name="bottom"/>
  <anchor x="743" y="1291" name="top"/>
  <outline>
    <contour>
      <point x="1015" y="289" type="curve"/>
      <point x="1009" y="299"/>
      <point x="969" y="332"/>
      <point x="958" y="338" type="curve"/>
      <point x="875" y="241"/>
      <point x="709" y="72"/>
      <point x="483" y="72" type="curve" smooth="yes"/>
      <point x="299" y="72"/>
      <point x="207" y="227"/>
      <point x="207" y="485" type="curve" smooth="yes"/>
      <point x="207" y="825"/>
      <point x="451" y="1241"/>
      <point x="793" y="1241" type="curve" smooth="yes"/>
      <point x="1070" y="1241"/>
      <point x="1099" y="1087"/>
      <point x="1107" y="1038" type="curve"/>
      <point x="1127" y="1049"/>
      <point x="1175" y="1079"/>
      <point x="1189" y="1093" type="curve"/>
      <point x="1155" y="1230"/>
      <point x="997" y="1326"/>
      <point x="813" y="1326" type="curve" smooth="yes"/>
      <point x="419" y="1326"/>
      <point x="112" y="902"/>
      <point x="112" y="463" type="curve" smooth="yes"/>
      <point x="112" y="221"/>
      <point x="220" y="-7"/>
      <point x="475" y="-7" type="curve" smooth="yes"/>
      <point x="702" y="-7"/>
      <point x="880" y="127"/>
    </contour>
  </outline>
</glyph>
<glyph name="E" format="2">
  <advance width="957"/>
  <unicode hex="0045"/>
  <anchor x="336.585" y="0" name="bottom"/>
  <anchor x="581" y="0" name="ogonek"/>
  <anchor x="683" y="1311" name="top"/>
  <anchor x="223.507" y="1291" name="topleft"/>
  <outline>
    <contour>
      <point x="693" y="-9" type="curve"/>
      <point x="703" y="9"/>
      <point x="717" y="39"/>
      <point x="727" y="67" type="curve"/>
      <point x="652" y="73"/>
      <point x="468" y="80"/>
      <point x="309" y="80" type="curve" smooth="yes"/>
      <point x="256" y="80"/>
      <point x="169" y="79"/>
      <point x="128" y="77" type="curve"/>
      <point x="167" y="223"/>
      <point x="278" y="636"/>
      <point x="293" y="690" type="curve"/>
      <point x="379" y="693"/>
      <point x="719" y="694"/>
      <point x="769" y="694" type="curve"/>
      <point x="781" y="772" type="line"/>
      <point x="689" y="772"/>
      <point x="386" y="760"/>
      <point x="312" y="757" type="curve"/>
      <point x="335" y="842"/>
      <point x="410" y="1109"/>
      <point x="438" y="1197" type="curve"/>
      <point x="1042" y="1244" type="line"/>
      <point x="1052" y="1271"/>
      <point x="1057" y="1284"/>
      <point x="1066" y="1318" type="curve"/>
      <point x="1011" y="1318"/>
      <point x="719" y="1299"/>
      <point x="367" y="1251" type="curve"/>
      <point x="342" y="1179"/>
      <point x="275" y="946"/>
      <point x="177" y="580" type="curve" smooth="yes"/>
      <point x="128" y="398"/>
      <point x="77" y="197"/>
      <point x="32" y="2" type="curve"/>
      <point x="96" y="4"/>
      <point x="178" y="5"/>
      <point x="241" y="5" type="curve" smooth="yes"/>
      <point x="401" y="5"/>
      <point x="539" y="0"/>
    </contour>
  </outline>
</glyph>
<glyph name="F" format="2">
  <advance width="949"/>
  <unicode hex="0046"/>
  <anchor x="332.585" y="0" name="bottom"/>
  <anchor x="678.507" y="1291" name="top"/>
  <outline>
    <contour>
      <point x="175" y="-26" type="line"/>
      <point x="236" y="200"/>
      <point x="300" y="482"/>
      <point x="336" y="658" type="curve"/>
      <point x="468" y="658"/>
      <point x="686" y="648"/>
      <point x="814" y="634" type="curve"/>
      <point x="818" y="645"/>
      <point x="830" y="679"/>
      <point x="836" y="701" type="curve"/>
      <point x="820" y="703"/>
      <point x="634" y="725"/>
      <point x="353" y="725" type="curve"/>
      <point x="388" y="880"/>
      <point x="441" y="1116"/>
      <point x="460" y="1221" type="curve"/>
      <point x="771" y="1221"/>
      <point x="938" y="1205"/>
      <point x="1011" y="1195" type="curve"/>
      <point x="1016" y="1215"/>
      <point x="1026" y="1257"/>
      <point x="1028" y="1280" type="curve"/>
      <point x="922" y="1292"/>
      <point x="843" y="1299"/>
      <point x="728" y="1303" type="curve" smooth="yes"/>
      <point x="643" y="1306"/>
      <point x="536" y="1307"/>
      <point x="387" y="1307" type="curve"/>
      <point x="312" y="922"/>
      <point x="199" y="411"/>
      <point x="87" y="-12" type="curve"/>
    </contour>
  </outline>
</glyph>
<glyph name="G" format="2">
  <advance width="1275"/>
  <unicode hex="0047"/>
  <anchor x="495.585" y="0" name="bottom"/>
  <anchor x="841.507" y="1291" name="top"/>
  <outline>
    <contour>
      <point x="594" y="-48" type="curve" smooth="yes"/>
      <point x="936" y="-48"/>
      <point x="1101" y="158"/>
      <point x="1187" y="483" type="curve" smooth="yes"/>
      <point x="1202" y="540"/>
      <point x="1214" y="599"/>
      <point x="1224" y="662" type="curve"/>
      <point x="1050" y="698"/>
      <point x="773" y="723"/>
      <point x="618" y="733" type="curve"/>
      <point x="611" y="710"/>
      <point x="604" y="672"/>
      <point x="602" y="654" type="curve"/>
      <point x="736" y="646"/>
      <point x="1045" y="601"/>
      <point x="1115" y="588" type="curve"/>
      <point x="1109" y="559"/>
      <point x="1100" y="520"/>
      <point x="1092" y="491" type="curve" smooth="yes"/>
      <point x="1027" y="255"/>
      <point x="911" y="36"/>
      <point x="603" y="36" type="curve" smooth="yes"/>
      <point x="319" y="36"/>
      <point x="203" y="170"/>
      <point x="203" y="420" type="curve" smooth="yes"/>
      <point x="203" y="819"/>
      <point x="440" y="1258"/>
      <point x="845" y="1258" type="curve" smooth="yes"/>
      <point x="1008" y="1258"/>
      <point x="1106" y="1230"/>
      <point x="1174" y="1050" type="curve"/>
      <point x="1194" y="1062"/>
      <point x="1230" y="1094"/>
      <point x="1244" y="1110" type="curve"/>
      <point x="1223" y="1194"/>
      <point x="1114" y="1338"/>
      <point x="856" y="1338" type="curve" smooth="yes"/>
      <point x="388" y="1338"/>
      <point x="108" y="890"/>
      <point x="108" y="406" type="curve" smooth="yes"/>
      <point x="108" y="120"/>
      <point x="279" y="-48"/>
    </contour>
  </outline>
</glyph>
<glyph name="I" format="2">
  <advance width="487"/>
  <unicode hex="0049"/>
  <anchor x="102" y="0" name="bottom"/>
  <anchor x="138" y="0" name="ogonek"/>
  <anchor x="448" y="1291" name="top"/>
  <anchor x="224" y="1291" name="topleft"/>
  <outline>
    <contour>
      <point x="138" y="0" type="curve"/>
      <point x="150" y="46"/>
      <point x="264" y="472"/>
      <point x="294" y="583" type="curve" smooth="yes"/>
      <point x="340" y="755"/>
      <point x="412" y="1043"/>
      <point x="480" y="1320" type="curve"/>
      <point x="457" y="1320"/>
      <point x="419" y="1319"/>
      <point x="405" y="1317" type="curve"/>
      <point x="331" y="1049"/>
      <point x="268" y="815"/>
      <point x="224" y="649" type="curve" smooth="yes"/>
      <point x="175" y="463"/>
      <point x="97" y="165"/>
      <point x="59" y="4" type="curve"/>
      <point x="71" y="2"/>
      <point x="126" y="0"/>
    </contour>
  </outline>
</glyph>
<glyph name="K" format="2">
  <advance width="1061"/>
  <unicode hex="004B"/>
  <anchor x="415.585" y="0" name="bottom"/>
  <anchor x="761.507" y="1291" name="top"/>
  <outline>
    <contour>
      <point x="101" y="-32" type="curve"/>
      <point x="130" y="-32"/>
      <point x="172" y="-27"/>
      <point x="192" y="-24" type="curve"/>
      <point x="197" y="-3"/>
      <point x="286" y="381"/>
      <point x="337" y="621" type="curve"/>
      <point x="358" y="631"/>
      <point x="417" y="663"/>
      <point x="443" y="680" type="curve"/>
      <point x="627" y="426"/>
      <point x="745" y="19"/>
      <point x="749" y="2" type="curve"/>
      <point x="770" y="10"/>
      <point x="814" y="30"/>
      <point x="837" y="46" type="curve"/>
      <point x="818" y="119"/>
      <point x="664" y="537"/>
      <point x="516" y="723" type="curve"/>
      <point x="865" y="937"/>
      <point x="1103" y="1150"/>
      <point x="1179" y="1224" type="curve"/>
      <point x="1166" y="1231"/>
      <point x="1130" y="1257"/>
      <point x="1118" y="1272" type="curve"/>
      <point x="912" y="1047"/>
      <point x="555" y="833"/>
      <point x="354" y="718" type="curve"/>
      <point x="405" y="962"/>
      <point x="461" y="1239"/>
      <point x="470" y="1297" type="curve"/>
      <point x="463" y="1299"/>
      <point x="449" y="1300"/>
      <point x="435" y="1300" type="curve" smooth="yes"/>
      <point x="418" y="1300"/>
      <point x="400" y="1299"/>
      <point x="391" y="1296" type="curve"/>
      <point x="350" y="1092"/>
      <point x="172" y="276"/>
    </contour>
  </outline>
</glyph>
<glyph name="Q" format="2">
  <advance width="1291"/>
  <unicode hex="0051"/>
  <anchor x="503.585" y="0" name="bottom"/>
  <anchor x="849.507" y="1291" name="top"/>
  <outline>
    <contour>
      <point x="1024" y="-31" type="curve"/>
      <point x="1044" y="-5"/>
      <point x="1067" y="37"/>
      <point x="1081" y="63" type="curve"/>
      <point x="1005" y="83"/>
      <point x="935" y="113"/>
      <point x="892" y="160" type="curve"/>
      <point x="1096" y="315"/>
      <point x="1177" y="611"/>
      <point x="1177" y="888" type="curve" smooth="yes"/>
      <point x="1177" y="1139"/>
      <point x="1083" y="1299"/>
      <point x="823" y="1299" type="curve" smooth="yes"/>
      <point x="439" y="1299"/>
      <point x="187" y="833"/>
      <point x="187" y="397" type="curve" smooth="yes"/>
      <point x="187" y="176"/>
      <point x="270" y="8"/>
      <point x="508" y="8" type="curve" smooth="yes"/>
      <point x="693" y="8"/>
      <point x="785" y="84"/>
      <point x="817" y="113" type="curve"/>
      <point x="847" y="82"/>
      <point x="972" y="-11"/>
    </contour>
    <contour>
      <point x="772" y="169" type="curve"/>
      <point x="743" y="144"/>
      <point x="664" y="80"/>
      <point x="536" y="80" type="curve" smooth="yes"/>
      <point x="336" y="80"/>
      <point x="276" y="202"/>
      <point x="276" y="381" type="curve" smooth="yes"/>
      <point x="276" y="778"/>
      <point x="474" y="1226"/>
      <point x="816" y="1226" type="curve" smooth="yes"/>
      <point x="1025" y="1226"/>
      <point x="1098" y="1086"/>
      <point x="1098" y="883" type="curve" smooth="yes"/>
      <point x="1098" y="632"/>
      <point x="1022" y="364"/>
      <point x="839" y="208" type="curve"/>
      <point x="768" y="292"/>
      <point x="726" y="430"/>
      <point x="706" y="518" type="curve"/>
      <point x="691" y="509"/>
      <point x="646" y="477"/>
      <point x="632" y="465" type="curve"/>
      <point x="657" y="363"/>
      <point x="712" y="236"/>
    </contour>
  </outline>
</glyph>
<glyph name="S" format="2">
  <advance width="1152"/>
  <unicode hex="0053"/>
  <anchor x="480" y="0" name="bottom"/>
  <anchor x="738" y="1317" name="top"/>
  <outline>
    <contour>
      <point x="480" y="-9" type="curve" smooth="yes"/>
      <point x="755" y="-9"/>
      <point x="1024" y="149"/>
      <point x="1024" y="451" type="curve" smooth="yes"/>
      <point x="1024" y="673"/>
      <point x="818" y="732"/>
      <point x="615" y="788" type="curve" smooth="yes"/>
      <point x="506" y="818"/>
      <point x="379" y="862"/>
      <point x="379" y="1006" type="curve" smooth="yes"/>
      <point x="379" y="1184"/>
      <point x="540" y="1275"/>
      <point x="726" y="1275" type="curve" smooth="yes"/>
      <point x="979" y="1275"/>
      <point x="1080" y="1145"/>
      <point x="1099" y="1103" type="curve"/>
      <point x="1113" y="1113"/>
      <point x="1147" y="1154"/>
      <point x="1157" y="1171" type="curve"/>
      <point x="1146" y="1215"/>
      <point x="982" y="1349"/>
      <point x="750" y="1349" type="curve" smooth="yes"/>
      <point x="504" y="1349"/>
      <point x="294" y="1234"/>
      <point x="294" y="991" type="curve" smooth="yes"/>
      <point x="294" y="830"/>
      <point x="422" y="754"/>
      <point x="597" y="711" type="curve" smooth="yes"/>
      <point x="780" y="666"/>
      <point x="937" y="608"/>
      <point x="937" y="440" type="curve" smooth="yes"/>
      <point x="937" y="191"/>
      <point x="711" y="72"/>
      <point x="481" y="72" type="curve" smooth="yes"/>
      <point x="221" y="72"/>
      <point x="112" y="321"/>
      <point x="98" y="376" type="curve"/>
      <point x="75" y="363"/>
      <point x="43" y="335"/>
      <point x="24" y="318" type="curve"/>
      <point x="39" y="227"/>
      <point x="182" y="-9"/>
    </contour>
  </outline>
</glyph>
<glyph name="T" format="2">
  <advance width="1039"/>
  <unicode hex="0054"/>
  <anchor x="407" y="0" name="bottom"/>
  <anchor x="550.68" y="646" name="center"/>
  <anchor x="723.507" y="1291" name="top"/>
  <outline>
    <contour>
      <point x="231" y="1243" type="curve"/>
      <point x="324" y="1248"/>
      <point x="560" y="1256"/>
      <point x="678" y="1258" type="curve"/>
      <point x="669" y="1223"/>
      <point x="656" y="1175"/>
      <point x="641" y="1118" type="curve" smooth="yes"/>
      <point x="555" y="798"/>
      <point x="402" y="189"/>
      <point x="357" y="-14" type="curve"/>
      <point x="375" y="-14"/>
      <point x="432" y="-12"/>
      <point x="450" y="-9" type="curve"/>
      <point x="471" y="83"/>
      <point x="718" y="1084"/>
      <point x="762" y="1256" type="curve"/>
      <point x="896" y="1256"/>
      <point x="1133" y="1252"/>
      <point x="1194" y="1249" type="curve"/>
      <point x="1201" y="1273"/>
      <point x="1209" y="1306"/>
      <point x="1210" y="1325" type="curve"/>
      <point x="1102" y="1338"/>
      <point x="965" y="1342"/>
      <point x="822" y="1342" type="curve" smooth="yes"/>
      <point x="618" y="1342"/>
      <point x="402" y="1333"/>
      <point x="246" y="1326" type="curve"/>
      <point x="239" y="1299"/>
      <point x="234" y="1267"/>
    </contour>
  </outline>
</glyph>
<glyph name="U" format="2">
  <advance width="1212"/>
  <unicode hex="0055"/>
  <anchor x="463.585" y="0" name="bottom"/>
  <anchor x="682" y="0" name="ogonek"/>
  <anchor x="842" y="1325" name="top"/>
  <anchor x="1206" y="1174" name="topright"/>
  <outline>
    <contour>
      <point x="498" y="-43" type="curve" smooth="yes"/>
      <point x="858" y="-43"/>
      <point x="1015" y="304"/>
      <point x="1154" y="818" type="curve" smooth="yes"/>
      <point x="1200" y="988"/>
      <point x="1242" y="1192"/>
      <point x="1256" y="1316" type="curve"/>
      <point x="1230" y="1325"/>
      <point x="1196" y="1330"/>
      <point x="1165" y="1330" type="curve"/>
      <point x="1141" y="1144"/>
      <point x="1082" y="892"/>
      <point x="1039" y="728" type="curve" smooth="yes"/>
      <point x="920" y="274"/>
      <point x="741" y="32"/>
      <point x="522" y="32" type="curve" smooth="yes"/>
      <point x="366" y="32"/>
      <point x="286" y="131"/>
      <point x="286" y="320" type="curve" smooth="yes"/>
      <point x="286" y="430"/>
      <point x="320" y="602"/>
      <point x="368" y="787" type="curve" smooth="yes"/>
      <point x="419" y="985"/>
      <point x="488" y="1197"/>
      <point x="548" y="1362" type="curve"/>
      <point x="538" y="1365"/>
      <point x="519" y="1368"/>
      <point x="494" y="1368" type="curve" smooth="yes"/>
      <point x="479" y="1368"/>
      <point x="464" y="1366"/>
      <point x="453" y="1364" type="curve"/>
      <point x="389" y="1175"/>
      <point x="327" y="979"/>
      <point x="281" y="800" type="curve" smooth="yes"/>
      <point x="233" y="614"/>
      <point x="202" y="445"/>
      <point x="202" y="319" type="curve" smooth="yes"/>
      <point x="202" y="95"/>
      <point x="280" y="-43"/>
    </contour>
  </outline>
</glyph>
<glyph name="Y" format="2">
  <advance width="1065"/>
  <unicode hex="0059"/>
  <anchor x="411" y="0" name="bottom"/>
  <anchor x="757" y="1291" name="top"/>
  <anchor x="244" y="1291" name="topleft"/>
  <outline>
    <contour>
      <point x="476" y="489" type="curve"/>
      <point x="423" y="319"/>
      <point x="370" y="134"/>
      <point x="337" y="-10" type="curve"/>
      <point x="359" y="-13"/>
      <point x="376" y="-14"/>
      <point x="392" y="-14" type="curve" smooth="yes"/>
      <point x="405" y="-14"/>
      <point x="420" y="-13"/>
      <point x="435" y="-12" type="curve"/>
      <point x="441" y="20"/>
      <point x="476" y="165"/>
      <point x="499" y="254" type="curve" smooth="yes"/>
      <point x="517" y="323"/>
      <point x="556" y="457"/>
      <point x="567" y="491" type="curve"/>
      <point x="867" y="882"/>
      <point x="1059" y="1121"/>
      <point x="1173" y="1241" type="curve"/>
      <point x="1157" y="1259"/>
      <point x="1129" y="1284"/>
      <point x="1098" y="1303" type="curve"/>
      <point x="999" y="1192"/>
      <point x="617" y="692"/>
      <point x="541" y="591" type="curve"/>
      <point x="499" y="761"/>
      <point x="430" y="1269"/>
      <point x="427" y="1318" type="curve"/>
      <point x="390" y="1313"/>
      <point x="357" y="1303"/>
      <point x="325" y="1292" type="curve"/>
      <point x="331" y="1248"/>
      <point x="455" y="550"/>
    </contour>
  </outline>
</glyph>
<glyph name="bracketleft" format="2">
  <advance width="735"/>
  <unicode hex="005B"/>
  <outline>
    <contour>
      <point x="60" y="-527" type="curve" smooth="yes"/>
      <point x="163" y="-527"/>
      <point x="268" y="-524"/>
      <point x="340" y="-518" type="curve"/>
      <point x="345" y="-506"/>
      <point x="355" y="-480"/>
      <point x="359" y="-464" type="curve"/>
      <point x="294" y="-466"/>
      <point x="195" y="-466"/>
      <point x="109" y="-466" type="curve" smooth="yes"/>
      <point x="22" y="-466"/>
      <point x="-53" y="-466"/>
      <point x="-70" y="-467" type="curve"/>
      <point x="-44" y="-305"/>
      <point x="53" y="96"/>
      <point x="161" y="499" type="curve" smooth="yes"/>
      <point x="271" y="911"/>
      <point x="393" y="1326"/>
      <point x="460" y="1488" type="curve"/>
      <point x="638" y="1505"/>
      <point x="872" y="1524"/>
      <point x="967" y="1524" type="curve"/>
      <point x="972" y="1536"/>
      <point x="975" y="1545"/>
      <point x="977" y="1553" type="curve" smooth="yes"/>
      <point x="980" y="1566"/>
      <point x="982" y="1575"/>
      <point x="982" y="1582" type="curve"/>
      <point x="843" y="1582"/>
      <point x="540" y="1563"/>
      <point x="404" y="1538" type="curve"/>
      <point x="301" y="1282"/>
      <point x="190" y="919"/>
      <point x="88" y="540" type="curve" smooth="yes"/>
      <point x="-11" y="172"/>
      <point x="-100" y="-211"/>
      <point x="-160" y="-522" type="curve"/>
      <point x="-97" y="-525"/>
      <point x="-19" y="-527"/>
    </contour>
  </outline>
</glyph>
<glyph name="backslash" format="2">
  <advance width="725"/>
  <unicode hex="005C"/>
  <outline>
    <contour>
      <point x="545" y="-43" type="curve"/>
      <point x="426" y="323"/>
      <point x="337" y="1306"/>
      <point x="337" y="1465" type="curve"/>
      <point x="318" y="1465"/>
      <point x="280" y="1458"/>
      <point x="269" y="1454" type="curve"/>
      <point x="293" y="913"/>
      <point x="359" y="381"/>
      <point x="469" y="-77" type="curve"/>
      <point x="483" y="-73"/>
      <point x="525" y="-58"/>
    </contour>
  </outline>
</glyph>
<glyph name="bracketright" format="2">
  <advance width="619"/>
  <unicode hex="005D"/>
  <outline>
    <contour>
      <point x="639" y="492" type="curve" smooth="yes"/>
      <point x="777" y="1008"/>
      <point x="835" y="1384"/>
      <point x="849" y="1575" type="curve"/>
      <point x="723" y="1592"/>
      <point x="606" y="1597"/>
      <point x="475" y="1597" type="curve" smooth="yes"/>
      <point x="433" y="1597"/>
      <point x="390" y="1597"/>
      <point x="344" y="1597" type="curve"/>
      <point x="337" y="1577"/>
      <point x="329" y="1551"/>
      <point x="326" y="1539" type="curve"/>
      <point x="337" y="1539"/>
      <point x="362" y="1539"/>
      <point x="396" y="1539" type="curve" smooth="yes"/>
      <point x="500" y="1539"/>
      <point x="682" y="1535"/>
      <point x="776" y="1520" type="curve"/>
      <point x="762" y="1332"/>
      <point x="668" y="886"/>
      <point x="548" y="439" type="curve" smooth="yes"/>
      <point x="462" y="119"/>
      <point x="363" y="-203"/>
      <point x="272" y="-431" type="curve"/>
      <point x="228" y="-442"/>
      <point x="-64" y="-464"/>
      <point x="-186" y="-464" type="curve"/>
      <point x="-190" y="-471"/>
      <point x="-202" y="-511"/>
      <point x="-205" y="-521" type="curve"/>
      <point x="-85" y="-521"/>
      <point x="169" y="-510"/>
      <point x="332" y="-481" type="curve"/>
      <point x="463" y="-119"/>
      <point x="563" y="208"/>
    </contour>
  </outline>
</glyph>
<glyph name="underscore" format="2">
  <advance width="1549"/>
  <unicode hex="005F"/>
  <outline>
    <contour>
      <point x="354" y="5" type="curve" smooth="yes"/>
      <point x="276" y="5"/>
      <point x="8" y="5"/>
      <point x="-56" y="7" type="curve"/>
      <point x="-61" y="-12"/>
      <point x="-68" y="-49"/>
      <point x="-68" y="-58" type="curve"/>
      <point x="293" y="-62"/>
      <point x="850" y="-66"/>
      <point x="1103" y="-66" type="curve" smooth="yes"/>
      <point x="1198" y="-66"/>
      <point x="1273" y="-65"/>
      <point x="1328" y="-62" type="curve"/>
      <point x="1334" y="-48"/>
      <point x="1343" y="-27"/>
      <point x="1355" y="19" type="curve"/>
      <point x="1151" y="11"/>
      <point x="774" y="5"/>
    </contour>
  </outline>
</glyph>
<glyph name="f" format="2">
  <advance width="896"/>
  <unicode hex="0066"/>
  <anchor x="305.585" y="0" name="bottom"/>
  <anchor x="699.47" y="1470" name="top"/>
  <outline>
    <contour>
      <point x="215" y="2" type="curve"/>
      <point x="232" y="3"/>
      <point x="283" y="12"/>
      <point x="314" y="19" type="curve"/>
      <point x="314" y="115"/>
      <point x="340" y="472"/>
      <point x="354" y="583" type="curve"/>
      <point x="486" y="600"/>
      <point x="673" y="614"/>
      <point x="692" y="614" type="curve"/>
      <point x="699" y="639"/>
      <point x="705" y="672"/>
      <point x="706" y="691" type="curve"/>
      <point x="633" y="691"/>
      <point x="435" y="670"/>
      <point x="363" y="660" type="curve"/>
      <point x="374" y="728"/>
      <point x="394" y="840"/>
      <point x="413" y="912" type="curve" smooth="yes"/>
      <point x="465" y="1108"/>
      <point x="562" y="1293"/>
      <point x="750" y="1293" type="curve" smooth="yes"/>
      <point x="933" y="1293"/>
      <point x="958" y="1081"/>
      <point x="962" y="1046" type="curve"/>
      <point x="982" y="1058"/>
      <point x="1030" y="1092"/>
      <point x="1045" y="1106" type="curve"/>
      <point x="1039" y="1167"/>
      <point x="967" y="1368"/>
      <point x="758" y="1368" type="curve" smooth="yes"/>
      <point x="539" y="1368"/>
      <point x="394" y="1170"/>
      <point x="329" y="923" type="curve" smooth="yes"/>
      <point x="307" y="839"/>
      <point x="288" y="737"/>
      <point x="275" y="646" type="curve"/>
      <point x="246" y="641"/>
      <point x="82" y="603"/>
      <point x="54" y="593" type="curve"/>
      <point x="54" y="578"/>
      <point x="54" y="534"/>
      <point x="53" y="520" type="curve"/>
      <point x="98" y="535"/>
      <point x="197" y="559"/>
      <point x="263" y="571" type="curve"/>
      <point x="238" y="368"/>
      <point x="216" y="21"/>
    </contour>
  </outline>
</glyph>
<glyph name="i" format="2">
  <advance width="610"/>
  <unicode hex="0069"/>
  <anchor x="154" y="0" name="bottom"/>
  <outline>
    <contour>
      <point x="183" y="-3" type="curve"/>
      <point x="217" y="93"/>
      <point x="340" y="523"/>
      <point x="407" y="776" type="curve" smooth="yes"/>
      <point x="426" y="848"/>
      <point x="442" y="910"/>
      <point x="449" y="938" type="curve"/>
      <point x="435" y="938"/>
      <point x="386" y="935"/>
      <point x="371" y="933" type="curve"/>
      <point x="312" y="730"/>
      <point x="124" y="85"/>
      <point x="86" y="-2" type="curve"/>
      <point x="96" y="-4"/>
      <point x="112" y="-6"/>
      <point x="135" y="-6" type="curve" smooth="yes"/>
      <point x="148" y="-6"/>
      <point x="164" y="-5"/>
    </contour>
    <contour>
      <point x="476" y="1121" type="curve" smooth="yes"/>
      <point x="539" y="1121"/>
      <point x="581" y="1182"/>
      <point x="581" y="1249" type="curve" smooth="yes"/>
      <point x="581" y="1286"/>
      <point x="562" y="1316"/>
      <point x="523" y="1316" type="curve" smooth="yes"/>
      <point x="455" y="1316"/>
      <point x="410" y="1253"/>
      <point x="410" y="1186" type="curve" smooth="yes"/>
      <point x="410" y="1151"/>
      <point x="430" y="1121"/>
    </contour>
  </outline>
</glyph>
<glyph name="k" format="2">
  <advance width="1156"/>
  <unicode hex="006B"/>
  <anchor x="456" y="0" name="bottom"/>
  <anchor x="849" y="1470" name="top"/>
  <outline>
    <contour>
      <point x="849" y="-34" type="curve"/>
      <point x="868" y="-27"/>
      <point x="915" y="-7"/>
      <point x="924" y="-2" type="curve"/>
      <point x="844" y="222"/>
      <point x="643" y="597"/>
      <point x="599" y="651" type="curve"/>
      <point x="723" y="732"/>
      <point x="1064" y="896"/>
      <point x="1152" y="932" type="curve"/>
      <point x="1146" y="942"/>
      <point x="1118" y="979"/>
      <point x="1104" y="995" type="curve"/>
      <point x="968" y="935"/>
      <point x="494" y="705"/>
      <point x="330" y="562" type="curve"/>
      <point x="385" y="748"/>
      <point x="510" y="1177"/>
      <point x="587" y="1446" type="curve"/>
      <point x="581" y="1447"/>
      <point x="566" y="1448"/>
      <point x="550" y="1448" type="curve" smooth="yes"/>
      <point x="533" y="1448"/>
      <point x="516" y="1448"/>
      <point x="508" y="1448" type="curve"/>
      <point x="417" y="1170"/>
      <point x="100" y="104"/>
      <point x="60" y="-31" type="curve"/>
      <point x="75" y="-34"/>
      <point x="91" y="-36"/>
      <point x="105" y="-36" type="curve" smooth="yes"/>
      <point x="122" y="-36"/>
      <point x="137" y="-34"/>
      <point x="146" y="-32" type="curve"/>
      <point x="165" y="24"/>
      <point x="263" y="330"/>
      <point x="297" y="446" type="curve"/>
      <point x="323" y="470"/>
      <point x="483" y="574"/>
      <point x="535" y="607" type="curve"/>
      <point x="601" y="505"/>
      <point x="795" y="116"/>
    </contour>
  </outline>
</glyph>
<glyph name="m" format="2">
  <advance width="1858"/>
  <unicode hex="006D"/>
  <anchor x="786.585" y="0" name="bottom"/>
  <anchor x="1071.415" y="1063" name="top"/>
  <outline>
    <contour>
      <point x="86" y="-10" type="curve"/>
      <point x="100" y="-14"/>
      <point x="115" y="-16"/>
      <point x="133" y="-16" type="curve" smooth="yes"/>
      <point x="145" y="-16"/>
      <point x="165" y="-14"/>
      <point x="174" y="-13" type="curve"/>
      <point x="179" y="40"/>
      <point x="209" y="258"/>
      <point x="283" y="578" type="curve"/>
      <point x="302" y="678"/>
      <point x="543" y="945"/>
      <point x="738" y="945" type="curve" smooth="yes"/>
      <point x="865" y="945"/>
      <point x="909" y="883"/>
      <point x="909" y="742" type="curve" smooth="yes"/>
      <point x="909" y="564"/>
      <point x="835" y="252"/>
      <point x="756" y="-7" type="curve"/>
      <point x="769" y="-11"/>
      <point x="791" y="-13"/>
      <point x="806" y="-13" type="curve" smooth="yes"/>
      <point x="819" y="-13"/>
      <point x="837" y="-11"/>
      <point x="852" y="-9" type="curve"/>
      <point x="867" y="56"/>
      <point x="885" y="128"/>
      <point x="902" y="194" type="curve" smooth="yes"/>
      <point x="997" y="562"/>
      <point x="1150" y="963"/>
      <point x="1462" y="963" type="curve" smooth="yes"/>
      <point x="1574" y="963"/>
      <point x="1625" y="895"/>
      <point x="1625" y="761" type="curve" smooth="yes"/>
      <point x="1625" y="565"/>
      <point x="1512" y="247"/>
      <point x="1405" y="-24" type="curve"/>
      <point x="1421" y="-26"/>
      <point x="1439" y="-27"/>
      <point x="1451" y="-27" type="curve" smooth="yes"/>
      <point x="1467" y="-27"/>
      <point x="1482" y="-25"/>
      <point x="1497" y="-21" type="curve"/>
      <point x="1590" y="212"/>
      <point x="1713" y="578"/>
      <point x="1713" y="788" type="curve" smooth="yes"/>
      <point x="1713" y="941"/>
      <point x="1646" y="1047"/>
      <point x="1484" y="1047" type="curve" smooth="yes"/>
      <point x="1210" y="1047"/>
      <point x="1049" y="819"/>
      <point x="962" y="581" type="curve"/>
      <point x="979" y="644"/>
      <point x="991" y="713"/>
      <point x="991" y="778" type="curve" smooth="yes"/>
      <point x="991" y="913"/>
      <point x="930" y="1030"/>
      <point x="769" y="1030" type="curve" smooth="yes"/>
      <point x="513" y="1030"/>
      <point x="370" y="838"/>
      <point x="329" y="774" type="curve"/>
      <point x="336" y="806"/>
      <point x="376" y="988"/>
      <point x="387" y="1027" type="curve"/>
      <point x="368" y="1026"/>
      <point x="321" y="1017"/>
      <point x="302" y="1009" type="curve"/>
      <point x="219" y="699"/>
      <point x="127" y="256"/>
    </contour>
  </outline>
</glyph>
<glyph name="n" format="2">
  <advance width="1330"/>
  <unicode hex="006E"/>
  <anchor x="522.585" y="0" name="bottom"/>
  <anchor x="807.415" y="1063" name="top"/>
  <outline>
    <contour>
      <point x="162" y="-12" type="curve"/>
      <point x="205" y="93"/>
      <point x="312" y="396"/>
      <point x="420" y="754" type="curve"/>
      <point x="515" y="827"/>
      <point x="729" y="970"/>
      <point x="968" y="970" type="curve" smooth="yes"/>
      <point x="1097" y="970"/>
      <point x="1149" y="908"/>
      <point x="1149" y="800" type="curve" smooth="yes"/>
      <point x="1149" y="628"/>
      <point x="1019" y="276"/>
      <point x="907" y="-3" type="curve"/>
      <point x="923" y="-7"/>
      <point x="936" y="-9"/>
      <point x="954" y="-9" type="curve" smooth="yes"/>
      <point x="975" y="-9"/>
      <point x="994" y="-6"/>
      <point x="1005" y="-3" type="curve"/>
      <point x="1112" y="289"/>
      <point x="1243" y="651"/>
      <point x="1243" y="832" type="curve" smooth="yes"/>
      <point x="1243" y="977"/>
      <point x="1171" y="1060"/>
      <point x="967" y="1060" type="curve" smooth="yes"/>
      <point x="792" y="1060"/>
      <point x="559" y="954"/>
      <point x="448" y="868" type="curve"/>
      <point x="461" y="906"/>
      <point x="489" y="1019"/>
      <point x="492" y="1043" type="curve"/>
      <point x="484" y="1045"/>
      <point x="469" y="1045"/>
      <point x="458" y="1045" type="curve" smooth="yes"/>
      <point x="434" y="1045"/>
      <point x="414" y="1042"/>
      <point x="399" y="1039" type="curve"/>
      <point x="238" y="439"/>
      <point x="155" y="214"/>
      <point x="68" y="-10" type="curve"/>
      <point x="87" y="-12"/>
      <point x="106" y="-14"/>
      <point x="125" y="-14" type="curve" smooth="yes"/>
      <point x="137" y="-14"/>
      <point x="150" y="-13"/>
    </contour>
  </outline>
</glyph>
<glyph name="o" format="2">
  <advance width="1172"/>
  <unicode hex="006F"/>
  <anchor x="433" y="0" name="bottom"/>
  <anchor x="575" y="532" name="center"/>
  <anchor x="678" y="0" name="ogonek"/>
  <anchor x="717" y="1063" name="top"/>
  <anchor x="997" y="941" name="topright"/>
  <outline>
    <contour>
      <point x="471" y="-39" type="curve" smooth="yes"/>
      <point x="858" y="-39"/>
      <point x="1081" y="305"/>
      <point x="1081" y="691" type="curve" smooth="yes"/>
      <point x="1081" y="933"/>
      <point x="968" y="1077"/>
      <point x="725" y="1077" type="curve" smooth="yes"/>
      <point x="328" y="1077"/>
      <point x="83" y="732"/>
      <point x="83" y="340" type="curve" smooth="yes"/>
      <point x="83" y="119"/>
      <point x="208" y="-39"/>
    </contour>
    <contour>
      <point x="476" y="32" type="curve" smooth="yes"/>
      <point x="273" y="32"/>
      <point x="171" y="163"/>
      <point x="171" y="346" type="curve" smooth="yes"/>
      <point x="171" y="669"/>
      <point x="379" y="1002"/>
      <point x="710" y="1002" type="curve" smooth="yes"/>
      <point x="909" y="1002"/>
      <point x="999" y="878"/>
      <point x="999" y="682" type="curve" smooth="yes"/>
      <point x="999" y="356"/>
      <point x="795" y="32"/>
    </contour>
  </outline>
</glyph>
<glyph name="q" format="2">
  <advance width="1207"/>
  <unicode hex="0071"/>
  <anchor x="461.585" y="0" name="bottom"/>
  <anchor x="746.415" y="1063" name="top"/>
  <outline>
    <contour>
      <point x="759" y="-453" type="curve"/>
      <point x="775" y="-344"/>
      <point x="811" y="-127"/>
      <point x="872" y="99" type="curve" smooth="yes"/>
      <point x="952" y="396"/>
      <point x="1085" y="773"/>
      <point x="1206" y="1072" type="curve"/>
      <point x="1196" y="1077"/>
      <point x="1151" y="1089"/>
      <point x="1133" y="1091" type="curve"/>
      <point x="1123" y="1074"/>
      <point x="1094" y="1000"/>
      <point x="1085" y="976" type="curve"/>
      <point x="1045" y="1017"/>
      <point x="929" y="1086"/>
      <point x="765" y="1086" type="curve" smooth="yes"/>
      <point x="377" y="1086"/>
      <point x="150" y="782"/>
      <point x="150" y="383" type="curve" smooth="yes"/>
      <point x="150" y="184"/>
      <point x="238" y="49"/>
      <point x="453" y="49" type="curve" smooth="yes"/>
      <point x="632" y="49"/>
      <point x="763" y="137"/>
      <point x="811" y="188" type="curve"/>
      <point x="754" y="-24"/>
      <point x="689" y="-299"/>
      <point x="667" y="-446" type="curve"/>
      <point x="698" y="-450"/>
      <point x="742" y="-453"/>
    </contour>
    <contour>
      <point x="457" y="126" type="curve" smooth="yes"/>
      <point x="295" y="126"/>
      <point x="240" y="241"/>
      <point x="240" y="395" type="curve" smooth="yes"/>
      <point x="240" y="730"/>
      <point x="430" y="1010"/>
      <point x="741" y="1010" type="curve" smooth="yes"/>
      <point x="914" y="1010"/>
      <point x="1034" y="919"/>
      <point x="1052" y="901" type="curve"/>
      <point x="1010" y="798"/>
      <point x="870" y="393"/>
      <point x="839" y="296" type="curve"/>
      <point x="790" y="243"/>
      <point x="628" y="126"/>
    </contour>
  </outline>
</glyph>
<glyph name="u" format="2">
  <advance width="1178"/>
  <unicode hex="0075"/>
  <anchor x="446.585" y="0" name="bottom"/>
  <anchor x="652" y="0" name="ogonek"/>
  <anchor x="731.415" y="1063" name="top"/>
  <anchor x="1054" y="940" name="topright"/>
  <outline>
    <contour>
      <point x="1022" y="1021" type="curve"/>
      <point x="1004" y="852"/>
      <point x="978" y="707"/>
      <point x="945" y="584" type="curve" smooth="yes"/>
      <point x="841" y="196"/>
      <point x="668" y="29"/>
      <point x="465" y="29" type="curve" smooth="yes"/>
      <point x="315" y="29"/>
      <point x="230" y="116"/>
      <point x="230" y="315" type="curve" smooth="yes"/>
      <point x="230" y="516"/>
      <point x="320" y="799"/>
      <point x="414" y="1044" type="curve"/>
      <point x="401" y="1048"/>
      <point x="388" y="1051"/>
      <point x="374" y="1054" type="curve" smooth="yes"/>
      <point x="361" y="1057"/>
      <point x="345" y="1059"/>
      <point x="333" y="1060" type="curve"/>
      <point x="235" y="787"/>
      <point x="139" y="509"/>
      <point x="139" y="297" type="curve" smooth="yes"/>
      <point x="139" y="98"/>
      <point x="221" y="-41"/>
      <point x="461" y="-41" type="curve" smooth="yes"/>
      <point x="781" y="-41"/>
      <point x="941" y="232"/>
      <point x="1026" y="553" type="curve" smooth="yes"/>
      <point x="1067" y="707"/>
      <point x="1090" y="871"/>
      <point x="1104" y="1023" type="curve"/>
      <point x="1098" y="1024"/>
      <point x="1076" y="1024"/>
      <point x="1061" y="1024" type="curve" smooth="yes"/>
      <point x="1045" y="1024"/>
      <point x="1028" y="1022"/>
    </contour>
  </outline>
</glyph>
<glyph name="v" format="2">
  <advance width="1007"/>
  <unicode hex="0076"/>
  <anchor x="361.585" y="0" name="bottom"/>
  <anchor x="646.415" y="1063" name="top"/>
  <outline>
    <contour>
      <point x="1010" y="1091" type="curve"/>
      <point x="901" y="888"/>
      <point x="541" y="314"/>
      <point x="370" y="79" type="curve"/>
      <point x="319" y="315"/>
      <point x="278" y="793"/>
      <point x="278" y="1092" type="curve"/>
      <point x="253" y="1087"/>
      <point x="222" y="1080"/>
      <point x="193" y="1068" type="curve"/>
      <point x="204" y="785"/>
      <point x="233" y="305"/>
      <point x="306" y="-31" type="curve"/>
      <point x="315" y="-33"/>
      <point x="329" y="-34"/>
      <point x="344" y="-34" type="curve" smooth="yes"/>
      <point x="363" y="-34"/>
      <point x="382" y="-33"/>
      <point x="392" y="-31" type="curve"/>
      <point x="569" y="217"/>
      <point x="1000" y="881"/>
      <point x="1098" y="1062" type="curve"/>
      <point x="1092" y="1067"/>
      <point x="1048" y="1082"/>
    </contour>
  </outline>
</glyph>
<glyph name="braceleft" format="2">
  <advance width="665"/>
  <unicode hex="007B"/>
  <outline>
    <contour>
      <point x="308" y="-356" type="curve"/>
      <point x="327" y="-337"/>
      <point x="334" y="-313"/>
      <point x="338" y="-298" type="curve"/>
      <point x="251" y="-280"/>
      <point x="213" y="-188"/>
      <point x="213" y="-83" type="curve" smooth="yes"/>
      <point x="213" y="28"/>
      <point x="250" y="103"/>
      <point x="288" y="176" type="curve" smooth="yes"/>
      <point x="324" y="245"/>
      <point x="357" y="311"/>
      <point x="357" y="404" type="curve" smooth="yes"/>
      <point x="357" y="546"/>
      <point x="243" y="603"/>
      <point x="156" y="616" type="curve"/>
      <point x="150" y="605" type="line"/>
      <point x="267" y="619"/>
      <point x="398" y="709"/>
      <point x="441" y="899" type="curve" smooth="yes"/>
      <point x="453" y="951"/>
      <point x="454" y="988"/>
      <point x="454" y="1023" type="curve" smooth="yes"/>
      <point x="454" y="1061"/>
      <point x="455" y="1097"/>
      <point x="469" y="1150" type="curve" smooth="yes"/>
      <point x="509" y="1301"/>
      <point x="647" y="1462"/>
      <point x="840" y="1476" type="curve"/>
      <point x="841" y="1490"/>
      <point x="841" y="1520"/>
      <point x="835" y="1533" type="curve"/>
      <point x="605" y="1518"/>
      <point x="450" y="1356"/>
      <point x="399" y="1165" type="curve" smooth="yes"/>
      <point x="384" y="1107"/>
      <point x="381" y="1063"/>
      <point x="381" y="1020" type="curve" smooth="yes"/>
      <point x="381" y="979"/>
      <point x="377" y="937"/>
      <point x="363" y="884" type="curve" smooth="yes"/>
      <point x="329" y="756"/>
      <point x="241" y="668"/>
      <point x="111" y="645" type="curve"/>
      <point x="106" y="638"/>
      <point x="103" y="628"/>
      <point x="100" y="616" type="curve" smooth="yes"/>
      <point x="97" y="603"/>
      <point x="95" y="589"/>
      <point x="95" y="577" type="curve"/>
      <point x="212" y="547"/>
      <point x="284" y="495"/>
      <point x="284" y="396" type="curve" smooth="yes"/>
      <point x="284" y="316"/>
      <point x="254" y="254"/>
      <point x="222" y="188" type="curve" smooth="yes"/>
      <point x="185" y="113"/>
      <point x="145" y="31"/>
      <point x="145" y="-92" type="curve" smooth="yes"/>
      <point x="145" y="-227"/>
      <point x="199" y="-344"/>
    </contour>
  </outline>
</glyph>
<glyph name="cent" format="2">
  <advance width="1026"/>
  <unicode hex="00A2"/>
  <anchor x="382" y="130" name="bottom"/>
  <anchor x="628" y="1193" name="top"/>
  <outline>
    <contour>
      <point x="795" y="1324" type="curve"/>
      <point x="676" y="996"/>
      <point x="378" y="360"/>
      <point x="188" y="8" type="curve"/>
      <point x="204" y="-1"/>
      <point x="241" y="-13"/>
      <point x="267" y="-20" type="curve"/>
      <point x="397" y="211"/>
      <point x="783" y="1064"/>
      <point x="869" y="1315" type="curve"/>
      <point x="858" y="1320"/>
      <point x="820" y="1324"/>
    </contour>
    <component base="c" xOffset="-17" yOffset="130"/>
  </outline>
</glyph>
<glyph name="brokenbar" format="2">
  <advance width="432"/>
  <unicode hex="00A6"/>
  <outline>
    <contour>
      <point x="94" y="265" type="curve"/>
      <point x="47" y="90"/>
      <point x="-75" y="-406"/>
      <point x="-97" y="-497" type="curve"/>
      <point x="-82" y="-497"/>
      <point x="-44" y="-494"/>
      <point x="-30" y="-492" type="curve"/>
      <point x="-9" y="-399"/>
      <point x="134" y="150"/>
      <point x="164" y="265" type="curve"/>
      <point x="144" y="265"/>
      <point x="117" y="265"/>
    </contour>
    <contour>
      <point x="204" y="658" type="curve"/>
      <point x="220" y="658"/>
      <point x="257" y="661"/>
      <point x="279" y="664" type="curve"/>
      <point x="318" y="810"/>
      <point x="465" y="1326"/>
      <point x="520" y="1495" type="curve"/>
      <point x="507" y="1499"/>
      <point x="490" y="1502"/>
      <point x="469" y="1502" type="curve"/>
      <point x="410" y="1341"/>
      <point x="282" y="949"/>
    </contour>
  </outline>
</glyph>
<glyph name="ordfeminine" format="2">
  <advance width="750"/>
  <unicode hex="00AA"/>
  <outline>
    <contour>
      <point x="654" y="706" type="curve"/>
      <point x="665" y="704"/>
      <point x="690" y="702"/>
      <point x="709" y="702" type="curve" smooth="yes"/>
      <point x="717" y="702"/>
      <point x="735" y="703"/>
      <point x="738" y="704" type="curve"/>
      <point x="803" y="870"/>
      <point x="865" y="1045"/>
      <point x="865" y="1175" type="curve" smooth="yes"/>
      <point x="865" y="1326"/>
      <point x="787" y="1416"/>
      <point x="598" y="1416" type="curve" smooth="yes"/>
      <point x="447" y="1416"/>
      <point x="323" y="1351"/>
      <point x="246" y="1270" type="curve"/>
      <point x="305" y="1225" type="line"/>
      <point x="368" y="1294"/>
      <point x="461" y="1348"/>
      <point x="585" y="1348" type="curve" smooth="yes"/>
      <point x="711" y="1348"/>
      <point x="792" y="1286"/>
      <point x="792" y="1164" type="curve" smooth="yes"/>
      <point x="792" y="1149"/>
      <point x="791" y="1133"/>
      <point x="788" y="1116" type="curve"/>
      <point x="768" y="1124"/>
      <point x="610" y="1144"/>
      <point x="545" y="1144" type="curve" smooth="yes"/>
      <point x="349" y="1144"/>
      <point x="146" y="1053"/>
      <point x="146" y="874" type="curve" smooth="yes"/>
      <point x="146" y="760"/>
      <point x="262" y="716"/>
      <point x="412" y="716" type="curve" smooth="yes"/>
      <point x="510" y="716"/>
      <point x="648" y="768"/>
      <point x="700" y="811" type="curve"/>
      <point x="689" y="788"/>
      <point x="661" y="723"/>
    </contour>
    <contour>
      <point x="418" y="780" type="curve" smooth="yes"/>
      <point x="301" y="780"/>
      <point x="225" y="803"/>
      <point x="225" y="884" type="curve" smooth="yes"/>
      <point x="225" y="1017"/>
      <point x="384" y="1082"/>
      <point x="523" y="1082" type="curve" smooth="yes"/>
      <point x="618" y="1082"/>
      <point x="748" y="1062"/>
      <point x="774" y="1055" type="curve"/>
      <point x="770" y="1034"/>
      <point x="766" y="1015"/>
      <point x="761" y="994" type="curve" smooth="yes"/>
      <point x="754" y="966"/>
      <point x="745" y="937"/>
      <point x="729" y="894" type="curve"/>
      <point x="650" y="828"/>
      <point x="526" y="780"/>
    </contour>
  </outline>
</glyph>
<glyph name="guillemetleft" format="2">
  <advance width="1214"/>
  <unicode hex="00AB"/>
  <outline>
    <contour>
      <point x="1263" y="1135" type="curve"/>
      <point x="1062" y="997"/>
      <point x="814" y="797"/>
      <point x="566" y="573" type="curve"/>
      <point x="1014" y="181" type="line"/>
      <point x="1030" y="192"/>
      <point x="1055" y="217"/>
      <point x="1065" y="243" type="curve"/>
      <point x="1025" y="287"/>
      <point x="814" y="467"/>
      <point x="667" y="591" type="curve"/>
      <point x="1308" y="1084" type="line"/>
      <point x="1299" y="1096"/>
      <point x="1278" y="1119"/>
    </contour>
    <contour>
      <point x="769" y="1120" type="curve"/>
      <point x="537" y="926"/>
      <point x="303" y="711"/>
      <point x="94" y="516" type="curve"/>
      <point x="231" y="330"/>
      <point x="395" y="156"/>
      <point x="576" y="0" type="curve"/>
      <point x="578" y="2"/>
      <point x="622" y="46"/>
      <point x="634" y="75" type="curve"/>
      <point x="609" y="93"/>
      <point x="360" y="341"/>
      <point x="179" y="523" type="curve"/>
      <point x="839" y="1072" type="line"/>
      <point x="815" y="1089"/>
      <point x="780" y="1113"/>
    </contour>
  </outline>
</glyph>
<glyph name="logicalnot" format="2">
  <advance width="1000"/>
  <unicode hex="00AC"/>
  <outline>
    <contour>
      <point x="903" y="732" type="curve"/>
      <point x="824" y="732"/>
      <point x="272" y="719"/>
      <point x="143" y="715" type="curve"/>
      <point x="139" y="697"/>
      <point x="135" y="671"/>
      <point x="133" y="654" type="curve"/>
      <point x="235" y="654"/>
      <point x="753" y="666"/>
      <point x="824" y="668" type="curve"/>
      <point x="810" y="614"/>
      <point x="736" y="385"/>
      <point x="714" y="320" type="curve"/>
      <point x="733" y="320"/>
      <point x="759" y="321"/>
      <point x="776" y="326" type="curve"/>
      <point x="845" y="531"/>
      <point x="898" y="713"/>
    </contour>
  </outline>
</glyph>
<glyph name="degree" format="2">
  <advance width="814"/>
  <unicode hex="00B0"/>
  <outline>
    <contour>
      <point x="519" y="915" type="curve" smooth="yes"/>
      <point x="720" y="915"/>
      <point x="913" y="1081"/>
      <point x="913" y="1275" type="curve" smooth="yes"/>
      <point x="913" y="1402"/>
      <point x="813" y="1485"/>
      <point x="663" y="1485" type="curve" smooth="yes"/>
      <point x="465" y="1485"/>
      <point x="268" y="1344"/>
      <point x="268" y="1145" type="curve" smooth="yes"/>
      <point x="268" y="1010"/>
      <point x="366" y="915"/>
    </contour>
    <contour>
      <point x="528" y="983" type="curve" smooth="yes"/>
      <point x="413" y="983"/>
      <point x="352" y="1044"/>
      <point x="352" y="1146" type="curve" smooth="yes"/>
      <point x="352" y="1295"/>
      <point x="491" y="1417"/>
      <point x="637" y="1417" type="curve" smooth="yes"/>
      <point x="773" y="1417"/>
      <point x="825" y="1353"/>
      <point x="825" y="1263" type="curve" smooth="yes"/>
      <point x="825" y="1109"/>
      <point x="680" y="983"/>
    </contour>
  </outline>
</glyph>
<glyph name="twosuperior" format="2">
  <advance width="744"/>
  <unicode hex="00B2"/>
  <outline>
    <contour>
      <point x="681" y="587" type="curve"/>
      <point x="585" y="584"/>
      <point x="300" y="567"/>
      <point x="232" y="560" type="curve"/>
      <point x="339" y="646"/>
      <point x="457" y="742"/>
      <point x="558" y="838" type="curve" smooth="yes"/>
      <point x="698" y="971"/>
      <point x="806" y="1089"/>
      <point x="806" y="1185" type="curve" smooth="yes"/>
      <point x="806" y="1261"/>
      <point x="732" y="1311"/>
      <point x="625" y="1311" type="curve" smooth="yes"/>
      <point x="470" y="1311"/>
      <point x="336" y="1230"/>
      <point x="243" y="1104" type="curve"/>
      <point x="257" y="1091"/>
      <point x="281" y="1071"/>
      <point x="292" y="1064" type="curve"/>
      <point x="369" y="1170"/>
      <point x="473" y="1247"/>
      <point x="611" y="1247" type="curve" smooth="yes"/>
      <point x="678" y="1247"/>
      <point x="733" y="1224"/>
      <point x="733" y="1168" type="curve" smooth="yes"/>
      <point x="733" y="1092"/>
      <point x="611" y="968"/>
      <point x="455" y="827" type="curve" smooth="yes"/>
      <point x="348" y="731"/>
      <point x="225" y="632"/>
      <point x="115" y="550" type="curve"/>
      <point x="112" y="536"/>
      <point x="109" y="509"/>
      <point x="109" y="490" type="curve"/>
      <point x="659" y="516" type="line"/>
      <point x="665" y="529"/>
      <point x="678" y="570"/>
    </contour>
  </outline>
</glyph>
<glyph name="onesuperior" format="2">
  <advance width="538"/>
  <unicode hex="00B9"/>
  <outline>
    <contour>
      <point x="297" y="571" type="curve"/>
      <point x="310" y="614"/>
      <point x="326" y="670"/>
      <point x="344" y="736" type="curve" smooth="yes"/>
      <point x="415" y="995"/>
      <point x="479" y="1248"/>
      <point x="481" y="1261" type="curve"/>
      <point x="467" y="1264"/>
      <point x="433" y="1265"/>
      <point x="418" y="1265" type="curve"/>
      <point x="351" y="1220"/>
      <point x="212" y="1110"/>
      <point x="192" y="1094" type="curve"/>
      <point x="196" y="1073"/>
      <point x="204" y="1048"/>
      <point x="210" y="1035" type="curve"/>
      <point x="246" y="1063"/>
      <point x="379" y="1165"/>
      <point x="398" y="1178" type="curve"/>
      <point x="382" y="1112"/>
      <point x="246" y="618"/>
      <point x="232" y="570" type="curve"/>
      <point x="211" y="569"/>
      <point x="115" y="560"/>
      <point x="86" y="557" type="curve"/>
      <point x="82" y="549"/>
      <point x="72" y="507"/>
      <point x="70" y="493" type="curve"/>
      <point x="122" y="499"/>
      <point x="368" y="505"/>
      <point x="416" y="505" type="curve"/>
      <point x="423" y="521"/>
      <point x="433" y="551"/>
      <point x="438" y="567" type="curve"/>
      <point x="410" y="569"/>
      <point x="322" y="571"/>
    </contour>
  </outline>
</glyph>
<glyph name="Ccedilla" format="2">
  <advance width="1137"/>
  <unicode hex="00C7"/>
  <anchor x="397" y="0" name="bottom"/>
  <anchor x="743" y="1291" name="top"/>
  <outline>
    <contour>
      <point x="408" y="-462" type="curve" smooth="yes"/>
      <point x="605" y="-462"/>
      <point x="758" y="-400"/>
      <point x="758" y="-227" type="curve" smooth="yes"/>
      <point x="758" y="-134"/>
      <point x="693" y="-87"/>
      <point x="597" y="-87" type="curve" smooth="yes"/>
      <point x="549" y="-87"/>
      <point x="484" y="-106"/>
      <point x="465" y="-119" type="curve"/>
      <point x="506" y="39" type="line"/>
      <point x="434" y="43" type="line"/>
      <point x="367" y="-212" type="line"/>
      <point x="410" y="-194"/>
      <point x="512" y="-159"/>
      <point x="570" y="-159" type="curve" smooth="yes"/>
      <point x="642" y="-159"/>
      <point x="668" y="-189"/>
      <point x="668" y="-242" type="curve" smooth="yes"/>
      <point x="668" y="-362"/>
      <point x="558" y="-392"/>
      <point x="412" y="-392" type="curve" smooth="yes"/>
      <point x="361" y="-392"/>
      <point x="287" y="-374"/>
      <point x="249" y="-364" type="curve"/>
      <point x="222" y="-437" type="line"/>
      <point x="241" y="-444"/>
      <point x="304" y="-462"/>
    </contour>
    <component base="C"/>
  </outline>
</glyph>
<glyph name="multiply" format="2">
  <advance width="1041"/>
  <unicode hex="00D7"/>
  <outline>
    <contour>
      <point x="989" y="991" type="curve"/>
      <point x="983" y="1006"/>
      <point x="969" y="1021"/>
      <point x="953" y="1032" type="curve"/>
      <point x="813" y="904"/>
      <point x="270" y="463"/>
      <point x="128" y="359" type="curve"/>
      <point x="141" y="344"/>
      <point x="163" y="328"/>
      <point x="178" y="318" type="curve"/>
      <point x="394" y="474"/>
      <point x="877" y="871"/>
    </contour>
    <contour>
      <point x="348" y="1022" type="curve"/>
      <point x="338" y="1014"/>
      <point x="322" y="1001"/>
      <point x="306" y="985" type="curve"/>
      <point x="407" y="901"/>
      <point x="672" y="516"/>
      <point x="787" y="342" type="curve"/>
      <point x="811" y="359"/>
      <point x="826" y="373"/>
      <point x="838" y="388" type="curve"/>
      <point x="692" y="619"/>
      <point x="445" y="956"/>
    </contour>
  </outline>
</glyph>
<glyph name="Thorn" format="2">
  <advance width="1316"/>
  <unicode hex="00DE"/>
  <outline>
    <contour>
      <point x="453" y="1282" type="curve"/>
      <point x="430" y="1282"/>
      <point x="399" y="1280"/>
      <point x="377" y="1277" type="curve"/>
      <point x="321" y="990"/>
      <point x="115" y="154"/>
      <point x="60" y="-22" type="curve"/>
      <point x="105" y="-22"/>
      <point x="150" y="-22"/>
      <point x="167" y="-21" type="curve"/>
      <point x="234" y="232"/>
      <point x="399" y="990"/>
    </contour>
    <contour>
      <point x="358" y="906" type="line"/>
      <point x="461" y="931"/>
      <point x="582" y="945"/>
      <point x="699" y="945" type="curve" smooth="yes"/>
      <point x="953" y="945"/>
      <point x="1071" y="857"/>
      <point x="1071" y="714" type="curve" smooth="yes"/>
      <point x="1071" y="439"/>
      <point x="830" y="361"/>
      <point x="520" y="361" type="curve" smooth="yes"/>
      <point x="420" y="361"/>
      <point x="314" y="370"/>
      <point x="205" y="385" type="curve"/>
      <point x="168" y="299" type="line"/>
      <point x="270" y="286"/>
      <point x="400" y="278"/>
      <point x="509" y="278" type="curve" smooth="yes"/>
      <point x="880" y="278"/>
      <point x="1163" y="374"/>
      <point x="1163" y="729" type="curve" smooth="yes"/>
      <point x="1163" y="937"/>
      <point x="992" y="1029"/>
      <point x="755" y="1029" type="curve" smooth="yes"/>
      <point x="626" y="1029"/>
      <point x="509" y="1015"/>
      <point x="382" y="995" type="curve"/>
    </contour>
  </outline>
</glyph>
<glyph name="germandbls" format="2">
  <advance width="1144"/>
  <unicode hex="00DF"/>
  <anchor x="430" y="0" name="bottom"/>
  <anchor x="707" y="1368" name="top"/>
  <outline>
    <contour>
      <point x="127" y="-5" type="curve"/>
      <point x="210" y="5" type="line"/>
      <point x="221" y="103"/>
      <point x="308" y="823"/>
      <point x="354" y="993" type="curve" smooth="yes"/>
      <point x="409" y="1196"/>
      <point x="504" y="1323"/>
      <point x="701" y="1323" type="curve" smooth="yes"/>
      <point x="830" y="1323"/>
      <point x="942" y="1253"/>
      <point x="942" y="1144" type="curve" smooth="yes"/>
      <point x="942" y="1053"/>
      <point x="866" y="981"/>
      <point x="792" y="914" type="curve" smooth="yes"/>
      <point x="723" y="851"/>
      <point x="660" y="792"/>
      <point x="660" y="721" type="curve" smooth="yes"/>
      <point x="660" y="685"/>
      <point x="675" y="643"/>
      <point x="702" y="616" type="curve" smooth="yes"/>
      <point x="771" y="547"/>
      <point x="856" y="456"/>
      <point x="856" y="342" type="curve" smooth="yes"/>
      <point x="856" y="203"/>
      <point x="748" y="86"/>
      <point x="600" y="86" type="curve" smooth="yes"/>
      <point x="504" y="86"/>
      <point x="433" y="122"/>
      <point x="390" y="171" type="curve"/>
      <point x="321" y="107" type="line"/>
      <point x="371" y="56"/>
      <point x="469" y="2"/>
      <point x="570" y="2" type="curve" smooth="yes"/>
      <point x="771" y="2"/>
      <point x="949" y="164"/>
      <point x="949" y="358" type="curve" smooth="yes"/>
      <point x="949" y="483"/>
      <point x="858" y="573"/>
      <point x="819" y="611" type="curve" smooth="yes"/>
      <point x="761" y="667"/>
      <point x="756" y="702"/>
      <point x="756" y="736" type="curve" smooth="yes"/>
      <point x="756" y="773"/>
      <point x="797" y="813"/>
      <point x="849" y="861" type="curve" smooth="yes"/>
      <point x="925" y="932"/>
      <point x="1017" y="1025"/>
      <point x="1017" y="1157" type="curve" smooth="yes"/>
      <point x="1017" y="1304"/>
      <point x="881" y="1395"/>
      <point x="712" y="1395" type="curve" smooth="yes"/>
      <point x="465" y="1395"/>
      <point x="344" y="1250"/>
      <point x="274" y="988" type="curve" smooth="yes"/>
      <point x="212" y="756"/>
      <point x="153" y="229"/>
    </contour>
  </outline>
</glyph>
<glyph name="divide" format="2">
  <advance width="916"/>
  <unicode hex="00F7"/>
  <outline>
    <contour>
      <point x="551" y="846" type="curve" smooth="yes"/>
      <point x="624" y="846"/>
      <point x="685" y="903"/>
      <point x="685" y="983" type="curve" smooth="yes"/>
      <point x="685" y="1036"/>
      <point x="641" y="1070"/>
      <point x="585" y="1070" type="curve" smooth="yes"/>
      <point x="512" y="1070"/>
      <point x="446" y="1011"/>
      <point x="446" y="933" type="curve" smooth="yes"/>
      <point x="446" y="881"/>
      <point x="496" y="846"/>
    </contour>
    <contour>
      <point x="384" y="219" type="curve" smooth="yes"/>
      <point x="457" y="219"/>
      <point x="526" y="267"/>
      <point x="526" y="344" type="curve" smooth="yes"/>
      <point x="526" y="393"/>
      <point x="481" y="431"/>
      <point x="421" y="431" type="curve" smooth="yes"/>
      <point x="341" y="431"/>
      <point x="277" y="373"/>
      <point x="277" y="309" type="curve" smooth="yes"/>
      <point x="277" y="262"/>
      <point x="329" y="219"/>
    </contour>
    <contour>
      <point x="118" y="617" type="curve"/>
      <point x="254" y="617"/>
      <point x="737" y="619"/>
      <point x="882" y="619" type="curve"/>
      <point x="887" y="636"/>
      <point x="893" y="668"/>
      <point x="894" y="678" type="curve"/>
      <point x="859" y="680"/>
      <point x="772" y="684"/>
      <point x="678" y="684" type="curve" smooth="yes"/>
      <point x="482" y="684"/>
      <point x="224" y="680"/>
      <point x="132" y="677" type="curve"/>
      <point x="123" y="651"/>
      <point x="119" y="631"/>
    </contour>
  </outline>
</glyph>
<glyph name="aogonek" format="2">
  <advance width="1295"/>
  <unicode hex="0105"/>
  <anchor x="476" y="0" name="bottom"/>
  <anchor x="1046" y="10" name="ogonek"/>
  <anchor x="750" y="1063" name="top"/>
  <outline>
    <contour>
      <point x="1167" y="-360" type="line"/>
      <point x="1094" y="-393"/>
      <point x="1045" y="-413"/>
      <point x="951" y="-413" type="curve" smooth="yes"/>
      <point x="861" y="-413"/>
      <point x="804" y="-382"/>
      <point x="804" y="-280" type="curve" smooth="yes"/>
      <point x="804" y="-167"/>
      <point x="934" y="-33"/>
      <point x="1046" y="10" type="curve"/>
      <point x="981" y="55" type="line"/>
      <point x="842" y="-4"/>
      <point x="718" y="-144"/>
      <point x="718" y="-287" type="curve" smooth="yes"/>
      <point x="718" y="-416"/>
      <point x="798" y="-493"/>
      <point x="935" y="-493" type="curve" smooth="yes"/>
      <point x="1039" y="-493"/>
      <point x="1111" y="-471"/>
      <point x="1167" y="-447" type="curve"/>
    </contour>
    <component base="a"/>
  </outline>
</glyph>
<glyph name="Eogonek" format="2">
  <advance width="957"/>
  <unicode hex="0118"/>
  <anchor x="336.585" y="0.0" name="bottom"/>
  <anchor x="581" y="0" name="ogonek"/>
  <anchor x="683" y="1311" name="top"/>
  <anchor x="223.507" y="1291.0" name="topleft"/>
  <outline>
    <contour>
      <point x="814" y="-379" type="line"/>
      <point x="741" y="-412"/>
      <point x="692" y="-432"/>
      <point x="598" y="-432" type="curve" smooth="yes"/>
      <point x="508" y="-432"/>
      <point x="451" y="-401"/>
      <point x="451" y="-299" type="curve" smooth="yes"/>
      <point x="451" y="-186"/>
      <point x="581" y="-52"/>
      <point x="693" y="-9" type="curve"/>
      <point x="628" y="36" type="line"/>
      <point x="489" y="-23"/>
      <point x="365" y="-163"/>
      <point x="365" y="-306" type="curve" smooth="yes"/>
      <point x="365" y="-435"/>
      <point x="445" y="-512"/>
      <point x="582" y="-512" type="curve" smooth="yes"/>
      <point x="686" y="-512"/>
      <point x="758" y="-490"/>
      <point x="814" y="-466" type="curve"/>
    </contour>
    <component base="E"/>
  </outline>
</glyph>
<glyph name="hbar" format="2">
  <advance width="1123"/>
  <unicode hex="0127"/>
  <anchor x="380" y="0" name="bottom"/>
  <anchor x="512" y="1265" name="center"/>
  <anchor x="451" y="1398" name="top"/>
  <outline>
    <contour>
      <point x="793" y="1170" type="curve"/>
      <point x="800" y="1194"/>
      <point x="807" y="1222"/>
      <point x="807" y="1229" type="curve"/>
      <point x="665" y="1229"/>
      <point x="261" y="1200"/>
      <point x="191" y="1188" type="curve"/>
      <point x="184" y="1179"/>
      <point x="174" y="1152"/>
      <point x="170" y="1138" type="curve"/>
      <point x="344" y="1153"/>
      <point x="625" y="1170"/>
    </contour>
    <component base="h"/>
  </outline>
</glyph>
<glyph name="iogonek" format="2">
  <advance width="581"/>
  <unicode hex="012F"/>
  <anchor x="129" y="0" name="bottom"/>
  <anchor x="168" y="-2" name="ogonek"/>
  <anchor x="519" y="1331" name="top"/>
  <outline>
    <contour>
      <point x="289" y="-372" type="line"/>
      <point x="216" y="-405"/>
      <point x="167" y="-425"/>
      <point x="73" y="-425" type="curve" smooth="yes"/>
      <point x="-17" y="-425"/>
      <point x="-74" y="-394"/>
      <point x="-74" y="-292" type="curve" smooth="yes"/>
      <point x="-74" y="-179"/>
      <point x="56" y="-45"/>
      <point x="168" y="-2" type="curve"/>
      <point x="103" y="43" type="line"/>
      <point x="-36" y="-16"/>
      <point x="-160" y="-156"/>
      <point x="-160" y="-299" type="curve" smooth="yes"/>
      <point x="-160" y="-428"/>
      <point x="-80" y="-505"/>
      <point x="57" y="-505" type="curve" smooth="yes"/>
      <point x="161" y="-505"/>
      <point x="233" y="-483"/>
      <point x="289" y="-459" type="curve"/>
    </contour>
    <component base="idotless"/>
    <component base="dotaccentcomb" xOffset="68" yOffset="-73"/>
  </outline>
</glyph>
<glyph name="Eng" format="2">
  <advance width="1282"/>
  <unicode hex="014A"/>
  <anchor x="498.585" y="0.0" name="bottom"/>
  <anchor x="844.507" y="1291.0" name="top"/>
  <outline>
    <contour>
      <point x="576" y="-349" type="curve" smooth="yes"/>
      <point x="718" y="-349"/>
      <point x="889" y="-214"/>
      <point x="951" y="15" type="curve"/>
      <point x="846" y="75" type="line"/>
      <point x="850" y="64"/>
      <point x="852" y="40"/>
      <point x="852" y="26" type="curve" smooth="yes"/>
      <point x="852" y="-114"/>
      <point x="728" y="-279"/>
      <point x="575" y="-279" type="curve" smooth="yes"/>
      <point x="459" y="-279"/>
      <point x="408" y="-212"/>
      <point x="390" y="-152" type="curve"/>
      <point x="367" y="-162"/>
      <point x="340" y="-179"/>
      <point x="324" y="-190" type="curve"/>
      <point x="354" y="-320"/>
      <point x="472" y="-349"/>
    </contour>
    <component base="N"/>
  </outline>
</glyph>
<glyph name="OE" format="2">
  <advance width="1891"/>
  <unicode hex="0152"/>
  <anchor x="865" y="0" name="bottom"/>
  <anchor x="1211" y="1291" name="top"/>
  <outline>
    <contour>
      <point x="511" y="-51" type="curve" smooth="yes"/>
      <point x="742" y="-51"/>
      <point x="971" y="70"/>
      <point x="1046" y="251" type="curve"/>
      <point x="1028" y="253" type="line"/>
      <point x="1004" y="166"/>
      <point x="984" y="79"/>
      <point x="964" y="-8" type="curve"/>
      <point x="1027" y="-6"/>
      <point x="1110" y="-5"/>
      <point x="1173" y="-5" type="curve" smooth="yes"/>
      <point x="1333" y="-5"/>
      <point x="1470" y="-10"/>
      <point x="1625" y="-19" type="curve"/>
      <point x="1635" y="-1"/>
      <point x="1649" y="29"/>
      <point x="1658" y="57" type="curve"/>
      <point x="1584" y="63"/>
      <point x="1400" y="70"/>
      <point x="1241" y="70" type="curve" smooth="yes"/>
      <point x="1188" y="70"/>
      <point x="1100" y="69"/>
      <point x="1060" y="67" type="curve"/>
      <point x="1115" y="271"/>
      <point x="1170" y="476"/>
      <point x="1224" y="680" type="curve"/>
      <point x="1311" y="683"/>
      <point x="1730" y="684"/>
      <point x="1780" y="684" type="curve"/>
      <point x="1793" y="762" type="line"/>
      <point x="1701" y="762"/>
      <point x="1318" y="750"/>
      <point x="1244" y="747" type="curve"/>
      <point x="1267" y="832"/>
      <point x="1341" y="1099"/>
      <point x="1370" y="1187" type="curve"/>
      <point x="1974" y="1234" type="line"/>
      <point x="1984" y="1261"/>
      <point x="1988" y="1274"/>
      <point x="1997" y="1308" type="curve"/>
      <point x="1942" y="1308"/>
      <point x="1650" y="1289"/>
      <point x="1299" y="1241" type="curve"/>
      <point x="1285" y="1202"/>
      <point x="1250" y="1102"/>
      <point x="1222" y="980" type="curve"/>
      <point x="1232" y="999" type="line"/>
      <point x="1232" y="1180"/>
      <point x="1099" y="1320"/>
      <point x="859" y="1320" type="curve" smooth="yes"/>
      <point x="416" y="1320"/>
      <point x="140" y="857"/>
      <point x="140" y="376" type="curve" smooth="yes"/>
      <point x="140" y="130"/>
      <point x="238" y="-51"/>
    </contour>
    <contour>
      <point x="513" y="27" type="curve" smooth="yes"/>
      <point x="303" y="27"/>
      <point x="229" y="185"/>
      <point x="229" y="392" type="curve" smooth="yes"/>
      <point x="229" y="824"/>
      <point x="460" y="1239"/>
      <point x="854" y="1239" type="curve" smooth="yes"/>
      <point x="1079" y="1239"/>
      <point x="1155" y="1088"/>
      <point x="1155" y="892" type="curve" smooth="yes"/>
      <point x="1155" y="454"/>
      <point x="909" y="27"/>
    </contour>
  </outline>
</glyph>
<glyph name="scedilla" format="2">
  <advance width="995"/>
  <unicode hex="015F"/>
  <anchor x="340" y="-60" name="bottom"/>
  <anchor x="657" y="1098" name="top"/>
  <outline>
    <contour>
      <point x="284" y="-522" type="curve" smooth="yes"/>
      <point x="481" y="-522"/>
      <point x="634" y="-460"/>
      <point x="634" y="-287" type="curve" smooth="yes"/>
      <point x="634" y="-194"/>
      <point x="569" y="-147"/>
      <point x="473" y="-147" type="curve" smooth="yes"/>
      <point x="425" y="-147"/>
      <point x="360" y="-166"/>
      <point x="341" y="-179" type="curve"/>
      <point x="382" y="-21" type="line"/>
      <point x="310" y="-17" type="line"/>
      <point x="243" y="-272" type="line"/>
      <point x="286" y="-254"/>
      <point x="388" y="-219"/>
      <point x="446" y="-219" type="curve" smooth="yes"/>
      <point x="518" y="-219"/>
      <point x="544" y="-249"/>
      <point x="544" y="-302" type="curve" smooth="yes"/>
      <point x="544" y="-422"/>
      <point x="434" y="-452"/>
      <point x="288" y="-452" type="curve" smooth="yes"/>
      <point x="237" y="-452"/>
      <point x="163" y="-434"/>
      <point x="125" y="-424" type="curve"/>
      <point x="98" y="-497" type="line"/>
      <point x="117" y="-504"/>
      <point x="180" y="-522"/>
    </contour>
    <component base="s"/>
  </outline>
</glyph>
<glyph name="tcedilla" format="2">
  <advance width="964"/>
  <unicode hex="0163"/>
  <anchor x="494" y="-33" name="bottom"/>
  <anchor x="442" y="532" name="center"/>
  <anchor x="624" y="1436" name="top"/>
  <anchor x="685" y="1186" name="topright"/>
  <outline>
    <contour>
      <point x="361" y="-492" type="curve" smooth="yes"/>
      <point x="558" y="-492"/>
      <point x="711" y="-430"/>
      <point x="711" y="-257" type="curve" smooth="yes"/>
      <point x="711" y="-164"/>
      <point x="646" y="-117"/>
      <point x="550" y="-117" type="curve" smooth="yes"/>
      <point x="502" y="-117"/>
      <point x="437" y="-136"/>
      <point x="418" y="-149" type="curve"/>
      <point x="459" y="9" type="line"/>
      <point x="387" y="13" type="line"/>
      <point x="320" y="-242" type="line"/>
      <point x="363" y="-224"/>
      <point x="465" y="-189"/>
      <point x="523" y="-189" type="curve" smooth="yes"/>
      <point x="595" y="-189"/>
      <point x="621" y="-219"/>
      <point x="621" y="-272" type="curve" smooth="yes"/>
      <point x="621" y="-392"/>
      <point x="511" y="-422"/>
      <point x="365" y="-422" type="curve" smooth="yes"/>
      <point x="314" y="-422"/>
      <point x="240" y="-404"/>
      <point x="202" y="-394" type="curve"/>
      <point x="175" y="-467" type="line"/>
      <point x="194" y="-474"/>
      <point x="257" y="-492"/>
    </contour>
    <component base="t"/>
  </outline>
</glyph>
<glyph name="Tbar" format="2">
  <advance width="1039"/>
  <unicode hex="0166"/>
  <anchor x="407" y="0" name="bottom"/>
  <anchor x="550.68" y="646.0" name="center"/>
  <anchor x="723.507" y="1291.0" name="top"/>
  <outline>
    <contour>
      <point x="923" y="625" type="curve"/>
      <point x="931" y="656"/>
      <point x="939" y="692"/>
      <point x="939" y="701" type="curve"/>
      <point x="778" y="701"/>
      <point x="315" y="684"/>
      <point x="237" y="674" type="curve"/>
      <point x="228" y="662"/>
      <point x="216" y="628"/>
      <point x="212" y="610" type="curve"/>
      <point x="406" y="616"/>
      <point x="732" y="625"/>
    </contour>
    <component base="T"/>
  </outline>
</glyph>
<glyph name="tbar" format="2">
  <advance width="964"/>
  <unicode hex="0167"/>
  <anchor x="494" y="-33" name="bottom"/>
  <anchor x="442" y="532" name="center"/>
  <anchor x="624" y="1436" name="top"/>
  <anchor x="685" y="1186" name="topright"/>
  <outline>
    <contour>
      <point x="803" y="595" type="curve"/>
      <point x="807" y="614"/>
      <point x="812" y="658"/>
      <point x="812" y="666" type="curve"/>
      <point x="682" y="660"/>
      <point x="195" y="619"/>
      <point x="133" y="606" type="curve"/>
      <point x="126" y="595"/>
      <point x="118" y="562"/>
      <point x="116" y="545" type="curve"/>
      <point x="273" y="559"/>
      <point x="649" y="587"/>
    </contour>
    <component base="t"/>
  </outline>
</glyph>
<glyph name="uogonek" format="2">
  <advance width="1178"/>
  <unicode hex="0173"/>
  <anchor x="446.585" y="0.0" name="bottom"/>
  <anchor x="652" y="0" name="ogonek"/>
  <anchor x="731.415" y="1063.0" name="top"/>
  <anchor x="1054" y="940" name="topright"/>
  <outline>
    <contour>
      <point x="856" y="-325" type="line"/>
      <point x="783" y="-358"/>
      <point x="734" y="-378"/>
      <point x="640" y="-378" type="curve" smooth="yes"/>
      <point x="550" y="-378"/>
      <point x="493" y="-347"/>
      <point x="493" y="-245" type="curve" smooth="yes"/>
      <point x="493" y="-132"/>
      <point x="633" y="-8"/>
      <point x="735" y="45" type="curve"/>
      <point x="670" y="90" type="line"/>
      <point x="541" y="21"/>
      <point x="407" y="-109"/>
      <point x="407" y="-252" type="curve" smooth="yes"/>
      <point x="407" y="-381"/>
      <point x="487" y="-458"/>
      <point x="624" y="-458" type="curve" smooth="yes"/>
      <point x="728" y="-458"/>
      <point x="800" y="-436"/>
      <point x="856" y="-412" type="curve"/>
    </contour>
    <component base="u"/>
  </outline>
</glyph>
<glyph name="Schwa" format="2">
  <advance width="1447"/>
  <unicode hex="018F"/>
  <outline>
    <contour>
      <point x="262" y="999" type="curve"/>
      <point x="269" y="987"/>
      <point x="319" y="950"/>
      <point x="328" y="944" type="curve"/>
      <point x="343" y="962"/>
      <point x="576" y="1241"/>
      <point x="899" y="1241" type="curve" smooth="yes"/>
      <point x="1125" y="1241"/>
      <point x="1250" y="1091"/>
      <point x="1250" y="881" type="curve" smooth="yes"/>
      <point x="1250" y="830"/>
      <point x="1244" y="774"/>
      <point x="1229" y="712" type="curve"/>
      <point x="1039" y="705"/>
      <point x="829" y="696"/>
      <point x="629" y="687" type="curve" smooth="yes"/>
      <point x="444" y="679"/>
      <point x="242" y="673"/>
      <point x="218" y="673" type="curve"/>
      <point x="194" y="582"/>
      <point x="177" y="485"/>
      <point x="177" y="395" type="curve" smooth="yes"/>
      <point x="177" y="143"/>
      <point x="310" y="-23"/>
      <point x="571" y="-23" type="curve" smooth="yes"/>
      <point x="1019" y="-23"/>
      <point x="1337" y="424"/>
      <point x="1337" y="890" type="curve" smooth="yes"/>
      <point x="1337" y="1151"/>
      <point x="1200" y="1316"/>
      <point x="906" y="1316" type="curve" smooth="yes"/>
      <point x="563" y="1316"/>
      <point x="330" y="1076"/>
    </contour>
    <contour>
      <point x="1211" y="628" type="curve"/>
      <point x="1110" y="281"/>
      <point x="856" y="57"/>
      <point x="574" y="57" type="curve" smooth="yes"/>
      <point x="343" y="57"/>
      <point x="271" y="218"/>
      <point x="271" y="396" type="curve" smooth="yes"/>
      <point x="271" y="448"/>
      <point x="282" y="541"/>
      <point x="295" y="586" type="curve"/>
      <point x="328" y="589"/>
      <point x="427" y="596"/>
      <point x="571" y="603" type="curve" smooth="yes"/>
      <point x="804" y="614"/>
      <point x="1053" y="623"/>
    </contour>
  </outline>
</glyph>
<glyph name="florin" format="2">
  <advance width="960"/>
  <unicode hex="0192"/>
  <outline>
    <contour>
      <point x="882" y="1375" type="curve" smooth="yes"/>
      <point x="706" y="1375"/>
      <point x="601" y="1253"/>
      <point x="484" y="1012" type="curve" smooth="yes"/>
      <point x="444" y="930"/>
      <point x="403" y="829"/>
      <point x="368" y="738" type="curve"/>
      <point x="333" y="738"/>
      <point x="185" y="737"/>
      <point x="158" y="733" type="curve"/>
      <point x="152" y="718"/>
      <point x="138" y="673"/>
      <point x="134" y="658" type="curve"/>
      <point x="174" y="662"/>
      <point x="285" y="667"/>
      <point x="343" y="667" type="curve"/>
      <point x="237" y="377"/>
      <point x="116" y="53"/>
      <point x="54" y="-92" type="curve" smooth="yes"/>
      <point x="-24" y="-275"/>
      <point x="-79" y="-380"/>
      <point x="-191" y="-380" type="curve" smooth="yes"/>
      <point x="-230" y="-380"/>
      <point x="-256" y="-344"/>
      <point x="-265" y="-327" type="curve"/>
      <point x="-343" y="-394" type="line"/>
      <point x="-331" y="-417"/>
      <point x="-286" y="-460"/>
      <point x="-199" y="-460" type="curve" smooth="yes"/>
      <point x="-88" y="-460"/>
      <point x="29" y="-381"/>
      <point x="120" y="-148" type="curve" smooth="yes"/>
      <point x="219" y="106"/>
      <point x="323" y="384"/>
      <point x="424" y="656" type="curve"/>
      <point x="549" y="644"/>
      <point x="656" y="632"/>
      <point x="673" y="628" type="curve"/>
      <point x="685" y="653"/>
      <point x="698" y="685"/>
      <point x="704" y="705" type="curve"/>
      <point x="636" y="719"/>
      <point x="519" y="728"/>
      <point x="451" y="733" type="curve"/>
      <point x="477" y="801"/>
      <point x="522" y="913"/>
      <point x="557" y="983" type="curve" smooth="yes"/>
      <point x="652" y="1174"/>
      <point x="723" y="1302"/>
      <point x="869" y="1302" type="curve" smooth="yes"/>
      <point x="971" y="1302"/>
      <point x="995" y="1215"/>
      <point x="995" y="1178" type="curve"/>
      <point x="1016" y="1186"/>
      <point x="1049" y="1202"/>
      <point x="1066" y="1213" type="curve"/>
      <point x="1066" y="1279"/>
      <point x="1003" y="1375"/>
    </contour>
  </outline>
</glyph>
<glyph name="Ohorn" format="2">
  <advance width="1354"/>
  <unicode hex="01A0"/>
  <anchor x="535" y="0" name="bottom"/>
  <anchor x="881" y="1291" name="top"/>
  <outline>
    <contour>
      <point x="529" y="-51" type="curve" smooth="yes"/>
      <point x="961" y="-51"/>
      <point x="1227" y="377"/>
      <point x="1227" y="852" type="curve" smooth="yes"/>
      <point x="1227" y="1095"/>
      <point x="1141" y="1320"/>
      <point x="864" y="1320" type="curve" smooth="yes"/>
      <point x="409" y="1320"/>
      <point x="144" y="876"/>
      <point x="144" y="388" type="curve" smooth="yes"/>
      <point x="144" y="132"/>
      <point x="253" y="-51"/>
    </contour>
    <contour>
      <point x="525" y="27" type="curve" smooth="yes"/>
      <point x="315" y="27"/>
      <point x="231" y="183"/>
      <point x="231" y="394" type="curve" smooth="yes"/>
      <point x="231" y="834"/>
      <point x="452" y="1239"/>
      <point x="856" y="1239" type="curve" smooth="yes"/>
      <point x="1078" y="1239"/>
      <point x="1146" y="1048"/>
      <point x="1146" y="847" type="curve" smooth="yes"/>
      <point x="1146" y="416"/>
      <point x="916" y="27"/>
    </contour>
    <contour>
      <point x="1154" y="1111" type="line"/>
      <point x="1306" y="1111"/>
      <point x="1456" y="1210"/>
      <point x="1456" y="1408" type="curve"/>
      <point x="1439" y="1417"/>
      <point x="1393" y="1424"/>
      <point x="1362" y="1424" type="curve"/>
      <point x="1362" y="1291"/>
      <point x="1276" y="1173"/>
      <point x="1115" y="1173" type="curve"/>
    </contour>
  </outline>
</glyph>
<glyph name="uhorn" format="2">
  <advance width="1221"/>
  <unicode hex="01B0"/>
  <anchor x="447" y="0" name="bottom"/>
  <anchor x="731" y="1063" name="top"/>
  <outline>
    <contour>
      <point x="1022" y="1021" type="curve"/>
      <point x="1004" y="852"/>
      <point x="978" y="707"/>
      <point x="945" y="584" type="curve" smooth="yes"/>
      <point x="841" y="196"/>
      <point x="668" y="29"/>
      <point x="465" y="29" type="curve" smooth="yes"/>
      <point x="315" y="29"/>
      <point x="230" y="116"/>
      <point x="230" y="315" type="curve" smooth="yes"/>
      <point x="230" y="516"/>
      <point x="320" y="799"/>
      <point x="414" y="1044" type="curve"/>
      <point x="401" y="1048"/>
      <point x="388" y="1051"/>
      <point x="374" y="1054" type="curve" smooth="yes"/>
      <point x="361" y="1057"/>
      <point x="345" y="1059"/>
      <point x="333" y="1060" type="curve"/>
      <point x="235" y="787"/>
      <point x="139" y="509"/>
      <point x="139" y="297" type="curve" smooth="yes"/>
      <point x="139" y="98"/>
      <point x="221" y="-41"/>
      <point x="461" y="-41" type="curve" smooth="yes"/>
      <point x="781" y="-41"/>
      <point x="941" y="232"/>
      <point x="1026" y="553" type="curve" smooth="yes"/>
      <point x="1067" y="707"/>
      <point x="1090" y="871"/>
      <point x="1104" y="1023" type="curve"/>
      <point x="1098" y="1024"/>
      <point x="1076" y="1024"/>
      <point x="1061" y="1024" type="curve" smooth="yes"/>
      <point x="1045" y="1024"/>
      <point x="1028" y="1022"/>
    </contour>
    <contour>
      <point x="1070" y="952" type="line"/>
      <point x="1222" y="952"/>
      <point x="1362" y="1030"/>
      <point x="1362" y="1259" type="curve"/>
      <point x="1345" y="1268"/>
      <point x="1299" y="1275"/>
      <point x="1268" y="1275" type="curve"/>
      <point x="1268" y="1152"/>
      <point x="1250" y="1024"/>
      <point x="1061" y="1024" type="curve"/>
    </contour>
  </outline>
</glyph>
<glyph name="udieresismacron" format="2">
  <advance width="1178"/>
  <unicode hex="01D6"/>
  <anchor x="446.585" y="0.0" name="bottom"/>
  <anchor x="652" y="0" name="ogonek"/>
  <anchor x="814" y="1397" name="top"/>
  <anchor x="1054" y="940" name="topright"/>
  <outline>
    <contour>
      <point x="1107" y="1527" type="curve"/>
      <point x="1112" y="1551"/>
      <point x="1117" y="1579"/>
      <point x="1117" y="1586" type="curve"/>
      <point x="993" y="1586"/>
      <point x="640" y="1557"/>
      <point x="579" y="1545" type="curve"/>
      <point x="572" y="1536"/>
      <point x="565" y="1509"/>
      <point x="561" y="1495" type="curve"/>
      <point x="713" y="1510"/>
      <point x="960" y="1527"/>
    </contour>
    <component base="u"/>
    <component base="dieresiscomb" xOffset="121"/>
  </outline>
</glyph>
<glyph name="oogonek" format="2">
  <advance width="1172"/>
  <unicode hex="01EB"/>
  <anchor x="433" y="0" name="bottom"/>
  <anchor x="575" y="532" name="center"/>
  <anchor x="678" y="0" name="ogonek"/>
  <anchor x="717" y="1063" name="top"/>
  <anchor x="997" y="941" name="topright"/>
  <outline>
    <contour>
      <point x="890" y="-325" type="line"/>
      <point x="817" y="-358"/>
      <point x="768" y="-378"/>
      <point x="674" y="-378" type="curve" smooth="yes"/>
      <point x="584" y="-378"/>
      <point x="527" y="-347"/>
      <point x="527" y="-245" type="curve" smooth="yes"/>
      <point x="527" y="-132"/>
      <point x="667" y="-8"/>
      <point x="769" y="45" type="curve"/>
      <point x="704" y="90" type="line"/>
      <point x="575" y="21"/>
      <point x="441" y="-109"/>
      <point x="441" y="-252" type="curve" smooth="yes"/>
      <point x="441" y="-381"/>
      <point x="521" y="-458"/>
      <point x="658" y="-458" type="curve" smooth="yes"/>
      <point x="762" y="-458"/>
      <point x="834" y="-436"/>
      <point x="890" y="-412" type="curve"/>
    </contour>
    <component base="o"/>
  </outline>
</glyph>
<glyph name="schwa" format="2">
  <advance width="1032"/>
  <unicode hex="0259"/>
  <anchor x="373.585" y="0" name="bottom"/>
  <anchor x="445" y="43" name="ogonek"/>
  <anchor x="658.415" y="1063" name="top"/>
  <outline>
    <contour>
      <point x="174" y="821" type="curve"/>
      <point x="177" y="803"/>
      <point x="212" y="768"/>
      <point x="226" y="754" type="curve"/>
      <point x="236" y="768"/>
      <point x="402" y="986"/>
      <point x="671" y="986" type="curve" smooth="yes"/>
      <point x="845" y="986"/>
      <point x="936" y="886"/>
      <point x="936" y="726" type="curve" smooth="yes"/>
      <point x="936" y="685"/>
      <point x="929" y="639"/>
      <point x="918" y="590" type="curve"/>
      <point x="770" y="584"/>
      <point x="632" y="577"/>
      <point x="476" y="570" type="curve" smooth="yes"/>
      <point x="333" y="564"/>
      <point x="163" y="559"/>
      <point x="144" y="559" type="curve"/>
      <point x="127" y="493"/>
      <point x="112" y="408"/>
      <point x="112" y="341" type="curve" smooth="yes"/>
      <point x="112" y="145"/>
      <point x="214" y="17"/>
      <point x="417" y="17" type="curve" smooth="yes"/>
      <point x="770" y="17"/>
      <point x="1017" y="360"/>
      <point x="1017" y="730" type="curve" smooth="yes"/>
      <point x="1017" y="932"/>
      <point x="911" y="1060"/>
      <point x="683" y="1060" type="curve" smooth="yes"/>
      <point x="415" y="1060"/>
      <point x="216" y="880"/>
    </contour>
    <contour>
      <point x="902" y="509" type="curve"/>
      <point x="823" y="238"/>
      <point x="647" y="103"/>
      <point x="428" y="103" type="curve" smooth="yes"/>
      <point x="245" y="103"/>
      <point x="196" y="235"/>
      <point x="196" y="355" type="curve" smooth="yes"/>
      <point x="196" y="398"/>
      <point x="203" y="441"/>
      <point x="212" y="475" type="curve"/>
      <point x="223" y="475"/>
      <point x="316" y="485"/>
      <point x="428" y="489" type="curve" smooth="yes"/>
      <point x="632" y="497"/>
      <point x="779" y="503"/>
    </contour>
  </outline>
</glyph>
<glyph name="gravecomb" format="2">
  <unicode hex="0300"/>
  <anchor x="562" y="1063" name="_top"/>
  <anchor x="639" y="1362" name="top"/>
  <outline>
    <contour>
      <point x="307" y="1362" type="curve"/>
      <point x="290" y="1352"/>
      <point x="258" y="1323"/>
      <point x="239" y="1303" type="curve"/>
      <point x="366" y="1270"/>
      <point x="617" y="1180"/>
      <point x="706" y="1128" type="curve"/>
      <point x="709" y="1134"/>
      <point x="721" y="1167"/>
      <point x="723" y="1173" type="curve"/>
      <point x="612" y="1277"/>
      <point x="359" y="1360"/>
    </contour>
  </outline>
</glyph>
<glyph name="dieresiscomb" format="2">
  <unicode hex="0308"/>
  <anchor x="612" y="1063" name="_top"/>
  <anchor x="693" y="1397" name="top"/>
  <outline>
    <contour>
      <point x="502" y="1202" type="curve" smooth="yes"/>
      <point x="548" y="1202"/>
      <point x="595" y="1243"/>
      <point x="595" y="1298" type="curve" smooth="yes"/>
      <point x="595" y="1359"/>
      <point x="549" y="1407"/>
      <point x="500" y="1407" type="curve" smooth="yes"/>
      <point x="453" y="1407"/>
      <point x="405" y="1360"/>
      <point x="405" y="1297" type="curve" smooth="yes"/>
      <point x="405" y="1239"/>
      <point x="454" y="1202"/>
    </contour>
    <contour>
      <point x="878" y="1218" type="curve" smooth="yes"/>
      <point x="927" y="1218"/>
      <point x="960" y="1249"/>
      <point x="960" y="1305" type="curve" smooth="yes"/>
      <point x="960" y="1364"/>
      <point x="915" y="1403"/>
      <point x="859" y="1403" type="curve" smooth="yes"/>
      <point x="810" y="1403"/>
      <point x="773" y="1375"/>
      <point x="773" y="1319" type="curve" smooth="yes"/>
      <point x="773" y="1260"/>
      <point x="822" y="1218"/>
    </contour>
  </outline>
</glyph>
<glyph name="caroncomb" format="2">
  <unicode hex="030C"/>
  <anchor x="577" y="1063" name="_top"/>
  <anchor x="698" y="1489" name="top"/>
  <outline>
    <contour>
      <point x="956" y="1478" type="curve"/>
      <point x="852" y="1398"/>
      <point x="666" y="1246"/>
      <point x="592" y="1184" type="curve"/>
      <point x="604" y="1184" type="line"/>
      <point x="585" y="1203"/>
      <point x="482" y="1378"/>
      <point x="431" y="1487" type="curve"/>
      <point x="404" y="1475"/>
      <point x="379" y="1462"/>
      <point x="364" y="1448" type="curve"/>
      <point x="428" y="1335"/>
      <point x="490" y="1239"/>
      <point x="552" y="1147" type="curve"/>
      <point x="573" y="1146"/>
      <point x="607" y="1145"/>
      <point x="633" y="1145" type="curve"/>
      <point x="675" y="1174"/>
      <point x="796" y="1260"/>
      <point x="1028" y="1432" type="curve"/>
      <point x="1015" y="1445"/>
      <point x="987" y="1465"/>
    </contour>
  </outline>
</glyph>
<glyph name="breveinvertedcomb" format="2">
  <unicode hex="0311"/>
  <anchor x="538.325" y="1063" name="_top"/>
  <anchor x="668.012" y="1547" name="top"/>
  <outline>
    <contour>
      <point x="276" y="1149" type="curve"/>
      <point x="294" y="1144"/>
      <point x="323" y="1136"/>
      <point x="346" y="1136" type="curve"/>
      <point x="394" y="1315"/>
      <point x="489" y="1477"/>
      <point x="651" y="1477" type="curve" smooth="yes"/>
      <point x="769" y="1477"/>
      <point x="807" y="1418"/>
      <point x="807" y="1329" type="curve" smooth="yes"/>
      <point x="807" y="1276"/>
      <point x="791" y="1207"/>
      <point x="774" y="1142" type="curve"/>
      <point x="801" y="1142"/>
      <point x="819" y="1143"/>
      <point x="847" y="1149" type="curve"/>
      <point x="864" y="1208"/>
      <point x="878" y="1280"/>
      <point x="878" y="1340" type="curve" smooth="yes"/>
      <point x="878" y="1475"/>
      <point x="812" y="1547"/>
      <point x="658" y="1547" type="curve" smooth="yes"/>
      <point x="491" y="1547"/>
      <point x="333" y="1393"/>
    </contour>
  </outline>
</glyph>
<glyph name="dotbelowcomb" format="2">
  <unicode hex="0323"/>
  <anchor x="82" y="0" name="_bottom"/>
  <anchor x="6" y="-353" name="bottom"/>
  <outline>
    <contour>
      <point x="11" y="-163" type="curve" smooth="yes"/>
      <point x="-33" y="-163"/>
      <point x="-74" y="-199"/>
      <point x="-74" y="-269" type="curve" smooth="yes"/>
      <point x="-74" y="-328"/>
      <point x="-26" y="-354"/>
      <point x="23" y="-354" type="curve" smooth="yes"/>
      <point x="72" y="-354"/>
      <point x="102" y="-313"/>
      <point x="102" y="-250" type="curve" smooth="yes"/>
      <point x="102" y="-202"/>
      <point x="62" y="-163"/>
    </contour>
  </outline>
</glyph>
<glyph name="dieresisbelowcomb" format="2">
  <unicode hex="0324"/>
  <anchor x="341.777" y="0" name="_bottom"/>
  <anchor x="256" y="-349" name="bottom"/>
  <outline>
    <contour>
      <point x="98" y="-351" type="curve" smooth="yes"/>
      <point x="144" y="-351"/>
      <point x="191" y="-310"/>
      <point x="191" y="-255" type="curve" smooth="yes"/>
      <point x="191" y="-194"/>
      <point x="145" y="-146"/>
      <point x="96" y="-146" type="curve" smooth="yes"/>
      <point x="49" y="-146"/>
      <point x="1" y="-193"/>
      <point x="1" y="-256" type="curve" smooth="yes"/>
      <point x="1" y="-314"/>
      <point x="50" y="-351"/>
    </contour>
    <contour>
      <point x="474" y="-335" type="curve" smooth="yes"/>
      <point x="523" y="-335"/>
      <point x="556" y="-304"/>
      <point x="556" y="-248" type="curve" smooth="yes"/>
      <point x="556" y="-189"/>
      <point x="511" y="-150"/>
      <point x="455" y="-150" type="curve" smooth="yes"/>
      <point x="406" y="-150"/>
      <point x="369" y="-178"/>
      <point x="369" y="-234" type="curve" smooth="yes"/>
      <point x="369" y="-293"/>
      <point x="418" y="-335"/>
    </contour>
  </outline>
</glyph>
<glyph name="commaaccentcomb" format="2">
  <unicode hex="0326"/>
  <anchor x="56" y="0" name="_bottom"/>
  <anchor x="-59" y="-460" name="bottom"/>
  <outline>
    <contour>
      <point x="-85" y="-460" type="curve"/>
      <point x="-15" y="-405"/>
      <point x="69" y="-294"/>
      <point x="69" y="-218" type="curve" smooth="yes"/>
      <point x="69" y="-176"/>
      <point x="34" y="-151"/>
      <point x="-23" y="-151" type="curve" smooth="yes"/>
      <point x="-84" y="-151"/>
      <point x="-124" y="-195"/>
      <point x="-124" y="-239" type="curve" smooth="yes"/>
      <point x="-124" y="-275"/>
      <point x="-105" y="-298"/>
      <point x="-58" y="-298" type="curve" smooth="yes"/>
      <point x="-10" y="-298"/>
      <point x="16" y="-267"/>
      <point x="23" y="-237" type="curve"/>
      <point x="24" y="-239"/>
      <point x="24" y="-241"/>
      <point x="24" y="-244" type="curve" smooth="yes"/>
      <point x="24" y="-294"/>
      <point x="-62" y="-401"/>
      <point x="-110" y="-442" type="curve"/>
      <point x="-103" y="-446"/>
      <point x="-90" y="-455"/>
    </contour>
  </outline>
</glyph>
<glyph name="cedillacomb" format="2">
  <unicode hex="0327"/>
  <anchor x="127" y="0" name="_bottom"/>
  <anchor x="71" y="-462" name="bottom"/>
  <outline>
    <contour>
      <point x="71" y="-462" type="curve" smooth="yes"/>
      <point x="268" y="-462"/>
      <point x="421" y="-400"/>
      <point x="421" y="-227" type="curve" smooth="yes"/>
      <point x="421" y="-134"/>
      <point x="356" y="-87"/>
      <point x="260" y="-87" type="curve" smooth="yes"/>
      <point x="212" y="-87"/>
      <point x="147" y="-106"/>
      <point x="128" y="-119" type="curve"/>
      <point x="169" y="39" type="line"/>
      <point x="97" y="43" type="line"/>
      <point x="30" y="-212" type="line"/>
      <point x="73" y="-194"/>
      <point x="175" y="-159"/>
      <point x="233" y="-159" type="curve" smooth="yes"/>
      <point x="305" y="-159"/>
      <point x="331" y="-189"/>
      <point x="331" y="-242" type="curve" smooth="yes"/>
      <point x="331" y="-362"/>
      <point x="221" y="-392"/>
      <point x="75" y="-392" type="curve" smooth="yes"/>
      <point x="24" y="-392"/>
      <point x="-50" y="-374"/>
      <point x="-88" y="-364" type="curve"/>
      <point x="-115" y="-437" type="line"/>
      <point x="-96" y="-444"/>
      <point x="-33" y="-462"/>
    </contour>
  </outline>
</glyph>
<glyph name="macronbelowcomb" format="2">
  <unicode hex="0331"/>
  <anchor x="385" y="0" name="_bottom"/>
  <anchor x="306" y="-297" name="bottom"/>
  <outline>
    <contour>
      <point x="665" y="-261" type="curve"/>
      <point x="671" y="-237"/>
      <point x="678" y="-209"/>
      <point x="678" y="-202" type="curve"/>
      <point x="517" y="-202"/>
      <point x="59" y="-231"/>
      <point x="-20" y="-243" type="curve"/>
      <point x="-29" y="-252"/>
      <point x="-39" y="-279"/>
      <point x="-43" y="-293" type="curve"/>
      <point x="154" y="-278"/>
      <point x="474" y="-261"/>
    </contour>
  </outline>
</glyph>
<glyph name="strokeshortcomb" format="2">
  <unicode hex="0335"/>
  <anchor x="531" y="573" name="_center"/>
  <outline>
    <contour>
      <point x="891" y="565" type="curve"/>
      <point x="898" y="589"/>
      <point x="904" y="617"/>
      <point x="904" y="624" type="curve"/>
      <point x="743" y="624"/>
      <point x="285" y="595"/>
      <point x="206" y="583" type="curve"/>
      <point x="198" y="574"/>
      <point x="188" y="547"/>
      <point x="184" y="533" type="curve"/>
      <point x="381" y="548"/>
      <point x="700" y="565"/>
    </contour>
  </outline>
</glyph>
<glyph name="slashshortcomb" format="2">
  <unicode hex="0337"/>
  <anchor x="498.304" y="662" name="_center"/>
  <outline>
    <contour>
      <point x="1075" y="1469" type="curve"/>
      <point x="722" y="930"/>
      <point x="196" y="277"/>
      <point x="-166" y="-115" type="curve"/>
      <point x="-153" y="-123"/>
      <point x="-108" y="-139"/>
      <point x="-89" y="-145" type="curve"/>
      <point x="204" y="157"/>
      <point x="717" y="814"/>
      <point x="1151" y="1433" type="curve"/>
      <point x="1138" y="1448"/>
      <point x="1104" y="1462"/>
    </contour>
  </outline>
</glyph>
<glyph name="ecedillabreve" format="2">
  <advance width="1092"/>
  <unicode hex="1E1D"/>
  <anchor x="424" y="10" name="bottom"/>
  <anchor x="612" y="53" name="ogonek"/>
  <anchor x="826" y="1514" name="top"/>
  <outline>
    <contour>
      <point x="368" y="-452" type="curve" smooth="yes"/>
      <point x="565" y="-452"/>
      <point x="718" y="-390"/>
      <point x="718" y="-217" type="curve" smooth="yes"/>
      <point x="718" y="-124"/>
      <point x="653" y="-77"/>
      <point x="557" y="-77" type="curve" smooth="yes"/>
      <point x="509" y="-77"/>
      <point x="444" y="-96"/>
      <point x="425" y="-109" type="curve"/>
      <point x="466" y="49" type="line"/>
      <point x="394" y="53" type="line"/>
      <point x="327" y="-202" type="line"/>
      <point x="370" y="-184"/>
      <point x="472" y="-149"/>
      <point x="530" y="-149" type="curve" smooth="yes"/>
      <point x="602" y="-149"/>
      <point x="628" y="-179"/>
      <point x="628" y="-232" type="curve" smooth="yes"/>
      <point x="628" y="-352"/>
      <point x="518" y="-382"/>
      <point x="372" y="-382" type="curve" smooth="yes"/>
      <point x="321" y="-382"/>
      <point x="247" y="-364"/>
      <point x="209" y="-354" type="curve"/>
      <point x="182" y="-427" type="line"/>
      <point x="201" y="-434"/>
      <point x="264" y="-452"/>
    </contour>
    <component base="e"/>
    <component base="brevecomb" xOffset="145" yOffset="10"/>
  </outline>
</glyph>
<glyph name="Germandbls" format="2">
  <advance width="1197"/>
  <unicode hex="1E9E"/>
  <outline>
    <contour>
      <point x="14" y="2" type="curve"/>
      <point x="34" y="2"/>
      <point x="82" y="7"/>
      <point x="93" y="9" type="curve"/>
      <point x="111" y="103"/>
      <point x="254" y="672"/>
      <point x="324" y="933" type="curve" smooth="yes"/>
      <point x="379" y="1138"/>
      <point x="414" y="1260"/>
      <point x="610" y="1260" type="curve" smooth="yes"/>
      <point x="773" y="1260"/>
      <point x="1042" y="1239"/>
      <point x="1100" y="1229" type="curve"/>
      <point x="991" y="1166"/>
      <point x="648" y="937"/>
      <point x="507" y="817" type="curve"/>
      <point x="507" y="778"/>
      <point x="510" y="740"/>
      <point x="521" y="701" type="curve"/>
      <point x="587" y="714"/>
      <point x="645" y="721"/>
      <point x="694" y="721" type="curve" smooth="yes"/>
      <point x="845" y="721"/>
      <point x="947" y="655"/>
      <point x="947" y="508" type="curve" smooth="yes"/>
      <point x="947" y="284"/>
      <point x="746" y="50"/>
      <point x="526" y="50" type="curve" smooth="yes"/>
      <point x="430" y="50"/>
      <point x="356" y="85"/>
      <point x="316" y="145" type="curve"/>
      <point x="289" y="126"/>
      <point x="254" y="101"/>
      <point x="235" y="80" type="curve"/>
      <point x="267" y="27"/>
      <point x="397" y="-17"/>
      <point x="498" y="-17" type="curve" smooth="yes"/>
      <point x="788" y="-17"/>
      <point x="1039" y="222"/>
      <point x="1039" y="506" type="curve" smooth="yes"/>
      <point x="1039" y="675"/>
      <point x="925" y="797"/>
      <point x="738" y="797" type="curve" smooth="yes"/>
      <point x="680" y="797"/>
      <point x="621" y="790"/>
      <point x="588" y="785" type="curve"/>
      <point x="664" y="851"/>
      <point x="1144" y="1185"/>
      <point x="1192" y="1215" type="curve"/>
      <point x="1197" y="1237"/>
      <point x="1200" y="1268"/>
      <point x="1200" y="1289" type="curve"/>
      <point x="1102" y="1313"/>
      <point x="766" y="1332"/>
      <point x="644" y="1332" type="curve" smooth="yes"/>
      <point x="504" y="1332"/>
      <point x="348" y="1308"/>
      <point x="278" y="1046" type="curve" smooth="yes"/>
      <point x="210" y="792"/>
      <point x="55" y="208"/>
    </contour>
  </outline>
</glyph>
<glyph name="endash" format="2">
  <advance width="1359"/>
  <unicode hex="2013"/>
  <outline>
    <contour>
      <point x="1363" y="730" type="curve"/>
      <point x="1306" y="736"/>
      <point x="1195" y="738"/>
      <point x="1061" y="738" type="curve" smooth="yes"/>
      <point x="784" y="738"/>
      <point x="257" y="731"/>
      <point x="133" y="728" type="curve"/>
      <point x="118" y="657" type="line"/>
      <point x="284" y="662"/>
      <point x="1118" y="668"/>
      <point x="1356" y="668" type="curve"/>
      <point x="1363" y="694"/>
      <point x="1363" y="713"/>
    </contour>
  </outline>
</glyph>
<glyph name="quoteleft" format="2">
  <advance width="533"/>
  <unicode hex="2018"/>
  <outline>
    <contour>
      <point x="539" y="1371" type="curve"/>
      <point x="406" y="1299"/>
      <point x="276" y="1169"/>
      <point x="276" y="1049" type="curve" smooth="yes"/>
      <point x="276" y="976"/>
      <point x="334" y="922"/>
      <point x="416" y="922" type="curve" smooth="yes"/>
      <point x="501" y="922"/>
      <point x="587" y="965"/>
      <point x="587" y="1065" type="curve" smooth="yes"/>
      <point x="587" y="1118"/>
      <point x="556" y="1156"/>
      <point x="495" y="1156" type="curve" smooth="yes"/>
      <point x="428" y="1156"/>
      <point x="369" y="1110"/>
      <point x="346" y="1058" type="curve"/>
      <point x="378" y="1178"/>
      <point x="497" y="1291"/>
      <point x="583" y="1337" type="curve"/>
      <point x="573" y="1354"/>
      <point x="556" y="1364"/>
    </contour>
  </outline>
</glyph>
<glyph name="quoteright" format="2">
  <advance width="515"/>
  <unicode hex="2019"/>
  <outline>
    <contour>
      <point x="362" y="981" type="curve"/>
      <point x="462" y="1056"/>
      <point x="596" y="1169"/>
      <point x="596" y="1307" type="curve" smooth="yes"/>
      <point x="596" y="1377"/>
      <point x="550" y="1426"/>
      <point x="455" y="1426" type="curve" smooth="yes"/>
      <point x="380" y="1426"/>
      <point x="296" y="1363"/>
      <point x="296" y="1291" type="curve" smooth="yes"/>
      <point x="296" y="1242"/>
      <point x="305" y="1181"/>
      <point x="395" y="1181" type="curve" smooth="yes"/>
      <point x="456" y="1181"/>
      <point x="493" y="1211"/>
      <point x="511" y="1229" type="curve"/>
      <point x="486" y="1138"/>
      <point x="374" y="1061"/>
      <point x="315" y="1022" type="curve"/>
      <point x="326" y="1009"/>
      <point x="349" y="987"/>
    </contour>
  </outline>
</glyph>
<glyph name="quotedblleft" format="2">
  <advance width="1007"/>
  <unicode hex="201C"/>
  <outline>
    <contour>
      <point x="845" y="979" type="curve" smooth="yes"/>
      <point x="945" y="979"/>
      <point x="1010" y="1044"/>
      <point x="1010" y="1137" type="curve" smooth="yes"/>
      <point x="1010" y="1180"/>
      <point x="974" y="1208"/>
      <point x="917" y="1208" type="curve" smooth="yes"/>
      <point x="847" y="1208"/>
      <point x="798" y="1163"/>
      <point x="771" y="1109" type="curve"/>
      <point x="772" y="1121"/>
      <point x="773" y="1133"/>
      <point x="776" y="1145" type="curve" smooth="yes"/>
      <point x="803" y="1251"/>
      <point x="936" y="1337"/>
      <point x="996" y="1374" type="curve"/>
      <point x="993" y="1388"/>
      <point x="982" y="1400"/>
      <point x="973" y="1409" type="curve"/>
      <point x="841" y="1329"/>
      <point x="709" y="1204"/>
      <point x="709" y="1086" type="curve" smooth="yes"/>
      <point x="709" y="1022"/>
      <point x="767" y="979"/>
    </contour>
    <contour>
      <point x="446" y="961" type="curve" smooth="yes"/>
      <point x="538" y="961"/>
      <point x="591" y="1032"/>
      <point x="591" y="1121" type="curve" smooth="yes"/>
      <point x="591" y="1169"/>
      <point x="553" y="1202"/>
      <point x="492" y="1202" type="curve" smooth="yes"/>
      <point x="412" y="1202"/>
      <point x="378" y="1150"/>
      <point x="357" y="1111" type="curve"/>
      <point x="357" y="1121"/>
      <point x="359" y="1132"/>
      <point x="361" y="1143" type="curve" smooth="yes"/>
      <point x="375" y="1222"/>
      <point x="469" y="1312"/>
      <point x="571" y="1379" type="curve"/>
      <point x="565" y="1402"/>
      <point x="555" y="1417"/>
      <point x="543" y="1426" type="curve"/>
      <point x="438" y="1338"/>
      <point x="296" y="1214"/>
      <point x="296" y="1089" type="curve" smooth="yes"/>
      <point x="296" y="1019"/>
      <point x="354" y="961"/>
    </contour>
  </outline>
</glyph>
<glyph name="daggerdbl" format="2">
  <advance width="1060"/>
  <unicode hex="2021"/>
  <outline>
    <contour>
      <point x="828" y="162" type="curve"/>
      <point x="835" y="188"/>
      <point x="842" y="218"/>
      <point x="842" y="228" type="curve"/>
      <point x="658" y="228"/>
      <point x="132" y="196"/>
      <point x="41" y="182" type="curve"/>
      <point x="31" y="172"/>
      <point x="20" y="141"/>
      <point x="16" y="126" type="curve"/>
      <point x="242" y="142"/>
      <point x="609" y="162"/>
    </contour>
    <component base="dagger"/>
  </outline>
</glyph>
<glyph name="bullet" format="2">
  <advance width="636"/>
  <unicode hex="2022"/>
  <outline>
    <contour>
      <point x="346" y="597" type="curve" smooth="yes"/>
      <point x="416" y="597"/>
      <point x="494" y="647"/>
      <point x="494" y="732" type="curve" smooth="yes"/>
      <point x="494" y="788"/>
      <point x="462" y="835"/>
      <point x="399" y="835" type="curve" smooth="yes"/>
      <point x="309" y="835"/>
      <point x="244" y="776"/>
      <point x="244" y="691" type="curve" smooth="yes"/>
      <point x="244" y="642"/>
      <point x="272" y="597"/>
    </contour>
  </outline>
</glyph>
<glyph name="ellipsis" format="2">
  <advance width="1544"/>
  <unicode hex="2026"/>
  <outline>
    <contour>
      <point x="611" y="-57" type="curve" smooth="yes"/>
      <point x="694" y="-57"/>
      <point x="761" y="-2"/>
      <point x="761" y="86" type="curve" smooth="yes"/>
      <point x="761" y="145"/>
      <point x="724" y="183"/>
      <point x="663" y="183" type="curve" smooth="yes"/>
      <point x="594" y="183"/>
      <point x="511" y="132"/>
      <point x="511" y="47" type="curve" smooth="yes"/>
      <point x="511" y="-12"/>
      <point x="546" y="-57"/>
    </contour>
    <contour>
      <point x="1170" y="-19" type="curve" smooth="yes"/>
      <point x="1253" y="-19"/>
      <point x="1310" y="28"/>
      <point x="1310" y="97" type="curve" smooth="yes"/>
      <point x="1310" y="151"/>
      <point x="1277" y="194"/>
      <point x="1218" y="194" type="curve" smooth="yes"/>
      <point x="1142" y="194"/>
      <point x="1074" y="140"/>
      <point x="1074" y="67" type="curve" smooth="yes"/>
      <point x="1074" y="25"/>
      <point x="1100" y="-19"/>
    </contour>
    <component base="period"/>
  </outline>
</glyph>
<glyph name="guilsinglleft" format="2">
  <advance width="850"/>
  <unicode hex="2039"/>
  <outline>
    <contour>
      <point x="772" y="1154" type="curve"/>
      <point x="553" y="966"/>
      <point x="331" y="764"/>
      <point x="106" y="557" type="curve"/>
      <point x="263" y="369"/>
      <point x="426" y="195"/>
      <point x="594" y="34" type="curve"/>
      <point x="613" y="52"/>
      <point x="640" y="83"/>
      <point x="647" y="103" type="curve"/>
      <point x="625" y="124"/>
      <point x="387" y="371"/>
      <point x="210" y="558" type="curve"/>
      <point x="828" y="1104" type="line"/>
      <point x="811" y="1122"/>
      <point x="784" y="1147"/>
    </contour>
  </outline>
</glyph>
<glyph name="foursuperior" format="2">
  <advance width="856"/>
  <unicode hex="2074"/>
  <outline>
    <contour>
      <point x="794" y="745" type="curve"/>
      <point x="800" y="770"/>
      <point x="805" y="803"/>
      <point x="805" y="813" type="curve"/>
      <point x="793" y="813"/>
      <point x="689" y="813"/>
      <point x="619" y="808" type="curve"/>
      <point x="668" y="981"/>
      <point x="748" y="1227"/>
      <point x="771" y="1290" type="curve"/>
      <point x="757" y="1291"/>
      <point x="711" y="1291"/>
      <point x="698" y="1291" type="curve"/>
      <point x="629" y="1240"/>
      <point x="275" y="889"/>
      <point x="183" y="777" type="curve"/>
      <point x="178" y="753"/>
      <point x="175" y="719"/>
      <point x="174" y="703" type="curve"/>
      <point x="211" y="707"/>
      <point x="398" y="726"/>
      <point x="528" y="735" type="curve"/>
      <point x="516" y="698"/>
      <point x="476" y="568"/>
      <point x="459" y="493" type="curve"/>
      <point x="486" y="493"/>
      <point x="530" y="496"/>
      <point x="545" y="499" type="curve"/>
      <point x="549" y="517"/>
      <point x="573" y="618"/>
      <point x="603" y="740" type="curve"/>
      <point x="674" y="745"/>
      <point x="756" y="745"/>
    </contour>
    <contour>
      <point x="672" y="1188" type="curve"/>
      <point x="645" y="1128"/>
      <point x="569" y="872"/>
      <point x="549" y="803" type="curve"/>
      <point x="473" y="799"/>
      <point x="306" y="783"/>
      <point x="266" y="777" type="curve"/>
      <point x="290" y="816"/>
      <point x="586" y="1109"/>
    </contour>
  </outline>
</glyph>
<glyph name="sixsuperior" format="2">
  <advance width="900"/>
  <unicode hex="2076"/>
  <outline>
    <contour>
      <point x="823" y="1226" type="curve"/>
      <point x="823" y="1241"/>
      <point x="816" y="1265"/>
      <point x="804" y="1286" type="curve"/>
      <point x="497" y="1175"/>
      <point x="232" y="952"/>
      <point x="232" y="691" type="curve" smooth="yes"/>
      <point x="232" y="577"/>
      <point x="305" y="495"/>
      <point x="458" y="495" type="curve" smooth="yes"/>
      <point x="659" y="495"/>
      <point x="840" y="636"/>
      <point x="840" y="825" type="curve" smooth="yes"/>
      <point x="840" y="933"/>
      <point x="759" y="985"/>
      <point x="649" y="985" type="curve" smooth="yes"/>
      <point x="545" y="985"/>
      <point x="419" y="938"/>
      <point x="348" y="867" type="curve"/>
      <point x="389" y="951"/>
      <point x="548" y="1140"/>
    </contour>
    <contour>
      <point x="381" y="835" type="curve" smooth="yes"/>
      <point x="450" y="887"/>
      <point x="546" y="924"/>
      <point x="644" y="924" type="curve" smooth="yes"/>
      <point x="734" y="924"/>
      <point x="770" y="887"/>
      <point x="770" y="821" type="curve" smooth="yes"/>
      <point x="770" y="675"/>
      <point x="622" y="562"/>
      <point x="473" y="562" type="curve" smooth="yes"/>
      <point x="362" y="562"/>
      <point x="303" y="612"/>
      <point x="303" y="691" type="curve" smooth="yes"/>
      <point x="303" y="756"/>
      <point x="330" y="797"/>
    </contour>
  </outline>
</glyph>
<glyph name="sevensuperior" format="2">
  <advance width="759"/>
  <unicode hex="2077"/>
  <outline>
    <contour>
      <point x="243" y="497" type="curve"/>
      <point x="405" y="724"/>
      <point x="561" y="932"/>
      <point x="926" y="1250" type="curve"/>
      <point x="927" y="1266"/>
      <point x="928" y="1291"/>
      <point x="928" y="1308" type="curve"/>
      <point x="807" y="1308"/>
      <point x="509" y="1264"/>
      <point x="299" y="1226" type="curve"/>
      <point x="296" y="1217"/>
      <point x="288" y="1162"/>
      <point x="287" y="1151" type="curve"/>
      <point x="306" y="1156"/>
      <point x="564" y="1210"/>
      <point x="819" y="1238" type="curve"/>
      <point x="619" y="1092"/>
      <point x="299" y="716"/>
      <point x="164" y="518" type="curve"/>
      <point x="178" y="516"/>
      <point x="232" y="502"/>
    </contour>
  </outline>
</glyph>
<glyph name="ninesuperior" format="2">
  <advance width="818"/>
  <unicode hex="2079"/>
  <outline>
    <contour>
      <point x="555" y="504" type="curve"/>
      <point x="677" y="688"/>
      <point x="806" y="929"/>
      <point x="806" y="1126" type="curve" smooth="yes"/>
      <point x="806" y="1246"/>
      <point x="742" y="1311"/>
      <point x="594" y="1311" type="curve" smooth="yes"/>
      <point x="384" y="1311"/>
      <point x="241" y="1170"/>
      <point x="241" y="964" type="curve" smooth="yes"/>
      <point x="241" y="857"/>
      <point x="293" y="782"/>
      <point x="429" y="782" type="curve" smooth="yes"/>
      <point x="566" y="782"/>
      <point x="644" y="843"/>
      <point x="678" y="880" type="curve"/>
      <point x="639" y="740"/>
      <point x="511" y="553"/>
      <point x="470" y="499" type="curve"/>
      <point x="490" y="499"/>
      <point x="539" y="502"/>
    </contour>
    <contour>
      <point x="593" y="1255" type="curve" smooth="yes"/>
      <point x="693" y="1255"/>
      <point x="737" y="1205"/>
      <point x="737" y="1118" type="curve" smooth="yes"/>
      <point x="737" y="956"/>
      <point x="607" y="844"/>
      <point x="447" y="844" type="curve" smooth="yes"/>
      <point x="352" y="844"/>
      <point x="310" y="892"/>
      <point x="310" y="972" type="curve" smooth="yes"/>
      <point x="310" y="1132"/>
      <point x="424" y="1255"/>
    </contour>
  </outline>
</glyph>
<glyph name="colonsign" format="2">
  <advance width="1137"/>
  <unicode hex="20A1"/>
  <anchor x="397" y="0" name="bottom"/>
  <anchor x="743" y="1291" name="top"/>
  <outline>
    <contour>
      <point x="1125" y="1479" type="line"/>
      <point x="1075" y="1418"/>
      <point x="1015" y="1346"/>
      <point x="957" y="1285" type="curve"/>
      <point x="1022" y="1235" type="line"/>
      <point x="1072" y="1294"/>
      <point x="1136" y="1381"/>
      <point x="1183" y="1450" type="curve"/>
    </contour>
    <contour>
      <point x="1268" y="1437" type="line"/>
      <point x="1205" y="1346"/>
      <point x="1143" y="1263"/>
      <point x="1069" y="1186" type="curve"/>
      <point x="1129" y="1136" type="line"/>
      <point x="1201" y="1218"/>
      <point x="1259" y="1305"/>
      <point x="1313" y="1387" type="curve"/>
    </contour>
    <contour>
      <point x="220" y="167" type="line"/>
      <point x="171" y="106"/>
      <point x="80" y="4"/>
      <point x="21" y="-57" type="curve"/>
      <point x="86" y="-107" type="line"/>
      <point x="136" y="-48"/>
      <point x="229" y="69"/>
      <point x="282" y="138" type="curve"/>
    </contour>
    <contour>
      <point x="317" y="75" type="line"/>
      <point x="253" y="-16"/>
      <point x="206" y="-79"/>
      <point x="143" y="-156" type="curve"/>
      <point x="202" y="-206" type="line"/>
      <point x="264" y="-124"/>
      <point x="327" y="-37"/>
      <point x="381" y="45" type="curve"/>
    </contour>
    <component base="C"/>
  </outline>
</glyph>
<glyph name="franc" format="2">
  <advance width="949"/>
  <unicode hex="20A3"/>
  <anchor x="332.585" y="0.0" name="bottom"/>
  <anchor x="678.507" y="1291.0" name="top"/>
  <outline>
    <contour>
      <point x="3" y="435" type="curve"/>
      <point x="-10" y="373" type="line"/>
      <point x="143" y="373"/>
      <point x="456" y="363"/>
      <point x="548" y="360" type="curve"/>
      <point x="570" y="422" type="line"/>
      <point x="477" y="425"/>
      <point x="156" y="435"/>
    </contour>
    <component base="F"/>
  </outline>
</glyph>
<glyph name="peseta" format="2">
  <advance width="1040"/>
  <unicode hex="20A7"/>
  <outline>
    <contour>
      <point x="1056" y="871" type="curve"/>
      <point x="1063" y="895"/>
      <point x="1069" y="923"/>
      <point x="1069" y="930" type="curve"/>
      <point x="908" y="930"/>
      <point x="275" y="917"/>
      <point x="196" y="909" type="curve"/>
      <point x="188" y="900"/>
      <point x="178" y="873"/>
      <point x="174" y="859" type="curve"/>
      <point x="368" y="864"/>
      <point x="865" y="871"/>
    </contour>
    <component base="pescomb"/>
  </outline>
</glyph>
<glyph name="peso" format="2">
  <advance width="1040"/>
  <unicode hex="20B1"/>
  <outline>
    <contour>
      <point x="207" y="1043" type="curve"/>
      <point x="180" y="964" type="line"/>
      <point x="369" y="964"/>
      <point x="934" y="964"/>
      <point x="1115" y="964" type="curve"/>
      <point x="1131" y="1036" type="line"/>
      <point x="949" y="1036"/>
      <point x="394" y="1039"/>
    </contour>
    <contour>
      <point x="137" y="798" type="curve"/>
      <point x="117" y="740" type="line"/>
      <point x="308" y="734"/>
      <point x="878" y="722"/>
      <point x="1063" y="722" type="curve"/>
      <point x="1087" y="790" type="line"/>
      <point x="902" y="790"/>
      <point x="329" y="794"/>
    </contour>
    <component base="pescomb"/>
  </outline>
</glyph>
<glyph name="rupeeIndian" format="2">
  <advance width="1094"/>
  <unicode hex="20B9"/>
  <outline>
    <contour>
      <point x="661" y="-37" type="curve"/>
      <point x="682" y="-36"/>
      <point x="723" y="-15"/>
      <point x="746" y="0" type="curve"/>
      <point x="712" y="197"/>
      <point x="460" y="496"/>
      <point x="242" y="547" type="curve"/>
      <point x="573" y="547"/>
      <point x="892" y="692"/>
      <point x="892" y="1037" type="curve" smooth="yes"/>
      <point x="892" y="1260"/>
      <point x="733" y="1317"/>
      <point x="513" y="1317" type="curve" smooth="yes"/>
      <point x="439" y="1317"/>
      <point x="372" y="1316"/>
      <point x="329" y="1310" type="curve"/>
      <point x="326" y="1239" type="line"/>
      <point x="363" y="1246"/>
      <point x="421" y="1253"/>
      <point x="488" y="1253" type="curve" smooth="yes"/>
      <point x="620" y="1253"/>
      <point x="811" y="1215"/>
      <point x="811" y="1016" type="curve" smooth="yes"/>
      <point x="811" y="722"/>
      <point x="507" y="633"/>
      <point x="158" y="589" type="curve"/>
      <point x="141" y="524" type="line"/>
      <point x="386" y="432"/>
      <point x="639" y="163"/>
    </contour>
    <contour>
      <point x="239" y="894" type="line"/>
      <point x="445" y="912"/>
      <point x="767" y="913"/>
      <point x="1023" y="913" type="curve"/>
      <point x="1041" y="978" type="line"/>
      <point x="974" y="983"/>
      <point x="859" y="987"/>
      <point x="739" y="987" type="curve" smooth="yes"/>
      <point x="580" y="987"/>
      <point x="399" y="980"/>
      <point x="261" y="959" type="curve"/>
    </contour>
    <contour>
      <point x="326" y="1239" type="line"/>
      <point x="496" y="1260"/>
      <point x="920" y="1267"/>
      <point x="1102" y="1267" type="curve"/>
      <point x="1113" y="1327" type="line"/>
      <point x="878" y="1327"/>
      <point x="407" y="1321"/>
      <point x="329" y="1310" type="curve"/>
    </contour>
  </outline>
</glyph>
<glyph name="liraTurkish" format="2">
  <advance width="990"/>
  <unicode hex="20BA"/>
  <outline>
    <contour>
      <point x="108" y="2" type="curve"/>
      <point x="220" y="2"/>
      <point x="317" y="4"/>
      <point x="424" y="10" type="curve" smooth="yes"/>
      <point x="523" y="16"/>
      <point x="792" y="69"/>
      <point x="886" y="420" type="curve"/>
      <point x="867" y="422"/>
      <point x="834" y="425"/>
      <point x="809" y="425" type="curve"/>
      <point x="738" y="161"/>
      <point x="570" y="97"/>
      <point x="445" y="90" type="curve" smooth="yes"/>
      <point x="372" y="86"/>
      <point x="270" y="85"/>
      <point x="226" y="85" type="curve"/>
      <point x="240" y="130"/>
      <point x="266" y="225"/>
      <point x="299" y="347" type="curve" smooth="yes"/>
      <point x="375" y="628"/>
      <point x="481" y="1049"/>
      <point x="530" y="1292" type="curve"/>
      <point x="524" y="1293"/>
      <point x="501" y="1296"/>
      <point x="481" y="1296" type="curve" smooth="yes"/>
      <point x="473" y="1296"/>
      <point x="461" y="1295"/>
      <point x="454" y="1294" type="curve"/>
      <point x="421" y="1152"/>
      <point x="351" y="884"/>
      <point x="281" y="624" type="curve" smooth="yes"/>
      <point x="211" y="364"/>
      <point x="142" y="112"/>
    </contour>
    <contour>
      <point x="823" y="1017" type="curve"/>
      <point x="663" y="976"/>
      <point x="245" y="877"/>
      <point x="135" y="854" type="curve"/>
      <point x="131" y="836"/>
      <point x="127" y="798"/>
      <point x="127" y="787" type="curve"/>
      <point x="243" y="805"/>
      <point x="725" y="919"/>
      <point x="806" y="950" type="curve"/>
      <point x="812" y="973"/>
      <point x="819" y="1000"/>
    </contour>
    <contour>
      <point x="692" y="699" type="curve"/>
      <point x="530" y="663"/>
      <point x="169" y="596"/>
      <point x="60" y="576" type="curve"/>
      <point x="56" y="558"/>
      <point x="50" y="515"/>
      <point x="50" y="498" type="curve"/>
      <point x="200" y="539"/>
      <point x="564" y="610"/>
      <point x="681" y="631" type="curve"/>
      <point x="684" y="639"/>
      <point x="692" y="687"/>
    </contour>
  </outline>
</glyph>
<glyph name="emptyset" format="2">
  <advance width="1400"/>
  <unicode hex="2205"/>
  <outline>
    <contour>
      <point x="539" y="-51" type="curve" smooth="yes"/>
      <point x="1018" y="-51"/>
      <point x="1299" y="348"/>
      <point x="1299" y="857" type="curve" smooth="yes"/>
      <point x="1299" y="1154"/>
      <point x="1174" y="1320"/>
      <point x="877" y="1320" type="curve" smooth="yes"/>
      <point x="424" y="1320"/>
      <point x="108" y="921"/>
      <point x="108" y="459" type="curve" smooth="yes"/>
      <point x="108" y="184"/>
      <point x="247" y="-51"/>
    </contour>
    <contour>
      <point x="531" y="27" type="curve" smooth="yes"/>
      <point x="304" y="27"/>
      <point x="198" y="239"/>
      <point x="198" y="472" type="curve" smooth="yes"/>
      <point x="198" y="884"/>
      <point x="466" y="1239"/>
      <point x="872" y="1239" type="curve" smooth="yes"/>
      <point x="1115" y="1239"/>
      <point x="1218" y="1079"/>
      <point x="1218" y="837" type="curve" smooth="yes"/>
      <point x="1218" y="392"/>
      <point x="952" y="27"/>
    </contour>
    <contour>
      <point x="1399" y="1321" type="curve"/>
      <point x="923" y="844"/>
      <point x="316" y="356"/>
      <point x="-112" y="50" type="curve"/>
      <point x="-103" y="38"/>
      <point x="-65" y="4"/>
      <point x="-50" y="-7" type="curve"/>
      <point x="287" y="233"/>
      <point x="906" y="728"/>
      <point x="1467" y="1256" type="curve"/>
      <point x="1459" y="1275"/>
      <point x="1423" y="1306"/>
    </contour>
  </outline>
</glyph>
<glyph name="minus" format="2">
  <advance width="900"/>
  <unicode hex="2212"/>
  <outline>
    <contour>
      <point x="878" y="732" type="curve"/>
      <point x="798" y="732"/>
      <point x="249" y="719"/>
      <point x="118" y="715" type="curve"/>
      <point x="114" y="697"/>
      <point x="110" y="671"/>
      <point x="109" y="654" type="curve"/>
      <point x="246" y="657"/>
      <point x="716" y="667"/>
      <point x="860" y="670" type="curve"/>
      <point x="865" y="685"/>
      <point x="873" y="713"/>
    </contour>
  </outline>
</glyph>
<glyph name="approxequal" format="2">
  <advance width="1200"/>
  <unicode hex="2248"/>
  <outline>
    <contour>
      <point x="182" y="684" type="curve"/>
      <point x="188" y="674"/>
      <point x="228" y="650"/>
      <point x="238" y="644" type="curve"/>
      <point x="300" y="723"/>
      <point x="418" y="834"/>
      <point x="520" y="834" type="curve" smooth="yes"/>
      <point x="566" y="834"/>
      <point x="597" y="792"/>
      <point x="631" y="743" type="curve" smooth="yes"/>
      <point x="672" y="685"/>
      <point x="723" y="619"/>
      <point x="815" y="619" type="curve" smooth="yes"/>
      <point x="951" y="619"/>
      <point x="1075" y="755"/>
      <point x="1103" y="798" type="curve"/>
      <point x="1097" y="806"/>
      <point x="1049" y="822"/>
      <point x="1034" y="827" type="curve"/>
      <point x="994" y="757"/>
      <point x="908" y="692"/>
      <point x="826" y="692" type="curve" smooth="yes"/>
      <point x="759" y="692"/>
      <point x="726" y="738"/>
      <point x="692" y="787" type="curve" smooth="yes"/>
      <point x="654" y="842"/>
      <point x="611" y="901"/>
      <point x="516" y="901" type="curve" smooth="yes"/>
      <point x="378" y="901"/>
      <point x="239" y="759"/>
    </contour>
    <contour>
      <point x="77" y="396" type="curve"/>
      <point x="84" y="386"/>
      <point x="115" y="365"/>
      <point x="126" y="358" type="curve"/>
      <point x="185" y="439"/>
      <point x="332" y="519"/>
      <point x="434" y="519" type="curve" smooth="yes"/>
      <point x="485" y="519"/>
      <point x="525" y="484"/>
      <point x="566" y="445" type="curve" smooth="yes"/>
      <point x="613" y="401"/>
      <point x="668" y="353"/>
      <point x="748" y="353" type="curve" smooth="yes"/>
      <point x="889" y="353"/>
      <point x="1045" y="489"/>
      <point x="1072" y="534" type="curve"/>
      <point x="1065" y="541"/>
      <point x="1025" y="565"/>
      <point x="1010" y="570" type="curve"/>
      <point x="972" y="496"/>
      <point x="840" y="429"/>
      <point x="756" y="429" type="curve" smooth="yes"/>
      <point x="692" y="429"/>
      <point x="652" y="462"/>
      <point x="610" y="503" type="curve" smooth="yes"/>
      <point x="566" y="546"/>
      <point x="514" y="586"/>
      <point x="428" y="586" type="curve" smooth="yes"/>
      <point x="284" y="586"/>
      <point x="143" y="476"/>
    </contour>
  </outline>
</glyph>
<glyph name="A.ss02" format="2">
  <advance width="998"/>
  <anchor x="387" y="0" name="bottom"/>
  <anchor x="918" y="-5" name="ogonek"/>
  <anchor x="748" y="1323" name="top"/>
  <outline>
    <contour>
      <point x="-31" y="5" type="curve"/>
      <point x="1" y="64"/>
      <point x="142" y="331"/>
      <point x="272" y="542" type="curve"/>
      <point x="366" y="558"/>
      <point x="662" y="582"/>
      <point x="757" y="582" type="curve"/>
      <point x="762" y="459"/>
      <point x="753" y="60"/>
      <point x="745" y="5" type="curve"/>
      <point x="764" y="9"/>
      <point x="809" y="25"/>
      <point x="835" y="33" type="curve"/>
      <point x="864" y="280"/>
      <point x="844" y="1025"/>
      <point x="758" y="1349" type="curve"/>
      <point x="479" y="1018"/>
      <point x="170" y="559"/>
      <point x="-113" y="33" type="curve"/>
      <point x="-101" y="23"/>
      <point x="-46" y="6"/>
    </contour>
    <contour>
      <point x="318" y="613" type="curve"/>
      <point x="433" y="788"/>
      <point x="639" y="1087"/>
      <point x="711" y="1184" type="curve"/>
      <point x="735" y="1057"/>
      <point x="759" y="781"/>
      <point x="760" y="653" type="curve"/>
      <point x="641" y="650"/>
      <point x="411" y="631"/>
    </contour>
  </outline>
</glyph>
<glyph name="E_E" format="2">
  <advance width="1949"/>
  <anchor x="389" y="0" name="bottom"/>
  <anchor x="844" y="0" name="caret_1"/>
  <anchor x="633" y="12" name="ogonek"/>
  <anchor x="670" y="1327" name="top"/>
  <anchor x="212" y="1284" name="topleft"/>
  <outline>
    <contour>
      <point x="1603" y="-7" type="curve"/>
      <point x="1616" y="7"/>
      <point x="1632" y="42"/>
      <point x="1641" y="68" type="curve"/>
      <point x="1594" y="72"/>
      <point x="1480" y="80"/>
      <point x="1382" y="80" type="curve" smooth="yes"/>
      <point x="1295" y="80"/>
      <point x="1114" y="80"/>
      <point x="1074" y="80" type="curve"/>
      <point x="1075" y="88"/>
      <point x="1079" y="106"/>
      <point x="1085" y="126" type="curve" smooth="yes"/>
      <point x="1124" y="256"/>
      <point x="1227" y="604"/>
      <point x="1246" y="674" type="curve"/>
      <point x="1260" y="674"/>
      <point x="1297" y="675"/>
      <point x="1382" y="675" type="curve" smooth="yes"/>
      <point x="1476" y="675"/>
      <point x="1743" y="672"/>
      <point x="1830" y="663" type="curve"/>
      <point x="1832" y="665"/>
      <point x="1836" y="677"/>
      <point x="1840" y="689" type="curve" smooth="yes"/>
      <point x="1845" y="705"/>
      <point x="1847" y="718"/>
      <point x="1847" y="728" type="curve"/>
      <point x="1721" y="739"/>
      <point x="1410" y="748"/>
      <point x="1267" y="748" type="curve"/>
      <point x="1287" y="827"/>
      <point x="1377" y="1127"/>
      <point x="1389" y="1151" type="curve"/>
      <point x="1508" y="1166"/>
      <point x="1802" y="1181"/>
      <point x="2006" y="1181" type="curve"/>
      <point x="2022" y="1204"/>
      <point x="2033" y="1231"/>
      <point x="2039" y="1248" type="curve"/>
      <point x="2027" y="1250"/>
      <point x="1959" y="1254"/>
      <point x="1864" y="1254" type="curve" smooth="yes"/>
      <point x="1745" y="1254"/>
      <point x="1566" y="1246"/>
      <point x="1317" y="1210" type="curve"/>
      <point x="1267" y="1084"/>
      <point x="1057" y="393"/>
      <point x="955" y="10" type="curve"/>
      <point x="1248" y="7"/>
      <point x="1458" y="0"/>
    </contour>
    <contour>
      <point x="746" y="9" type="curve"/>
      <point x="755" y="27"/>
      <point x="767" y="58"/>
      <point x="776" y="86" type="curve"/>
      <point x="701" y="88"/>
      <point x="516" y="86"/>
      <point x="358" y="78" type="curve" smooth="yes"/>
      <point x="305" y="76"/>
      <point x="218" y="70"/>
      <point x="177" y="66" type="curve"/>
      <point x="209" y="214"/>
      <point x="299" y="632"/>
      <point x="311" y="687" type="curve"/>
      <point x="397" y="694"/>
      <point x="816" y="716"/>
      <point x="866" y="719" type="curve"/>
      <point x="874" y="797" type="line"/>
      <point x="782" y="792"/>
      <point x="401" y="761"/>
      <point x="327" y="755" type="curve"/>
      <point x="346" y="841"/>
      <point x="407" y="1111"/>
      <point x="431" y="1200" type="curve"/>
      <point x="1032" y="1278" type="line"/>
      <point x="1040" y="1305"/>
      <point x="1044" y="1320"/>
      <point x="1052" y="1353" type="curve"/>
      <point x="997" y="1350"/>
      <point x="706" y="1316"/>
      <point x="357" y="1251" type="curve"/>
      <point x="336" y="1178"/>
      <point x="280" y="942"/>
      <point x="201" y="571" type="curve" smooth="yes"/>
      <point x="161" y="387"/>
      <point x="120" y="184"/>
      <point x="85" y="-13" type="curve"/>
      <point x="149" y="-8"/>
      <point x="231" y="-3"/>
      <point x="293" y="0" type="curve" smooth="yes"/>
      <point x="453" y="8"/>
      <point x="591" y="10"/>
    </contour>
  </outline>
</glyph>
<glyph name="F_F" format="2">
  <advance width="1848"/>
  <anchor x="765" y="0" name="caret_1"/>
  <anchor x="332.585" y="0.0" name="bottom"/>
  <anchor x="678.507" y="1291.0" name="top"/>
  <outline>
    <contour>
      <point x="1028" y="-5" type="line"/>
      <point x="1060" y="93"/>
      <point x="1127" y="300"/>
      <point x="1182" y="520" type="curve" smooth="yes"/>
      <point x="1188" y="544"/>
      <point x="1194" y="567"/>
      <point x="1201" y="591" type="curve"/>
      <point x="1371" y="591"/>
      <point x="1607" y="544"/>
      <point x="1668" y="528" type="curve"/>
      <point x="1673" y="546"/>
      <point x="1682" y="589"/>
      <point x="1683" y="595" type="curve"/>
      <point x="1674" y="600"/>
      <point x="1518" y="641"/>
      <point x="1220" y="667" type="curve"/>
      <point x="1262" y="824"/>
      <point x="1303" y="989"/>
      <point x="1334" y="1146" type="curve"/>
      <point x="1500" y="1141"/>
      <point x="1857" y="1085"/>
      <point x="1879" y="1081" type="curve"/>
      <point x="1885" y="1102"/>
      <point x="1895" y="1146"/>
      <point x="1898" y="1171" type="curve"/>
      <point x="1699" y="1200"/>
      <point x="1480" y="1227"/>
      <point x="1262" y="1227" type="curve"/>
      <point x="1205" y="973"/>
      <point x="1153" y="750"/>
      <point x="1091" y="519" type="curve" smooth="yes"/>
      <point x="1048" y="358"/>
      <point x="1001" y="193"/>
      <point x="942" y="15" type="curve"/>
    </contour>
    <component base="F"/>
  </outline>
</glyph>
<glyph name="G_G" format="2">
  <advance width="2541"/>
  <anchor x="1266" y="0" name="caret_1"/>
  <anchor x="1761.585" y="0.0" name="bottom"/>
  <anchor x="2107.507" y="1291.0" name="top"/>
  <outline>
    <contour>
      <point x="557" y="-52" type="curve" smooth="yes"/>
      <point x="919" y="-52"/>
      <point x="1105" y="110"/>
      <point x="1202" y="469" type="curve" smooth="yes"/>
      <point x="1223" y="547"/>
      <point x="1240" y="642"/>
      <point x="1252" y="727" type="curve"/>
      <point x="1195" y="730"/>
      <point x="1135" y="731"/>
      <point x="1074" y="731" type="curve" smooth="yes"/>
      <point x="941" y="731"/>
      <point x="807" y="725"/>
      <point x="696" y="716" type="curve"/>
      <point x="692" y="701"/>
      <point x="680" y="653"/>
      <point x="676" y="629" type="curve"/>
      <point x="743" y="635"/>
      <point x="838" y="637"/>
      <point x="927" y="637" type="curve" smooth="yes"/>
      <point x="1022" y="637"/>
      <point x="1110" y="635"/>
      <point x="1148" y="633" type="curve"/>
      <point x="1146" y="610"/>
      <point x="1139" y="577"/>
      <point x="1131" y="548" type="curve" smooth="yes"/>
      <point x="1035" y="200"/>
      <point x="935" y="33"/>
      <point x="575" y="33" type="curve" smooth="yes"/>
      <point x="297" y="33"/>
      <point x="198" y="186"/>
      <point x="198" y="434" type="curve" smooth="yes"/>
      <point x="198" y="896"/>
      <point x="476" y="1212"/>
      <point x="927" y="1212" type="curve" smooth="yes"/>
      <point x="1041" y="1212"/>
      <point x="1147" y="1182"/>
      <point x="1215" y="1068" type="curve"/>
      <point x="1234" y="1083"/>
      <point x="1266" y="1119"/>
      <point x="1278" y="1136" type="curve"/>
      <point x="1251" y="1209"/>
      <point x="1104" y="1288"/>
      <point x="903" y="1288" type="curve" smooth="yes"/>
      <point x="422" y="1288"/>
      <point x="107" y="919"/>
      <point x="107" y="420" type="curve" smooth="yes"/>
      <point x="107" y="131"/>
      <point x="234" y="-52"/>
    </contour>
    <component base="G" xOffset="1266"/>
  </outline>
</glyph>
<glyph name="M_M" format="2">
  <advance width="2720"/>
  <anchor x="1265" y="0" name="caret_1"/>
  <anchor x="1872" y="0" name="bottom"/>
  <anchor x="2218" y="1291" name="top"/>
  <outline>
    <contour>
      <point x="92" y="-9" type="curve"/>
      <point x="113" y="-9"/>
      <point x="160" y="-7"/>
      <point x="198" y="0" type="curve"/>
      <point x="218" y="161"/>
      <point x="306" y="664"/>
      <point x="389" y="1029" type="curve"/>
      <point x="399" y="743"/>
      <point x="476" y="129"/>
      <point x="489" y="29" type="curve"/>
      <point x="526" y="20"/>
      <point x="568" y="19"/>
      <point x="608" y="19" type="curve"/>
      <point x="673" y="103"/>
      <point x="1108" y="865"/>
      <point x="1220" y="1103" type="curve"/>
      <point x="1177" y="799"/>
      <point x="1114" y="375"/>
      <point x="1023" y="42" type="curve"/>
      <point x="1060" y="37"/>
      <point x="1081" y="37"/>
      <point x="1120" y="37" type="curve"/>
      <point x="1203" y="345"/>
      <point x="1316" y="1029"/>
      <point x="1316" y="1297" type="curve"/>
      <point x="1280" y="1297"/>
      <point x="1262" y="1297"/>
      <point x="1227" y="1297" type="curve"/>
      <point x="1193" y="1218"/>
      <point x="853" y="584"/>
      <point x="570" y="115" type="curve"/>
      <point x="557" y="282"/>
      <point x="466" y="1192"/>
      <point x="460" y="1210" type="curve"/>
      <point x="448" y="1210"/>
      <point x="366" y="1200"/>
      <point x="347" y="1195" type="curve"/>
      <point x="296" y="1043"/>
      <point x="150" y="323"/>
    </contour>
    <component base="M" xOffset="1341"/>
  </outline>
</glyph>
<glyph name="N_N" format="2">
  <advance width="2531"/>
  <anchor x="1212" y="0" name="caret_1"/>
  <anchor x="498.585" y="0.0" name="bottom"/>
  <anchor x="844.507" y="1291.0" name="top"/>
  <outline>
    <contour>
      <point x="1377" y="-3" type="curve"/>
      <point x="1411" y="-3"/>
      <point x="1452" y="0"/>
      <point x="1491" y="10" type="curve"/>
      <point x="1561" y="272"/>
      <point x="1753" y="1099"/>
      <point x="1753" y="1108" type="curve"/>
      <point x="1807" y="959"/>
      <point x="2049" y="182"/>
      <point x="2088" y="47" type="curve"/>
      <point x="2112" y="43"/>
      <point x="2143" y="39"/>
      <point x="2184" y="39" type="curve"/>
      <point x="2212" y="84"/>
      <point x="2273" y="279"/>
      <point x="2333" y="501" type="curve" smooth="yes"/>
      <point x="2393" y="724"/>
      <point x="2451" y="975"/>
      <point x="2471" y="1130" type="curve"/>
      <point x="2449" y="1140"/>
      <point x="2420" y="1149"/>
      <point x="2377" y="1149" type="curve"/>
      <point x="2151" y="188" type="line"/>
      <point x="2079" y="458"/>
      <point x="1946" y="861"/>
      <point x="1812" y="1217" type="curve"/>
      <point x="1773" y="1217"/>
      <point x="1709" y="1207"/>
      <point x="1678" y="1200" type="curve"/>
      <point x="1662" y="1134"/>
      <point x="1475" y="364"/>
    </contour>
    <component base="N"/>
  </outline>
</glyph>
<glyph name="P_P" format="2">
  <advance width="1930"/>
  <anchor x="849" y="0" name="caret_1"/>
  <anchor x="362.585" y="0.0" name="bottom"/>
  <anchor x="708.507" y="1291.0" name="top"/>
  <outline>
    <contour>
      <point x="1052" y="-8" type="curve"/>
      <point x="1077" y="-5"/>
      <point x="1124" y="-4"/>
      <point x="1141" y="-4" type="curve"/>
      <point x="1195" y="211"/>
      <point x="1248" y="450"/>
      <point x="1270" y="561" type="curve"/>
      <point x="1634" y="561"/>
      <point x="1956" y="653"/>
      <point x="1956" y="998" type="curve" smooth="yes"/>
      <point x="1956" y="1135"/>
      <point x="1864" y="1190"/>
      <point x="1700" y="1190" type="curve" smooth="yes"/>
      <point x="1569" y="1190"/>
      <point x="1422" y="1165"/>
      <point x="1311" y="1141" type="curve"/>
      <point x="1172" y="559"/>
      <point x="1061" y="59"/>
    </contour>
    <contour>
      <point x="1284" y="629" type="curve"/>
      <point x="1290" y="665"/>
      <point x="1373" y="1030"/>
      <point x="1385" y="1077" type="curve"/>
      <point x="1436" y="1086"/>
      <point x="1595" y="1113"/>
      <point x="1699" y="1113" type="curve" smooth="yes"/>
      <point x="1823" y="1113"/>
      <point x="1867" y="1050"/>
      <point x="1867" y="978" type="curve" smooth="yes"/>
      <point x="1867" y="699"/>
      <point x="1559" y="629"/>
    </contour>
    <component base="P"/>
  </outline>
</glyph>
<glyph name="Q.ss01" format="2">
  <advance width="1291"/>
  <anchor x="503.585" y="0" name="bottom"/>
  <anchor x="849.507" y="1291" name="top"/>
  <outline>
    <contour>
      <point x="957" y="-169" type="curve"/>
      <point x="980" y="-159"/>
      <point x="1034" y="-103"/>
      <point x="1046" y="-89" type="curve"/>
      <point x="970" y="-44"/>
      <point x="889" y="76"/>
      <point x="860" y="144" type="curve"/>
      <point x="1049" y="295"/>
      <point x="1178" y="615"/>
      <point x="1178" y="870" type="curve" smooth="yes"/>
      <point x="1178" y="1110"/>
      <point x="1064" y="1299"/>
      <point x="820" y="1299" type="curve" smooth="yes"/>
      <point x="457" y="1299"/>
      <point x="163" y="812"/>
      <point x="163" y="401" type="curve" smooth="yes"/>
      <point x="163" y="176"/>
      <point x="261" y="-10"/>
      <point x="484" y="-10" type="curve" smooth="yes"/>
      <point x="586" y="-10"/>
      <point x="696" y="16"/>
      <point x="788" y="90" type="curve"/>
      <point x="822" y="-20"/>
      <point x="897" y="-118"/>
    </contour>
    <contour>
      <point x="517" y="74" type="curve" smooth="yes"/>
      <point x="331" y="74"/>
      <point x="251" y="229"/>
      <point x="251" y="417" type="curve" smooth="yes"/>
      <point x="251" y="769"/>
      <point x="498" y="1210"/>
      <point x="809" y="1210" type="curve" smooth="yes"/>
      <point x="1033" y="1210"/>
      <point x="1093" y="1024"/>
      <point x="1093" y="856" type="curve" smooth="yes"/>
      <point x="1093" y="500"/>
      <point x="825" y="74"/>
    </contour>
  </outline>
</glyph>
<glyph name="R_R" format="2">
  <advance width="2161"/>
  <anchor x="969" y="0" name="caret_1"/>
  <anchor x="404.585" y="0.0" name="bottom"/>
  <anchor x="686" y="1321" name="top"/>
  <outline>
    <contour>
      <point x="1747" y="-8" type="curve"/>
      <point x="1767" y="-8"/>
      <point x="1826" y="-2"/>
      <point x="1849" y="10" type="curve"/>
      <point x="1849" y="227"/>
      <point x="1847" y="573"/>
      <point x="1842" y="672" type="curve"/>
      <point x="2007" y="724"/>
      <point x="2131" y="881"/>
      <point x="2131" y="1063" type="curve" smooth="yes"/>
      <point x="2131" y="1279"/>
      <point x="1921" y="1313"/>
      <point x="1585" y="1313" type="curve" smooth="yes"/>
      <point x="1565" y="1313"/>
      <point x="1546" y="1313"/>
      <point x="1526" y="1312" type="curve"/>
      <point x="1376" y="841"/>
      <point x="1230" y="348"/>
      <point x="1133" y="20" type="curve"/>
      <point x="1162" y="12"/>
      <point x="1208" y="5"/>
      <point x="1230" y="5" type="curve"/>
      <point x="1253" y="89"/>
      <point x="1397" y="587"/>
      <point x="1408" y="623" type="curve"/>
      <point x="1454" y="623"/>
      <point x="1692" y="633"/>
      <point x="1765" y="660" type="curve"/>
      <point x="1765" y="559"/>
      <point x="1753" y="159"/>
    </contour>
    <contour>
      <point x="1502" y="693" type="curve" smooth="yes"/>
      <point x="1481" y="693"/>
      <point x="1449" y="693"/>
      <point x="1429" y="693" type="curve"/>
      <point x="1443" y="741"/>
      <point x="1565" y="1173"/>
      <point x="1579" y="1239" type="curve"/>
      <point x="1607" y="1239"/>
      <point x="1716" y="1236"/>
      <point x="1758" y="1233" type="curve" smooth="yes"/>
      <point x="1900" y="1223"/>
      <point x="2056" y="1208"/>
      <point x="2056" y="1055" type="curve" smooth="yes"/>
      <point x="2056" y="800"/>
      <point x="1777" y="693"/>
    </contour>
    <component base="R"/>
  </outline>
</glyph>
<glyph name="S_S" format="2">
  <advance width="2235"/>
  <anchor x="1088" y="0" name="caret_1"/>
  <anchor x="1563" y="0" name="bottom"/>
  <anchor x="1821" y="1317" name="top"/>
  <outline>
    <contour>
      <point x="486" y="10" type="curve" smooth="yes"/>
      <point x="799" y="10"/>
      <point x="1033" y="169"/>
      <point x="1033" y="447" type="curve" smooth="yes"/>
      <point x="1033" y="624"/>
      <point x="862" y="734"/>
      <point x="630" y="799" type="curve" smooth="yes"/>
      <point x="513" y="832"/>
      <point x="393" y="888"/>
      <point x="393" y="1010" type="curve" smooth="yes"/>
      <point x="393" y="1174"/>
      <point x="538" y="1238"/>
      <point x="723" y="1238" type="curve" smooth="yes"/>
      <point x="983" y="1238"/>
      <point x="1099" y="1142"/>
      <point x="1129" y="1117" type="curve"/>
      <point x="1141" y="1132"/>
      <point x="1168" y="1176"/>
      <point x="1175" y="1191" type="curve"/>
      <point x="1145" y="1216"/>
      <point x="983" y="1309"/>
      <point x="747" y="1309" type="curve" smooth="yes"/>
      <point x="497" y="1309"/>
      <point x="303" y="1220"/>
      <point x="303" y="985" type="curve" smooth="yes"/>
      <point x="303" y="855"/>
      <point x="420" y="766"/>
      <point x="614" y="715" type="curve" smooth="yes"/>
      <point x="810" y="664"/>
      <point x="941" y="568"/>
      <point x="941" y="431" type="curve" smooth="yes"/>
      <point x="941" y="223"/>
      <point x="734" y="91"/>
      <point x="496" y="91" type="curve" smooth="yes"/>
      <point x="260" y="91"/>
      <point x="153" y="176"/>
      <point x="87" y="296" type="curve"/>
      <point x="58" y="279"/>
      <point x="20" y="253"/>
      <point x="3" y="240" type="curve"/>
      <point x="45" y="153"/>
      <point x="151" y="10"/>
    </contour>
    <component base="S" xOffset="1083"/>
  </outline>
</glyph>
<glyph name="T_T" format="2">
  <advance width="1951"/>
  <anchor x="905" y="0" name="caret_1"/>
  <anchor x="407" y="0" name="bottom"/>
  <anchor x="550.68" y="646.0" name="center"/>
  <anchor x="723.507" y="1291.0" name="top"/>
  <outline>
    <contour>
      <point x="1205" y="1216" type="curve"/>
      <point x="1259" y="1218"/>
      <point x="1452" y="1223"/>
      <point x="1570" y="1223" type="curve"/>
      <point x="1517" y="1045"/>
      <point x="1355" y="443"/>
      <point x="1242" y="20" type="curve"/>
      <point x="1260" y="20"/>
      <point x="1326" y="21"/>
      <point x="1344" y="24" type="curve"/>
      <point x="1352" y="86"/>
      <point x="1607" y="1047"/>
      <point x="1653" y="1219" type="curve"/>
      <point x="1787" y="1219"/>
      <point x="2067" y="1195"/>
      <point x="2090" y="1193" type="curve"/>
      <point x="2098" y="1217"/>
      <point x="2107" y="1253"/>
      <point x="2107" y="1269" type="curve"/>
      <point x="1991" y="1285"/>
      <point x="1650" y="1299"/>
      <point x="1222" y="1299" type="curve"/>
      <point x="1216" y="1272"/>
      <point x="1209" y="1240"/>
    </contour>
    <component base="T"/>
  </outline>
</glyph>
<glyph name="V.ss02" format="2">
  <advance width="1166"/>
  <anchor x="434" y="0" name="bottom"/>
  <anchor x="804" y="1291" name="top"/>
  <outline>
    <contour>
      <point x="402" y="-49" type="curve"/>
      <point x="561" y="223"/>
      <point x="1129" y="1082"/>
      <point x="1265" y="1286" type="curve"/>
      <point x="1254" y="1295"/>
      <point x="1202" y="1314"/>
      <point x="1187" y="1319" type="curve"/>
      <point x="1106" y="1216"/>
      <point x="553" y="366"/>
      <point x="452" y="181" type="curve"/>
      <point x="420" y="414"/>
      <point x="404" y="1250"/>
      <point x="404" y="1361" type="curve"/>
      <point x="375" y="1354"/>
      <point x="326" y="1334"/>
      <point x="309" y="1327" type="curve"/>
      <point x="309" y="1173"/>
      <point x="340" y="93"/>
    </contour>
  </outline>
</glyph>
<glyph name="acutecomb.case" format="2">
  <anchor x="445" y="1261" name="_top"/>
  <anchor x="574" y="1646" name="top"/>
  <outline>
    <contour>
      <point x="722" y="1646" type="curve"/>
      <point x="643" y="1622"/>
      <point x="396" y="1434"/>
      <point x="339" y="1374" type="curve"/>
      <point x="391" y="1345" type="line"/>
      <point x="438" y="1377"/>
      <point x="710" y="1549"/>
      <point x="787" y="1579" type="curve"/>
      <point x="774" y="1605"/>
      <point x="747" y="1636"/>
    </contour>
  </outline>
</glyph>
<glyph name="b_b" format="2">
  <advance width="2320"/>
  <anchor x="1090" y="0" name="caret_1"/>
  <anchor x="1559" y="5" name="bottom"/>
  <anchor x="1952" y="1475" name="top"/>
  <outline>
    <contour>
      <point x="229" y="-46" type="curve"/>
      <point x="248" y="-43"/>
      <point x="313" y="-33"/>
      <point x="323" y="-32" type="curve"/>
      <point x="332" y="0"/>
      <point x="346" y="56"/>
      <point x="351" y="89" type="curve"/>
      <point x="377" y="58"/>
      <point x="440" y="0"/>
      <point x="586" y="0" type="curve" smooth="yes"/>
      <point x="896" y="0"/>
      <point x="1135" y="245"/>
      <point x="1135" y="552" type="curve" smooth="yes"/>
      <point x="1135" y="746"/>
      <point x="1013" y="891"/>
      <point x="807" y="891" type="curve" smooth="yes"/>
      <point x="671" y="891"/>
      <point x="512" y="817"/>
      <point x="417" y="692" type="curve"/>
      <point x="453" y="919"/>
      <point x="497" y="1270"/>
      <point x="500" y="1330" type="curve"/>
      <point x="478" y="1327"/>
      <point x="429" y="1319"/>
      <point x="412" y="1314" type="curve"/>
      <point x="389" y="1108"/>
      <point x="249" y="77"/>
    </contour>
    <contour>
      <point x="619" y="84" type="curve" smooth="yes"/>
      <point x="470" y="84"/>
      <point x="388" y="155"/>
      <point x="364" y="184" type="curve"/>
      <point x="370" y="223"/>
      <point x="407" y="549"/>
      <point x="411" y="591" type="curve"/>
      <point x="508" y="695"/>
      <point x="648" y="812"/>
      <point x="784" y="812" type="curve" smooth="yes"/>
      <point x="954" y="812"/>
      <point x="1043" y="706"/>
      <point x="1043" y="536" type="curve" smooth="yes"/>
      <point x="1043" y="294"/>
      <point x="853" y="84"/>
    </contour>
    <component base="b" xOffset="1121" yOffset="5"/>
  </outline>
</glyph>
<glyph name="brevecomb.case" format="2">
  <anchor x="646" y="1291" name="_top"/>
  <anchor x="709" y="1737" name="top"/>
  <outline>
    <contour>
      <point x="1036" y="1727" type="curve"/>
      <point x="1019" y="1732"/>
      <point x="990" y="1740"/>
      <point x="967" y="1740" type="curve"/>
      <point x="919" y="1561"/>
      <point x="842" y="1470"/>
      <point x="680" y="1470" type="curve" smooth="yes"/>
      <point x="543" y="1470"/>
      <point x="509" y="1535"/>
      <point x="509" y="1592" type="curve" smooth="yes"/>
      <point x="509" y="1634"/>
      <point x="526" y="1694"/>
      <point x="539" y="1734" type="curve"/>
      <point x="512" y="1734"/>
      <point x="494" y="1733"/>
      <point x="465" y="1727" type="curve"/>
      <point x="455" y="1689"/>
      <point x="442" y="1625"/>
      <point x="442" y="1593" type="curve" smooth="yes"/>
      <point x="442" y="1482"/>
      <point x="487" y="1400"/>
      <point x="671" y="1400" type="curve" smooth="yes"/>
      <point x="838" y="1400"/>
      <point x="971" y="1483"/>
    </contour>
  </outline>
</glyph>
<glyph name="brevecomb_gravecomb" format="2">
  <anchor x="480" y="815" name="_top"/>
  <anchor x="675" y="1555" name="top"/>
  <outline>
    <contour>
      <point x="848" y="1233" type="curve"/>
      <point x="830" y="1238"/>
      <point x="800" y="1246"/>
      <point x="777" y="1246" type="curve"/>
      <point x="760" y="1107"/>
      <point x="688" y="945"/>
      <point x="526" y="945" type="curve" smooth="yes"/>
      <point x="406" y="945"/>
      <point x="342" y="1005"/>
      <point x="342" y="1131" type="curve" smooth="yes"/>
      <point x="342" y="1166"/>
      <point x="346" y="1203"/>
      <point x="350" y="1240" type="curve"/>
      <point x="323" y="1240"/>
      <point x="305" y="1239"/>
      <point x="277" y="1233" type="curve"/>
      <point x="274" y="1203"/>
      <point x="271" y="1169"/>
      <point x="271" y="1141" type="curve" smooth="yes"/>
      <point x="271" y="984"/>
      <point x="330" y="875"/>
      <point x="519" y="875" type="curve" smooth="yes"/>
      <point x="686" y="875"/>
      <point x="823" y="1029"/>
    </contour>
    <contour>
      <point x="343" y="1555" type="curve"/>
      <point x="326" y="1545"/>
      <point x="294" y="1516"/>
      <point x="275" y="1496" type="curve"/>
      <point x="402" y="1463"/>
      <point x="653" y="1373"/>
      <point x="742" y="1321" type="curve"/>
      <point x="745" y="1327"/>
      <point x="757" y="1360"/>
      <point x="759" y="1366" type="curve"/>
      <point x="648" y="1470"/>
      <point x="395" y="1553"/>
    </contour>
  </outline>
</glyph>
<glyph name="brevecomb_tildecomb" format="2">
  <anchor x="483" y="773" name="_top"/>
  <anchor x="683" y="1546" name="top"/>
  <outline>
    <contour>
      <point x="851" y="1191" type="curve"/>
      <point x="833" y="1196"/>
      <point x="803" y="1204"/>
      <point x="780" y="1204" type="curve"/>
      <point x="763" y="1065"/>
      <point x="691" y="903"/>
      <point x="529" y="903" type="curve" smooth="yes"/>
      <point x="409" y="903"/>
      <point x="345" y="963"/>
      <point x="345" y="1089" type="curve" smooth="yes"/>
      <point x="345" y="1124"/>
      <point x="349" y="1161"/>
      <point x="353" y="1198" type="curve"/>
      <point x="326" y="1198"/>
      <point x="308" y="1197"/>
      <point x="280" y="1191" type="curve"/>
      <point x="277" y="1161"/>
      <point x="274" y="1127"/>
      <point x="274" y="1099" type="curve" smooth="yes"/>
      <point x="274" y="942"/>
      <point x="333" y="833"/>
      <point x="522" y="833" type="curve" smooth="yes"/>
      <point x="689" y="833"/>
      <point x="826" y="987"/>
    </contour>
    <contour>
      <point x="263" y="1358" type="curve"/>
      <point x="330" y="1318" type="line"/>
      <point x="361" y="1397"/>
      <point x="421" y="1468"/>
      <point x="503" y="1468" type="curve" smooth="yes"/>
      <point x="551" y="1468"/>
      <point x="590" y="1425"/>
      <point x="632" y="1378" type="curve" smooth="yes"/>
      <point x="684" y="1319"/>
      <point x="743" y="1253"/>
      <point x="834" y="1253" type="curve" smooth="yes"/>
      <point x="950" y="1253"/>
      <point x="1017" y="1369"/>
      <point x="1034" y="1422" type="curve"/>
      <point x="957" y="1451" type="line"/>
      <point x="936" y="1381"/>
      <point x="895" y="1326"/>
      <point x="833" y="1326" type="curve" smooth="yes"/>
      <point x="766" y="1326"/>
      <point x="721" y="1375"/>
      <point x="677" y="1426" type="curve" smooth="yes"/>
      <point x="630" y="1481"/>
      <point x="579" y="1535"/>
      <point x="499" y="1535" type="curve" smooth="yes"/>
      <point x="381" y="1535"/>
      <point x="290" y="1433"/>
    </contour>
  </outline>
</glyph>
<glyph name="caroncomb.case" format="2">
  <anchor x="645" y="1291" name="_top"/>
  <anchor x="699" y="1729" name="top"/>
  <outline>
    <contour>
      <point x="978" y="1720" type="curve"/>
      <point x="885" y="1640"/>
      <point x="720" y="1491"/>
      <point x="656" y="1426" type="curve"/>
      <point x="668" y="1426" type="line"/>
      <point x="656" y="1445"/>
      <point x="524" y="1630"/>
      <point x="451" y="1729" type="curve"/>
      <point x="431" y="1717"/>
      <point x="402" y="1700"/>
      <point x="380" y="1690" type="curve"/>
      <point x="464" y="1587"/>
      <point x="545" y="1481"/>
      <point x="611" y="1389" type="curve"/>
      <point x="633" y="1388"/>
      <point x="667" y="1387"/>
      <point x="693" y="1387" type="curve"/>
      <point x="743" y="1431"/>
      <point x="850" y="1519"/>
      <point x="1046" y="1674" type="curve"/>
      <point x="1031" y="1687"/>
      <point x="1000" y="1707"/>
    </contour>
  </outline>
</glyph>
<glyph name="cedillacomb.case" format="2">
  <anchor x="64" y="0" name="_bottom"/>
  <anchor x="15" y="-462" name="bottom"/>
  <outline>
    <contour>
      <point x="15" y="-462" type="curve" smooth="yes"/>
      <point x="212" y="-462"/>
      <point x="365" y="-400"/>
      <point x="365" y="-227" type="curve" smooth="yes"/>
      <point x="365" y="-134"/>
      <point x="300" y="-87"/>
      <point x="204" y="-87" type="curve" smooth="yes"/>
      <point x="156" y="-87"/>
      <point x="91" y="-106"/>
      <point x="72" y="-119" type="curve"/>
      <point x="113" y="39" type="line"/>
      <point x="41" y="43" type="line"/>
      <point x="-26" y="-212" type="line"/>
      <point x="17" y="-194"/>
      <point x="119" y="-159"/>
      <point x="177" y="-159" type="curve" smooth="yes"/>
      <point x="249" y="-159"/>
      <point x="275" y="-189"/>
      <point x="275" y="-242" type="curve" smooth="yes"/>
      <point x="275" y="-362"/>
      <point x="165" y="-392"/>
      <point x="19" y="-392" type="curve" smooth="yes"/>
      <point x="-32" y="-392"/>
      <point x="-106" y="-374"/>
      <point x="-144" y="-364" type="curve"/>
      <point x="-171" y="-437" type="line"/>
      <point x="-152" y="-444"/>
      <point x="-89" y="-462"/>
    </contour>
  </outline>
</glyph>
<glyph name="circumflexcomb.case" format="2">
  <anchor x="595" y="1291" name="_top"/>
  <anchor x="667" y="1653" name="top"/>
  <outline>
    <contour>
      <point x="685" y="1651" type="curve"/>
      <point x="667" y="1653"/>
      <point x="648" y="1653"/>
      <point x="634" y="1653" type="curve"/>
      <point x="595" y="1623"/>
      <point x="419" y="1491"/>
      <point x="304" y="1407" type="curve"/>
      <point x="316" y="1397"/>
      <point x="361" y="1371"/>
      <point x="373" y="1366" type="curve"/>
      <point x="457" y="1431"/>
      <point x="643" y="1578"/>
      <point x="663" y="1595" type="curve"/>
      <point x="648" y="1595" type="line"/>
      <point x="690" y="1549"/>
      <point x="840" y="1401"/>
      <point x="898" y="1360" type="curve"/>
      <point x="915" y="1372"/>
      <point x="932" y="1384"/>
      <point x="953" y="1403" type="curve"/>
      <point x="871" y="1473"/>
      <point x="761" y="1573"/>
    </contour>
  </outline>
</glyph>
<glyph name="circumflexcomb_acutecomb" format="2">
  <anchor x="597" y="1063" name="_top"/>
  <anchor x="787" y="1663" name="top"/>
  <outline>
    <contour>
      <point x="910" y="1112" type="curve"/>
      <point x="930" y="1124"/>
      <point x="950" y="1136"/>
      <point x="967" y="1155" type="curve"/>
      <point x="906" y="1235"/>
      <point x="813" y="1348"/>
      <point x="750" y="1423" type="curve"/>
      <point x="733" y="1425"/>
      <point x="714" y="1425"/>
      <point x="700" y="1425" type="curve"/>
      <point x="654" y="1398"/>
      <point x="438" y="1263"/>
      <point x="304" y="1179" type="curve"/>
      <point x="313" y="1169"/>
      <point x="361" y="1143"/>
      <point x="372" y="1138" type="curve"/>
      <point x="456" y="1187"/>
      <point x="699" y="1350"/>
      <point x="723" y="1367" type="curve"/>
      <point x="708" y="1367" type="line"/>
      <point x="724" y="1351"/>
      <point x="865" y="1180"/>
    </contour>
    <contour>
      <point x="904" y="1392" type="curve"/>
      <point x="950" y="1424"/>
      <point x="1211" y="1582"/>
      <point x="1260" y="1603" type="curve"/>
      <point x="1253" y="1619"/>
      <point x="1218" y="1656"/>
      <point x="1198" y="1666" type="curve"/>
      <point x="1139" y="1642"/>
      <point x="902" y="1478"/>
      <point x="845" y="1417" type="curve"/>
      <point x="855" y="1411"/>
      <point x="890" y="1396"/>
    </contour>
  </outline>
</glyph>
<glyph name="circumflexcomb_gravecomb" format="2">
  <anchor x="632" y="1063" name="_top"/>
  <anchor x="756" y="1569" name="top"/>
  <outline>
    <contour>
      <point x="910" y="1112" type="curve"/>
      <point x="930" y="1124"/>
      <point x="950" y="1136"/>
      <point x="967" y="1155" type="curve"/>
      <point x="906" y="1235"/>
      <point x="813" y="1348"/>
      <point x="750" y="1423" type="curve"/>
      <point x="733" y="1425"/>
      <point x="714" y="1425"/>
      <point x="700" y="1425" type="curve"/>
      <point x="654" y="1398"/>
      <point x="438" y="1263"/>
      <point x="304" y="1179" type="curve"/>
      <point x="313" y="1169"/>
      <point x="361" y="1143"/>
      <point x="372" y="1138" type="curve"/>
      <point x="456" y="1187"/>
      <point x="699" y="1350"/>
      <point x="723" y="1367" type="curve"/>
      <point x="708" y="1367" type="line"/>
      <point x="724" y="1351"/>
      <point x="865" y="1180"/>
    </contour>
    <contour>
      <point x="1128" y="1335" type="curve"/>
      <point x="1131" y="1341"/>
      <point x="1143" y="1375"/>
      <point x="1145" y="1390" type="curve"/>
      <point x="1074" y="1465"/>
      <point x="876" y="1567"/>
      <point x="824" y="1569" type="curve"/>
      <point x="807" y="1559"/>
      <point x="775" y="1530"/>
      <point x="756" y="1510" type="curve"/>
      <point x="882" y="1476"/>
      <point x="1048" y="1396"/>
    </contour>
  </outline>
</glyph>
<glyph name="colon.case" format="2">
  <advance width="564"/>
  <outline>
    <contour>
      <point x="188" y="202" type="curve" smooth="yes"/>
      <point x="260" y="202"/>
      <point x="326" y="251"/>
      <point x="326" y="320" type="curve" smooth="yes"/>
      <point x="326" y="371"/>
      <point x="289" y="414"/>
      <point x="224" y="414" type="curve" smooth="yes"/>
      <point x="155" y="414"/>
      <point x="80" y="360"/>
      <point x="80" y="290" type="curve" smooth="yes"/>
      <point x="80" y="236"/>
      <point x="131" y="202"/>
    </contour>
    <component base="period" xOffset="266" yOffset="969"/>
  </outline>
</glyph>
<glyph name="commaaccentcomb.case" format="2">
  <anchor x="77" y="0" name="_bottom"/>
  <anchor x="-38" y="-460" name="bottom"/>
  <outline>
    <contour>
      <point x="-34" y="-460" type="curve"/>
      <point x="36" y="-405"/>
      <point x="120" y="-294"/>
      <point x="120" y="-218" type="curve" smooth="yes"/>
      <point x="120" y="-176"/>
      <point x="85" y="-151"/>
      <point x="28" y="-151" type="curve" smooth="yes"/>
      <point x="-33" y="-151"/>
      <point x="-73" y="-195"/>
      <point x="-73" y="-239" type="curve" smooth="yes"/>
      <point x="-73" y="-275"/>
      <point x="-54" y="-298"/>
      <point x="-7" y="-298" type="curve" smooth="yes"/>
      <point x="41" y="-298"/>
      <point x="67" y="-267"/>
      <point x="74" y="-237" type="curve"/>
      <point x="75" y="-239"/>
      <point x="75" y="-241"/>
      <point x="75" y="-244" type="curve" smooth="yes"/>
      <point x="75" y="-294"/>
      <point x="-11" y="-401"/>
      <point x="-59" y="-442" type="curve"/>
      <point x="-52" y="-446"/>
      <point x="-39" y="-455"/>
    </contour>
  </outline>
</glyph>
<glyph name="dblgravecomb.case" format="2">
  <anchor x="634" y="1291" name="_top"/>
  <anchor x="722" y="1620" name="top"/>
  <outline>
    <contour>
      <point x="1038" y="1332" type="curve"/>
      <point x="1042" y="1337"/>
      <point x="1058" y="1368"/>
      <point x="1061" y="1374" type="curve"/>
      <point x="966" y="1492"/>
      <point x="728" y="1611"/>
      <point x="676" y="1620" type="curve"/>
      <point x="658" y="1612"/>
      <point x="622" y="1588"/>
      <point x="601" y="1571" type="curve"/>
      <point x="722" y="1520"/>
      <point x="957" y="1396"/>
    </contour>
    <contour>
      <point x="752" y="1322" type="curve"/>
      <point x="755" y="1328"/>
      <point x="767" y="1361"/>
      <point x="769" y="1367" type="curve"/>
      <point x="658" y="1471"/>
      <point x="405" y="1554"/>
      <point x="353" y="1556" type="curve"/>
      <point x="336" y="1546"/>
      <point x="304" y="1517"/>
      <point x="285" y="1497" type="curve"/>
      <point x="412" y="1464"/>
      <point x="663" y="1374"/>
    </contour>
  </outline>
</glyph>
<glyph name="dieresisbelowcomb.case" format="2">
  <anchor x="341.777" y="0" name="_bottom"/>
  <anchor x="256" y="-355" name="bottom"/>
  <outline>
    <contour>
      <point x="98" y="-357" type="curve" smooth="yes"/>
      <point x="144" y="-357"/>
      <point x="191" y="-316"/>
      <point x="191" y="-261" type="curve" smooth="yes"/>
      <point x="191" y="-200"/>
      <point x="145" y="-152"/>
      <point x="96" y="-152" type="curve" smooth="yes"/>
      <point x="49" y="-152"/>
      <point x="1" y="-199"/>
      <point x="1" y="-262" type="curve" smooth="yes"/>
      <point x="1" y="-320"/>
      <point x="50" y="-357"/>
    </contour>
    <contour>
      <point x="474" y="-341" type="curve" smooth="yes"/>
      <point x="523" y="-341"/>
      <point x="556" y="-310"/>
      <point x="556" y="-254" type="curve" smooth="yes"/>
      <point x="556" y="-195"/>
      <point x="511" y="-156"/>
      <point x="455" y="-156" type="curve" smooth="yes"/>
      <point x="406" y="-156"/>
      <point x="369" y="-184"/>
      <point x="369" y="-240" type="curve" smooth="yes"/>
      <point x="369" y="-299"/>
      <point x="418" y="-341"/>
    </contour>
  </outline>
</glyph>
<glyph name="e_e" format="2">
  <advance width="2074"/>
  <anchor x="951" y="0" name="caret_1"/>
  <anchor x="1406" y="10" name="bottom"/>
  <anchor x="1594" y="53" name="ogonek"/>
  <anchor x="1710" y="1063" name="top"/>
  <outline>
    <contour>
      <point x="423" y="36" type="curve" smooth="yes"/>
      <point x="579" y="36"/>
      <point x="751" y="102"/>
      <point x="853" y="174" type="curve"/>
      <point x="848" y="192"/>
      <point x="832" y="234"/>
      <point x="821" y="255" type="curve"/>
      <point x="731" y="175"/>
      <point x="577" y="121"/>
      <point x="437" y="121" type="curve" smooth="yes"/>
      <point x="322" y="121"/>
      <point x="177" y="170"/>
      <point x="177" y="428" type="curve"/>
      <point x="234" y="438"/>
      <point x="651" y="481"/>
      <point x="895" y="505" type="curve"/>
      <point x="907" y="574"/>
      <point x="918" y="641"/>
      <point x="918" y="700" type="curve" smooth="yes"/>
      <point x="918" y="913"/>
      <point x="803" y="1004"/>
      <point x="647" y="1004" type="curve" smooth="yes"/>
      <point x="369" y="1004"/>
      <point x="90" y="836"/>
      <point x="90" y="439" type="curve" smooth="yes"/>
      <point x="90" y="190"/>
      <point x="197" y="36"/>
    </contour>
    <contour>
      <point x="182" y="496" type="curve"/>
      <point x="182" y="790"/>
      <point x="409" y="922"/>
      <point x="642" y="922" type="curve" smooth="yes"/>
      <point x="789" y="922"/>
      <point x="832" y="809"/>
      <point x="832" y="709" type="curve" smooth="yes"/>
      <point x="832" y="646"/>
      <point x="819" y="588"/>
      <point x="813" y="567" type="curve"/>
      <point x="712" y="558"/>
      <point x="313" y="514"/>
    </contour>
    <component base="e" xOffset="982"/>
  </outline>
</glyph>
<glyph name="exclamdown.case" format="2">
  <advance width="708"/>
  <outline>
    <contour>
      <point x="514" y="1103" type="curve"/>
      <point x="437" y="816"/>
      <point x="255" y="189"/>
      <point x="170" y="-23" type="curve"/>
      <point x="248" y="-28" type="line"/>
      <point x="312" y="126"/>
      <point x="495" y="778"/>
      <point x="581" y="1099" type="curve"/>
      <point x="575" y="1101"/>
      <point x="526" y="1103"/>
    </contour>
    <contour>
      <point x="619" y="1471" type="curve" smooth="yes"/>
      <point x="549" y="1471"/>
      <point x="488" y="1417"/>
      <point x="488" y="1344" type="curve" smooth="yes"/>
      <point x="488" y="1291"/>
      <point x="526" y="1258"/>
      <point x="582" y="1258" type="curve" smooth="yes"/>
      <point x="653" y="1258"/>
      <point x="721" y="1302"/>
      <point x="721" y="1380" type="curve" smooth="yes"/>
      <point x="721" y="1431"/>
      <point x="687" y="1471"/>
    </contour>
  </outline>
</glyph>
<glyph name="f_a" format="2">
  <advance width="2053"/>
  <anchor x="679" y="0" name="caret_1"/>
  <anchor x="1234" y="0" name="bottom"/>
  <anchor x="1804" y="10" name="ogonek"/>
  <anchor x="1508" y="1063" name="top"/>
  <outline>
    <contour>
      <point x="219" y="2" type="curve"/>
      <point x="236" y="3"/>
      <point x="286" y="12"/>
      <point x="313" y="19" type="curve"/>
      <point x="313" y="75"/>
      <point x="325" y="398"/>
      <point x="347" y="583" type="curve"/>
      <point x="480" y="600"/>
      <point x="673" y="614"/>
      <point x="692" y="614" type="curve"/>
      <point x="698" y="639"/>
      <point x="704" y="672"/>
      <point x="705" y="691" type="curve"/>
      <point x="632" y="691"/>
      <point x="429" y="670"/>
      <point x="357" y="660" type="curve"/>
      <point x="367" y="728"/>
      <point x="387" y="840"/>
      <point x="407" y="912" type="curve" smooth="yes"/>
      <point x="461" y="1107"/>
      <point x="562" y="1293"/>
      <point x="750" y="1293" type="curve" smooth="yes"/>
      <point x="933" y="1293"/>
      <point x="933" y="1106"/>
      <point x="933" y="815" type="curve"/>
      <point x="1009" y="767" type="line"/>
      <point x="1009" y="1135"/>
      <point x="975" y="1362"/>
      <point x="756" y="1362" type="curve" smooth="yes"/>
      <point x="537" y="1362"/>
      <point x="396" y="1170"/>
      <point x="331" y="923" type="curve" smooth="yes"/>
      <point x="309" y="839"/>
      <point x="292" y="737"/>
      <point x="278" y="646" type="curve"/>
      <point x="250" y="641"/>
      <point x="82" y="603"/>
      <point x="54" y="593" type="curve"/>
      <point x="53" y="568"/>
      <point x="53" y="544"/>
      <point x="53" y="520" type="curve"/>
      <point x="98" y="535"/>
      <point x="201" y="559"/>
      <point x="267" y="571" type="curve"/>
      <point x="242" y="368"/>
      <point x="220" y="21"/>
    </contour>
    <component base="a" xOffset="758"/>
  </outline>
</glyph>
<glyph name="f_f_i" format="2">
  <advance width="2051"/>
  <anchor x="683.667" y="0" name="caret_1"/>
  <anchor x="1367.333" y="0" name="caret_2"/>
  <outline>
    <contour>
      <point x="195" y="12" type="curve"/>
      <point x="212" y="14"/>
      <point x="249" y="17"/>
      <point x="284" y="19" type="curve"/>
      <point x="284" y="244"/>
      <point x="289" y="553"/>
      <point x="338" y="737" type="curve" smooth="yes"/>
      <point x="398" y="963"/>
      <point x="484" y="1160"/>
      <point x="701" y="1160" type="curve" smooth="yes"/>
      <point x="826" y="1160"/>
      <point x="912" y="1082"/>
      <point x="932" y="1057" type="curve"/>
      <point x="942" y="1071"/>
      <point x="972" y="1120"/>
      <point x="976" y="1130" type="curve"/>
      <point x="961" y="1150"/>
      <point x="859" y="1233"/>
      <point x="705" y="1233" type="curve" smooth="yes"/>
      <point x="453" y="1233"/>
      <point x="332" y="1035"/>
      <point x="254" y="743" type="curve" smooth="yes"/>
      <point x="209" y="573"/>
      <point x="195" y="224"/>
    </contour>
    <contour>
      <point x="908" y="-1" type="curve"/>
      <point x="925" y="-1"/>
      <point x="981" y="7"/>
      <point x="992" y="10" type="curve"/>
      <point x="992" y="153"/>
      <point x="1039" y="718"/>
      <point x="1102" y="950" type="curve" smooth="yes"/>
      <point x="1153" y="1139"/>
      <point x="1250" y="1339"/>
      <point x="1421" y="1339" type="curve" smooth="yes"/>
      <point x="1608" y="1339"/>
      <point x="1669" y="1130"/>
      <point x="1676" y="1105" type="curve"/>
      <point x="1696" y="1118"/>
      <point x="1730" y="1143"/>
      <point x="1743" y="1153" type="curve"/>
      <point x="1731" y="1210"/>
      <point x="1624" y="1414"/>
      <point x="1438" y="1414" type="curve" smooth="yes"/>
      <point x="1210" y="1414"/>
      <point x="1091" y="1210"/>
      <point x="1022" y="952" type="curve" smooth="yes"/>
      <point x="947" y="673"/>
      <point x="908" y="181"/>
    </contour>
    <contour>
      <point x="50" y="540" type="curve"/>
      <point x="388" y="646"/>
      <point x="1067" y="724"/>
      <point x="1507" y="724" type="curve" smooth="yes"/>
      <point x="1565" y="724"/>
      <point x="1697" y="719"/>
      <point x="1773" y="715" type="curve"/>
      <point x="1708" y="483"/>
      <point x="1580" y="75"/>
      <point x="1543" y="-6" type="curve"/>
      <point x="1556" y="-9"/>
      <point x="1610" y="-15"/>
      <point x="1630" y="-15" type="curve"/>
      <point x="1662" y="70"/>
      <point x="1736" y="322"/>
      <point x="1791" y="524" type="curve" smooth="yes"/>
      <point x="1820" y="632"/>
      <point x="1843" y="726"/>
      <point x="1853" y="774" type="curve"/>
      <point x="1765" y="785"/>
      <point x="1649" y="791"/>
      <point x="1514" y="791" type="curve" smooth="yes"/>
      <point x="1095" y="791"/>
      <point x="500" y="734"/>
      <point x="59" y="609" type="curve"/>
      <point x="54" y="586"/>
      <point x="51" y="562"/>
    </contour>
    <contour>
      <point x="1891" y="1020" type="curve" smooth="yes"/>
      <point x="1944" y="1020"/>
      <point x="1994" y="1077"/>
      <point x="1994" y="1140" type="curve" smooth="yes"/>
      <point x="1994" y="1175"/>
      <point x="1976" y="1200"/>
      <point x="1936" y="1200" type="curve" smooth="yes"/>
      <point x="1879" y="1200"/>
      <point x="1824" y="1141"/>
      <point x="1824" y="1087" type="curve" smooth="yes"/>
      <point x="1824" y="1048"/>
      <point x="1853" y="1020"/>
    </contour>
  </outline>
</glyph>
<glyph name="f_l" format="2">
  <advance width="1301"/>
  <anchor x="600" y="0" name="caret_1"/>
  <outline>
    <contour>
      <point x="1085" y="-22" type="curve"/>
      <point x="1086" y="-11"/>
      <point x="1095" y="44"/>
      <point x="1099" y="60" type="curve"/>
      <point x="1067" y="55"/>
      <point x="1036" y="51"/>
      <point x="1009" y="51" type="curve" smooth="yes"/>
      <point x="926" y="51"/>
      <point x="895" y="101"/>
      <point x="895" y="186" type="curve" smooth="yes"/>
      <point x="895" y="352"/>
      <point x="1066" y="869"/>
      <point x="1158" y="1140" type="curve"/>
      <point x="1078" y="1167" type="line"/>
      <point x="923" y="696"/>
      <point x="807" y="339"/>
      <point x="807" y="144" type="curve" smooth="yes"/>
      <point x="807" y="31"/>
      <point x="853" y="-32"/>
      <point x="985" y="-32" type="curve" smooth="yes"/>
      <point x="1022" y="-32"/>
      <point x="1057" y="-28"/>
    </contour>
    <contour>
      <point x="224" y="2" type="curve"/>
      <point x="242" y="3"/>
      <point x="292" y="12"/>
      <point x="319" y="19" type="curve"/>
      <point x="319" y="55"/>
      <point x="345" y="472"/>
      <point x="368" y="657" type="curve"/>
      <point x="501" y="674"/>
      <point x="687" y="688"/>
      <point x="706" y="688" type="curve"/>
      <point x="713" y="713"/>
      <point x="719" y="746"/>
      <point x="720" y="765" type="curve"/>
      <point x="647" y="765"/>
      <point x="449" y="744"/>
      <point x="378" y="734" type="curve"/>
      <point x="380" y="782"/>
      <point x="397" y="870"/>
      <point x="419" y="952" type="curve" smooth="yes"/>
      <point x="499" y="1251"/>
      <point x="666" y="1383"/>
      <point x="854" y="1383" type="curve" smooth="yes"/>
      <point x="1037" y="1383"/>
      <point x="1068" y="1206"/>
      <point x="1068" y="1120" type="curve"/>
      <point x="1158" y="1140" type="line"/>
      <point x="1152" y="1227"/>
      <point x="1097" y="1458"/>
      <point x="862" y="1458" type="curve" smooth="yes"/>
      <point x="643" y="1458"/>
      <point x="432" y="1323"/>
      <point x="336" y="953" type="curve" smooth="yes"/>
      <point x="314" y="869"/>
      <point x="297" y="783"/>
      <point x="293" y="720" type="curve"/>
      <point x="265" y="715"/>
      <point x="103" y="683"/>
      <point x="76" y="673" type="curve"/>
      <point x="74" y="661"/>
      <point x="67" y="611"/>
      <point x="67" y="594" type="curve"/>
      <point x="112" y="609"/>
      <point x="216" y="633"/>
      <point x="282" y="645" type="curve"/>
      <point x="256" y="442"/>
      <point x="226" y="47"/>
    </contour>
  </outline>
</glyph>
